<svg xmlns="http://www.w3.org/2000/svg" xmlns:xlink="http://www.w3.org/1999/xlink" viewBox="0 0 512 512" id="svg-fullscreen">
<g>
	<rect y="256" width="32" height="96"></rect>
	<rect x="288" width="96" height="32"></rect>
	<polygon points="32,384 0,384 0,512 96,512 96,480 32,480"></polygon>
	<rect y="128" width="32" height="96"></rect>
	<rect x="128" y="480" width="96" height="32"></rect>
	<polygon points="32,32 128,32 128,0 0,0 0,96 32,96"></polygon>
	<rect x="160" width="96" height="32"></rect>
	<rect x="480" y="160" width="32" height="96"></rect>
	<rect x="480" y="288" width="32" height="96"></rect>
	<polygon points="416,0 416,32 480,32 480,128 512,128 512,0"></polygon>
	<rect x="256" y="480" width="96" height="32"></rect>
	<polygon points="480,416 480,480 384,480 384,512 480,512 512,512 512,416"></polygon>
	<polygon points="144.938,111.018 172.442,83.514 191.978,64.215 191.74,64.214 191.976,63.976 63.976,63.976
		63.976,139.154 63.808,191.808 63.976,191.641 63.976,191.976 105.209,150.745 111.039,144.962 204,237.92 237.92,204
		145.035,111.117"></polygon>
	<polygon points="339.453,428.5 319.978,447.738 320.215,447.738 319.976,447.976 447.976,447.976 447.976,373.563
		448.148,320.144 447.976,320.314 447.976,319.976 401.308,366.647 400.936,367.016 308.785,274.865 308.25,274.328 308.25,274.329
		308.08,274.16 274.16,308.08 367.016,400.938"></polygon>
	<polygon points="204.17,274.328 204.168,274.329 204,274.16 112.055,366.184 111.119,367.117 83.75,339.748
		64.219,319.976 64.219,320.217 63.976,319.976 63.976,447.976 191.976,447.976 145.039,401.039 237.92,308.08 204.363,274.524"></polygon>
	<polygon points="400.719,145.359 401.039,145.04 428.449,172.449 447.738,191.976 447.738,191.738 447.976,191.976
		447.976,64.734 447.978,64.215 447.976,64.215 447.976,63.976 373.002,63.976 320.148,63.808 320.316,63.976 319.976,63.976
		367.02,111.017 367.121,111.12 367.119,111.121 274.16,204 308.08,237.92"></polygon>
</g>
</svg>
