<?xml version="1.0" encoding="UTF-8"?><svg id="_レイヤー_1" xmlns="http://www.w3.org/2000/svg" viewBox="0 0 158.35 53.88"><defs><style>.svg-1{fill:#e60012;}.svg-2{fill:#fff;}</style></defs><g><path class="svg-2" d="m.02,4.95C.14,3.84.57,0,4.98,0c.85,0,4.36.24,4.36,3.85,0,1.96-.73,2.92-2.65,4.31-2.92,2.12-4.05,2.92-4.72,4.98h7.5v1.51H0c.36-3.73,2.51-5.4,4.46-6.93,2.71-2.1,3.14-2.43,3.14-3.89,0-2.21-2.23-2.31-2.73-2.31-2.84,0-3.14,2.59-3.22,3.42H.02Z"/><path class="svg-2" d="m16.79,0c2.8,0,5.25,2.19,5.25,7.34s-2.31,7.48-5.23,7.48c-3.32,0-5.23-3.14-5.23-7.42S13.49,0,16.79,0Zm.02,1.53c-2.31,0-3.55,2.59-3.55,5.75,0,2.36.69,6.03,3.55,6.03,3.22,0,3.55-4.57,3.55-5.92,0-2.93-1.03-5.85-3.55-5.85Z"/><path class="svg-2" d="m24.28,4.95c.12-1.11.55-4.95,4.96-4.95.85,0,4.36.24,4.36,3.85,0,1.96-.73,2.92-2.65,4.31-2.92,2.12-4.05,2.92-4.72,4.98h7.5v1.51h-9.48c.36-3.73,2.51-5.4,4.46-6.93,2.71-2.1,3.14-2.43,3.14-3.89,0-2.21-2.23-2.31-2.73-2.31-2.84,0-3.14,2.59-3.22,3.42h-1.64Z"/><path class="svg-2" d="m37.55,10.44c.02.54.14,2.87,3.04,2.87,1.9,0,3.06-1.08,3.06-2.88,0-2.71-2.76-2.71-3.67-2.71h-1.4v-1.46h1.44c1.15,0,1.74,0,2.41-.47.83-.57.97-1.44.97-1.98,0-2.14-2.11-2.28-2.82-2.28-2.07,0-2.72,1.39-2.88,2.57h-1.64c.49-3.3,2.8-4.1,4.54-4.1,2.69,0,4.52,1.41,4.52,3.82s-1.84,2.99-2.45,3.18c2.39.62,2.71,2.34,2.71,3.49,0,2.36-1.52,4.32-4.76,4.32-3.02,0-4.54-1.82-4.72-4.38h1.66Z"/><path class="svg-2" d="m10.3,22.35h3.25v30.52h-3.54v-25.91l-4.66,3.15-1.67-3.26,6.62-4.5Z"/><path class="svg-2" d="m29.08,22.35h3.25v30.52h-3.54v-25.91l-4.66,3.15-1.67-3.26,6.62-4.5Z"/><path class="svg-2" d="m61.42,29.69l-19.92,22.77-1.31-1.81,19.89-22.79,1.34,1.84Z"/><path class="svg-2" d="m75.96,22.35h3.25v30.52h-3.54v-25.91l-4.66,3.15-1.67-3.26,6.62-4.5Z"/><path class="svg-2" d="m87.12,32.41c.25-2.34,1.17-10.43,10.45-10.43,1.79,0,9.2.51,9.2,8.12,0,4.13-1.54,6.15-5.58,9.07-6.16,4.46-8.53,6.15-9.95,10.5h15.82v3.18h-19.98c.75-7.87,5.29-11.38,9.41-14.6,5.7-4.43,6.62-5.12,6.62-8.2,0-4.65-4.7-4.87-5.74-4.87-5.99,0-6.62,5.45-6.79,7.21h-3.46Z"/></g><ellipse class="svg-1" cx="140.24" cy="37.01" rx="16.91" ry="16.88"/><path class="svg-2" d="m133.05,45.41v1.61h-1.96v-20.2h18.3v20.13h-1.96v-1.54h-14.38Zm14.38-17h-14.38v6.53h14.38v-6.53Zm0,8.11h-14.38v7.31h14.38v-7.31Z"/><g><path class="svg-2" d="m123.1,10.16c.02,1.48.36,3.12,3.04,3.12,2.49,0,3.12-1.51,3.12-2.59,0-1.79-1.2-2.15-3.4-2.85-3.18-1.01-4.34-1.68-4.34-3.79,0-2.31,1.68-4.06,4.66-4.06,4.26,0,4.54,3.26,4.62,4.1h-1.74c-.14-1.67-1.34-2.57-2.9-2.57-.87,0-2.9.33-2.9,2.52,0,.92.18,1.2,3.47,2.26,2.39.76,4.3,1.37,4.3,4.15,0,3-2.11,4.38-4.84,4.38-4.32,0-4.78-2.95-4.84-4.67h1.74Z"/><path class="svg-2" d="m135.33.17v9.36c0,1.41,0,3.77,3.49,3.77,2.51,0,3.61-.82,3.61-3.77V.17h1.68v9.36c0,1.3,0,5.28-5.31,5.28-1.74,0-3.5-.56-4.38-1.86-.73-1.06-.77-3-.77-3.42V.17h1.68Z"/><path class="svg-2" d="m147.09.17h1.94l7.62,11.62.57,1.37-.55-1.41V.17h1.68v14.48h-1.8l-7.72-11.74-.39-.92.34.94v11.72h-1.68V.17Z"/></g></svg>