<?xml version="1.0" encoding="UTF-8"?><svg id="_レイヤー_1" xmlns="http://www.w3.org/2000/svg" viewBox="0 0 597.13 260.9"><defs><style>.cls-1{fill:#fff;}.cls-2{fill:#231815;}</style></defs><g><g><path class="cls-1" d="m49.33,196.4h-29.79v-8.84h-10.37v-29.03h40.05v-7.2h17.9v7.2h40.16v29.03h-10.59v8.84h-29.57v10.04h30.99v16.26h-30.99v12.22c2.29.11,3.6.11,5.46.11h38.85l-3.82,17.9h-37.43c-16.04,0-28.92-3.82-39.18-16.81-3.71,7.75-7.42,13.31-13.53,19.32l-12.66-14.19c12.11-11.46,16.26-25.54,17.57-41.69l17.46,2.29c-.76,6-1.75,11.79-3.27,17.79,3.38,5.13,7.09,9.06,12.77,11.57v-34.81Zm40.05-16.15v-6H27.17v6h62.2Z"/><path class="cls-1" d="m17.46,260.25c-.05,0-.11,0-.16,0-1.31-.04-2.55-.62-3.42-1.6l-12.66-14.19c-1.73-1.94-1.6-4.9.28-6.68,9.55-9.03,14.36-20.17,15.95-37.04-1.61-.78-2.72-2.42-2.72-4.33v-4.04h-5.57c-2.65,0-4.8-2.15-4.8-4.8v-29.03c0-2.65,2.15-4.8,4.8-4.8h35.25v-2.4c0-2.65,2.15-4.8,4.8-4.8h17.9c2.65,0,4.8,2.15,4.8,4.8v2.4h35.36c2.65,0,4.8,2.15,4.8,4.8v29.03c0,2.65-2.15,4.8-4.8,4.8h-5.79v4.04c0,2.65-2.15,4.8-4.8,4.8h-24.77v.44h26.19c2.65,0,4.8,2.15,4.8,4.8v16.26c0,2.65-2.15,4.8-4.8,4.8h-26.19v2.73h39.51c1.45,0,2.82.65,3.73,1.78s1.27,2.6.96,4.02l-3.82,17.9c-.47,2.21-2.43,3.8-4.69,3.8h-37.43c-16.58,0-28.62-4.14-38.12-13.28-3.17,5.51-6.6,9.87-11.23,14.41-.9.88-2.11,1.38-3.36,1.38Zm-6.1-18.84l6.2,6.95c3.56-4.09,6.29-8.42,9.1-14.29.72-1.49,2.15-2.51,3.8-2.7,1.65-.19,3.27.5,4.3,1.79,8.3,10.5,18.89,14.98,35.41,14.98h33.55l1.77-8.3h-32.92c-1.9,0-3.28,0-5.68-.11-2.56-.12-4.57-2.23-4.57-4.79v-12.22c0-2.65,2.15-4.8,4.8-4.8h26.19v-6.66h-26.19c-2.65,0-4.8-2.15-4.8-4.8v-10.04c0-2.65,2.15-4.8,4.8-4.8h24.77v-4.04c0-2.65,2.15-4.8,4.8-4.8h5.79v-19.43h-35.36c-2.65,0-4.8-2.15-4.8-4.8v-2.4h-8.3v2.4c0,2.65-2.15,4.8-4.8,4.8H13.97v19.43h5.57c2.65,0,4.8,2.15,4.8,4.8v4.04h24.99c2.65,0,4.8,2.15,4.8,4.8v34.81c0,1.62-.82,3.14-2.18,4.02-1.36.89-3.08,1.03-4.56.37-7.57-3.35-11.91-8.88-14.83-13.31-.74-1.13-.98-2.52-.64-3.83.99-3.9,1.81-7.95,2.5-12.47l-7.75-1.02c-1.39,11.47-4.84,24.82-15.29,36.43Zm30.37-22.7c.93,1.28,1.85,2.4,2.79,3.38v-19.09c-.76,5.83-1.66,10.89-2.79,15.7Zm47.64-33.65H27.17c-2.65,0-4.8-2.15-4.8-4.8v-6c0-2.65,2.15-4.8,4.8-4.8h62.2c2.65,0,4.8,2.15,4.8,4.8v6c0,2.65-2.15,4.8-4.8,4.8Z"/></g><g><path class="cls-1" d="m167.51,251.52c-3.71-6-7.2-11.13-11.79-16.48l10.26-6.77h-23.57l11.02,6.22c-2.29,6.44-10.26,16.81-15.82,20.73l-12.11-11.46c6.55-4.58,9.6-9.06,13.97-15.5h-12.66v-15.39h6.33v-39.83h-5.24v-15.28h5.24v-6.33h16.81v6.33h12v-6.33h16.7v6.33h6.55v-4.69h42.02v91.12c0,7.97-3.27,10.37-10.91,10.37h-14.95l-2.95-16.92h8.73c2.84,0,3.06-1.85,3.06-4.26v-11.89h-10.26c-.98,10.91-4.69,24.77-11.35,33.5l-12.22-11.13-8.84,7.64Zm-17.57-78.46v4.58h12v-4.58h-12Zm0,17.35v5.02h12v-5.02h-12Zm0,17.02v5.46h12v-5.46h-12Zm31.54,20.84h-12.33c2.62,2.51,6,6.66,8.08,9.49,1.75-3.06,3.17-6.11,4.26-9.49Zm3.71-30.12v-25.1h-6.55v39.83h5.78c.55-4.69.76-9.93.76-14.73Zm15.5-27.17v9.82h9.49v-9.82h-9.49Zm0,25.21v9.49h9.49v-9.49h-9.49Z"/><path class="cls-1" d="m137.61,260.03c-1.19,0-2.38-.44-3.3-1.31l-12.11-11.46c-1.05-.99-1.59-2.4-1.49-3.84s.85-2.75,2.03-3.58c3.1-2.17,5.32-4.32,7.34-6.76h-3.28c-2.65,0-4.8-2.15-4.8-4.8v-15.39c0-2.65,2.15-4.8,4.8-4.8h1.53v-30.23h-.44c-2.65,0-4.8-2.15-4.8-4.8v-15.28c0-2.65,2.15-4.8,4.8-4.8h.44v-1.53c0-2.65,2.15-4.8,4.8-4.8h16.81c2.65,0,4.8,2.15,4.8,4.8v1.53h2.4v-1.53c0-2.65,2.15-4.8,4.8-4.8h16.7c1.74,0,3.26.92,4.1,2.31.72-.42,1.55-.67,2.45-.67h42.02c2.65,0,4.8,2.15,4.8,4.8v91.12c0,13.6-8.97,15.17-15.71,15.17h-14.95c-2.33,0-4.33-1.68-4.73-3.98l-.55-3.19c-1.11,2.03-2.33,3.95-3.67,5.71-.82,1.07-2.04,1.75-3.38,1.87-1.35.11-2.67-.33-3.67-1.23l-9.07-8.26-5.62,4.85c-1.06.92-2.48,1.32-3.87,1.11-1.39-.21-2.62-1.03-3.36-2.22-3.03-4.9-5.6-8.67-8.28-12.12-3.79,6.5-9.89,13.78-14.77,17.23-.83.59-1.8.88-2.77.88Zm67.77-10.26h10.91c5.19,0,6.11-.41,6.11-5.57v-86.32h-32.42c-.06,2.6-2.18,4.69-4.8,4.69h-6.55c-2.65,0-4.8-2.15-4.8-4.8v-1.53h-7.1v1.53c0,2.65-2.15,4.8-4.8,4.8h-12c-2.65,0-4.8-2.15-4.8-4.8v-1.53h-7.21v1.53c0,2.65-2.15,4.8-4.8,4.8h-.44v5.68h.44c2.65,0,4.8,2.15,4.8,4.8v39.83c0,2.65-2.15,4.8-4.8,4.8h-1.53v5.79h7.86c.51,0,1,.08,1.47.23.47-.15.96-.23,1.47-.23h23.57c.55,0,1.08.09,1.58.27.5-.17,1.03-.27,1.58-.27h12.33c1.53,0,2.98.73,3.88,1.97.9,1.24,1.16,2.84.69,4.3-1.14,3.53-2.62,6.83-4.66,10.4-.23.4-.51.76-.83,1.07l7.06,6.43c4.48-8.19,6.84-18.95,7.52-26.57.22-2.47,2.3-4.37,4.78-4.37h10.26c2.65,0,4.8,2.15,4.8,4.8v11.89c0,7.88-4.92,9.06-7.86,9.06h-3.02l1.27,7.31Zm-72.56-5.69l4.97,4.7c3.36-3.3,7.12-8.2,9.42-12.29l-5.44-3.07c-2.7,3.92-5.27,7.36-8.95,10.67Zm29.99-7.97c1.93,2.48,3.79,5.11,5.77,8.13l4.56-3.94c-1.57-2.13-3.85-4.95-5.89-7.12l-4.45,2.93Zm40.19-3.26h2.39v-6.55h-1.19c-.3,2.1-.7,4.3-1.19,6.55Zm-18.57-15.17h-5.78c-2.65,0-4.8-2.15-4.8-4.8v-39.83c0-2.65,2.15-4.8,4.8-4.8h6.55c2.65,0,4.8,2.15,4.8,4.8v25.1c0,3.85-.14,9.62-.8,15.29-.28,2.42-2.33,4.25-4.77,4.25Zm-22.48,0h-12c-2.65,0-4.8-2.15-4.8-4.8v-5.46c0-2.65,2.15-4.8,4.8-4.8h12c2.65,0,4.8,2.15,4.8,4.8v5.46c0,2.65-2.15,4.8-4.8,4.8Zm48.24-7.2h-9.49c-2.65,0-4.8-2.15-4.8-4.8v-9.49c0-2.65,2.15-4.8,4.8-4.8h9.49c2.65,0,4.8,2.15,4.8,4.8v9.49c0,2.65-2.15,4.8-4.8,4.8Zm-48.24-10.26h-12c-2.65,0-4.8-2.15-4.8-4.8v-5.02c0-2.65,2.15-4.8,4.8-4.8h12c2.65,0,4.8,2.15,4.8,4.8v5.02c0,2.65-2.15,4.8-4.8,4.8Zm48.24-14.62h-9.49c-2.65,0-4.8-2.15-4.8-4.8v-9.82c0-2.65,2.15-4.8,4.8-4.8h9.49c2.65,0,4.8,2.15,4.8,4.8v9.82c0,2.65-2.15,4.8-4.8,4.8Zm-48.24-3.17h-12c-2.65,0-4.8-2.15-4.8-4.8v-4.58c0-2.65,2.15-4.8,4.8-4.8h12c2.65,0,4.8,2.15,4.8,4.8v4.58c0,2.65-2.15,4.8-4.8,4.8Z"/></g><g><path class="cls-1" d="m272.16,189.09l-10.37,14.08c-5.78-5.35-9.82-7.97-16.48-11.79l9.6-13.64c6.44,2.95,12,6.66,17.24,11.35Zm-14.73,65.7l-12.11-15.17c6.44-9.82,11.9-22.48,15.5-33.61l14.08,9.71c-3.06,10.58-11.35,30.01-17.46,39.07Zm6.22-79.45c-5.02-4.37-11.13-8.51-17.13-11.24l9.38-13.42c7.2,3.06,11.9,5.78,18.23,10.37v-3.82h28.16v-6.11h17.46v6.11h28.26v25.21h-9.93v5.78h-19.1v3.93h27.39v43.22h-14.62c6.33,2.95,13.2,4.58,20.08,5.57l-7.42,14.84c-9.17-2.29-19.42-7.09-27.17-12.44l8.29-7.97h-29.9l8.73,8.18c-7.2,6-18.99,10.37-28.16,12.44l-7.31-14.84c6.66-1.2,15.5-2.95,21.61-5.78h-14.84v-43.22h27.28v-3.93h-18.88v-5.78h-9.93v-20.84l-10.48,13.75Zm67.77-3.27h-41.36v4.37h41.36v-4.37Zm-38.85,36.34h10.37v-4.8h-10.37v4.8Zm0,14.62h10.37v-5.02h-10.37v5.02Zm26.41-14.62h10.48v-4.8h-10.48v4.8Zm0,14.62h10.48v-5.02h-10.48v5.02Z"/><path class="cls-1" d="m276.19,260.79c-1.8,0-3.48-1.01-4.3-2.68l-5.01-10.16c-1.88,3.67-3.75,6.96-5.48,9.52-.85,1.27-2.26,2.05-3.79,2.11-1.53.04-2.99-.61-3.94-1.8l-12.11-15.17c-1.3-1.62-1.4-3.89-.26-5.63,5.56-8.48,11-20.28,14.92-32.37-4.22-3.64-7.68-5.85-13.29-9.07-1.17-.67-2-1.81-2.3-3.12s-.02-2.7.76-3.8l9.6-13.64c.54-.77,1.28-1.34,2.1-1.68-2.86-1.92-5.77-3.56-8.57-4.83-1.3-.59-2.27-1.73-2.64-3.1s-.12-2.85.7-4.02l9.38-13.42c1.3-1.86,3.72-2.55,5.81-1.67,5.2,2.21,9.23,4.28,13.56,7.06.79-.56,1.75-.89,2.79-.89h23.35v-1.31c0-2.65,2.15-4.8,4.8-4.8h17.46c2.65,0,4.8,2.15,4.8,4.8v1.31h23.46c2.65,0,4.8,2.15,4.8,4.8v25.21c0,2.65-2.15,4.8-4.8,4.8h-5.13v.11h3.49c2.65,0,4.8,2.15,4.8,4.8v43.22c0,.21-.01.41-.04.61.45.07.91.14,1.37.21,1.53.22,2.86,1.16,3.57,2.52.72,1.37.73,2.99.04,4.38l-7.42,14.84c-1.01,2.01-3.28,3.05-5.46,2.51-9.51-2.38-20.25-7.29-28.74-13.15-1.19-.82-1.94-2.13-2.06-3.56-.1-1.3.32-2.58,1.18-3.55h-5.86c.93.93,1.43,2.21,1.39,3.52-.04,1.38-.67,2.67-1.73,3.55-10.1,8.42-25.65,12.41-30.17,13.44-.35.08-.71.12-1.06.12Zm-.22-16.12l2.81,5.71c5.74-1.59,12.53-4.12,17.98-7.37l-3.78-3.54c-.15.09-.31.17-.47.25-4.68,2.17-10.65,3.73-16.54,4.95Zm49-2.13c5.34,3.09,11.32,5.76,16.91,7.52l2.76-5.53c-5.59-1.18-10.51-2.77-14.93-4.83-.4-.18-.76-.42-1.08-.69l-3.66,3.52Zm-73.78-3.26l5.66,7.09c4.56-8.41,9.62-20.35,12.4-28.72l-5.97-4.12c-3.45,9.42-7.68,18.44-12.1,25.74Zm44.43-8.73h29.9c1.17,0,2.26.42,3.11,1.14.84-.72,1.94-1.14,3.11-1.14h9.82v-33.61h-22.59c-2.65,0-4.8-2.15-4.8-4.8v-3.93c0-2.65,2.15-4.8,4.8-4.8h14.3v-.98c0-.61.11-1.19.32-1.72-.65.33-1.39.52-2.17.52h-41.36c-.49,0-.97-.07-1.41-.21.14.45.21.92.21,1.41v.98h14.08c2.65,0,4.8,2.15,4.8,4.8v3.93c0,2.65-2.15,4.8-4.8,4.8h-22.48v33.61h10.04c.93,0,1.82.27,2.56.74.75-.47,1.64-.74,2.56-.74Zm-28.75-26.2l3.97,2.74v-8.14l-3.97,5.4Zm-14.64-14.47c3.21,1.97,5.9,3.83,8.79,6.22l4.6-6.25c-2.91-2.29-5.94-4.28-9.15-6l-4.24,6.02Zm24.4-2.55h2.62v-.11h-2.67s.03.07.04.11Zm-9.77-8.44c.83.55,1.65,1.12,2.46,1.72v-4.81l-1.86,2.44c-.18.24-.39.46-.61.66Zm23.2-11.64h41.36c2.65,0,4.8,2.15,4.8,4.8v4.37c0,.61-.11,1.19-.32,1.72.65-.33,1.39-.52,2.17-.52h5.13v-15.61h-23.46c-2.65,0-4.8-2.15-4.8-4.8v-1.31h-7.86v1.31c0,2.65-2.15,4.8-4.8,4.8h-23.36v15.61h5.13c.49,0,.97.07,1.41.21-.14-.45-.21-.92-.21-1.41v-4.37c0-2.65,2.15-4.8,4.8-4.8Zm-36.46-4.93c3.11,1.76,6.24,3.84,9.23,6.14l4.71-6.18c-3.38-2.26-6.4-3.96-9.98-5.63l-3.96,5.67Zm75.85,65.49h-10.48c-2.65,0-4.8-2.15-4.8-4.8v-5.02c0-2.65,2.15-4.8,4.8-4.8h10.48c2.65,0,4.8,2.15,4.8,4.8v5.02c0,2.65-2.15,4.8-4.8,4.8Zm-26.52,0h-10.37c-2.65,0-4.8-2.15-4.8-4.8v-5.02c0-2.65,2.15-4.8,4.8-4.8h10.37c2.65,0,4.8,2.15,4.8,4.8v5.02c0,2.65-2.15,4.8-4.8,4.8Zm26.52-14.62h-10.48c-2.65,0-4.8-2.15-4.8-4.8v-4.8c0-2.65,2.15-4.8,4.8-4.8h10.48c2.65,0,4.8,2.15,4.8,4.8v4.8c0,2.65-2.15,4.8-4.8,4.8Zm-26.52,0h-10.37c-2.65,0-4.8-2.15-4.8-4.8v-4.8c0-2.65,2.15-4.8,4.8-4.8h10.37c2.65,0,4.8,2.15,4.8,4.8v4.8c0,2.65-2.15,4.8-4.8,4.8Z"/></g><g><path class="cls-1" d="m459.09,232.09h-21.5c9.93,4.58,20.41,7.53,31.32,7.64l-6.77,16.37c-16.26-2.73-33.5-8.4-43.76-22.15-9.82,13.21-28.26,20.08-44.2,22.04l-6.77-16.81c9.6,0,24.55-1.53,32.63-7.09h-22.7v-8.18c-.98.55-1.96.98-2.95,1.53l-9.17-15.71c5.46-2.95,9.82-5.67,14.62-9.49h-13.21v-13.53h26.19c.76-.98,1.64-2.29,2.29-3.38h-20.73v-10.8h26.19c.44-1.09.76-2.07,1.2-3.17h-32.63v-13.31h36.45c.44-1.86.76-3.71,1.2-5.67l18.55.65c-.33,1.64-.55,3.38-.98,5.02h43.33v13.31h-46.82c-.33,1.09-.65,2.07-.98,3.17h42.23v10.8h-20.52c.65,1.09,1.31,2.29,2.07,3.38h26.41v13.53h-13.53c5.02,3.82,9.5,6.22,15.17,8.73l-8.84,16.81c-1.31-.66-2.62-1.31-3.82-2.07v8.4Zm-49.87-15.93h-16.59v-2.84c-2.84,2.51-5.78,4.69-8.95,6.77h24.66c.44-1.42.66-2.51.87-3.93Zm-7.86-11.46h35.36c-1.2-1.42-2.29-2.95-3.49-4.47h-28.16c-1.2,1.53-2.4,3.06-3.71,4.47Zm23.57-18.01c-.66-1.09-1.2-2.29-1.75-3.38h-7.86c-.55,1.09-1.09,2.29-1.75,3.38h11.35Zm19.1,25.75v3.71h-18.44c-.22,1.64-.33,2.29-.66,3.93h28.59c-3.27-2.4-6.44-4.91-9.5-7.64Z"/><path class="cls-1" d="m462.15,260.9c-.26,0-.53-.02-.8-.07-19.41-3.26-33.54-9.66-42.99-19.5-9.89,10.1-25.71,17.22-43.59,19.43-2.17.27-4.23-.96-5.04-2.97l-6.77-16.81c-.6-1.48-.42-3.16.47-4.48.89-1.32,2.38-2.11,3.98-2.11,1.76,0,3.66-.05,5.62-.17-.31-.64-.49-1.36-.49-2.12v-2.23c-.93-.39-1.75-1.07-2.29-2.01l-9.17-15.71c-.66-1.12-.83-2.46-.48-3.72s1.2-2.31,2.34-2.93c.57-.31,1.13-.62,1.67-.92-1.64-.76-2.77-2.43-2.77-4.35v-13.53c0-2.65,2.15-4.8,4.8-4.8h2.95v-7.75h-.44c-2.65,0-4.8-2.15-4.8-4.8v-13.31c0-2.65,2.15-4.8,4.8-4.8h32.56c.13-.63.26-1.27.41-1.91.5-2.26,2.56-3.84,4.86-3.76l18.55.65c1.41.05,2.72.71,3.6,1.82.72.91,1.08,2.05,1.03,3.2h37.55c2.65,0,4.8,2.15,4.8,4.8v13.31c0,2.65-2.15,4.8-4.8,4.8h-.76v7.75h3.17c2.65,0,4.8,2.15,4.8,4.8v13.53c0,1.64-.82,3.09-2.08,3.96.29.13.57.26.86.38,1.22.54,2.16,1.56,2.59,2.81.44,1.26.33,2.64-.28,3.81l-8.84,16.81c-.69,1.32-1.91,2.18-3.27,2.46v1.63c0,.92-.26,1.77-.7,2.5,1.93.21,3.85.32,5.77.34,1.59.02,3.08.82,3.96,2.15.88,1.33,1.04,3.01.43,4.48l-6.77,16.37c-.75,1.82-2.52,2.97-4.43,2.97Zm-87.72-17.16l2.8,6.96c16.32-2.72,30.09-9.92,37.3-19.62.91-1.22,2.33-1.93,3.85-1.94h0c1.52,0,2.94.72,3.85,1.93,7.22,9.68,19.33,16.11,36.96,19.6l2.71-6.57c-8.57-.94-17.25-3.47-26.33-7.66-2.05-.94-3.16-3.19-2.68-5.39.48-2.2,2.43-3.77,4.69-3.77h16.7v-2.46c-.25.04-.51.06-.76.06h-28.59c-1.44,0-2.8-.64-3.71-1.76s-1.28-2.57-1-3.98c.31-1.55.4-2.09.6-3.62.32-2.38,2.35-4.17,4.76-4.17h13.77c.34-1.44,1.33-2.67,2.71-3.29,1.73-.77,3.75-.46,5.16.8,2.74,2.44,5.72,4.85,9.14,7.35.94.69,1.57,1.67,1.83,2.76.91-.17,1.85-.08,2.72.27l4.25-8.07c-3.8-1.89-7.45-4.06-11.49-7.13-1.64-1.25-2.3-3.4-1.64-5.35s2.49-3.27,4.55-3.27h8.73v-3.93h-21.61c-1.57,0-3.03-.76-3.93-2.05-.67-.96-1.25-1.95-1.76-2.83-.17-.29-.33-.57-.5-.84-.89-1.48-.91-3.33-.06-4.83.85-1.5,2.45-2.43,4.18-2.43h15.72v-1.2h-37.43c-1.52,0-2.95-.72-3.85-1.94-.91-1.22-1.18-2.79-.75-4.25.17-.56.34-1.09.5-1.62.16-.5.32-1.01.48-1.54.61-2.03,2.48-3.42,4.6-3.42h42.02v-3.71h-38.52c-1.49,0-2.9-.69-3.81-1.88-.74-.96-1.08-2.16-.98-3.34l-8.91-.31c-.13.61-.26,1.22-.4,1.83-.51,2.17-2.45,3.7-4.67,3.7h-31.65v3.71h27.83c1.59,0,3.08.79,3.97,2.11.89,1.32,1.07,2.99.48,4.47-.2.5-.38.98-.55,1.46-.21.56-.41,1.12-.65,1.71-.73,1.82-2.49,3.02-4.46,3.02h-21.39v1.2h15.93c1.73,0,3.32.93,4.18,2.43.85,1.5.83,3.35-.06,4.83-.81,1.35-1.79,2.8-2.62,3.87-.91,1.17-2.31,1.85-3.79,1.85h-21.39v3.93h8.4c2.04,0,3.86,1.29,4.53,3.22s.05,4.07-1.54,5.34c-3.52,2.8-6.9,5.12-11.01,7.53l4.49,7.7c.86-.19,1.76-.13,2.6.16.2-1.32.95-2.54,2.12-3.3,3.18-2.08,5.92-4.16,8.4-6.35,1.41-1.25,3.43-1.56,5.15-.78,1.09.49,1.94,1.36,2.41,2.41h12.21c1.4,0,2.73.61,3.64,1.67.91,1.06,1.31,2.47,1.1,3.85-.23,1.52-.5,2.88-1.03,4.61-.62,2.01-2.48,3.39-4.59,3.39h-24.66c-.53,0-1.05-.09-1.53-.25v2.65h17.9c2.1,0,3.96,1.37,4.58,3.37.62,2.01-.13,4.19-1.86,5.38-7.82,5.39-20.11,7.14-28.34,7.7Zm62.29-34.24h-35.36c-1.91,0-3.63-1.13-4.4-2.88-.76-1.75-.42-3.78.87-5.18,1.18-1.28,2.29-2.69,3.46-4.18.91-1.16,2.3-1.84,3.78-1.84h28.16c1.47,0,2.87.68,3.78,1.84.45.57.88,1.14,1.31,1.71.71.94,1.38,1.82,2.07,2.63,1.21,1.43,1.48,3.43.69,5.12-.79,1.7-2.49,2.78-4.35,2.78Zm-11.79-18.01h-11.35c-1.73,0-3.33-.93-4.18-2.44-.85-1.51-.83-3.35.06-4.84.39-.64.75-1.39,1.14-2.19l.43-.87c.81-1.63,2.48-2.65,4.29-2.65h7.86c1.82,0,3.48,1.03,4.29,2.65l.43.87c.39.8.75,1.55,1.14,2.19.89,1.48.92,3.33.06,4.84-.85,1.51-2.45,2.44-4.18,2.44Z"/></g><g><path class="cls-1" d="m493.35,195.97l-9.06-18.55c15.17-5.57,33.5-13.86,43.43-27.06h21.72c11.68,12.99,26.63,20.95,42.89,26.74l-9.38,18.33c-5.35-2.29-10.48-4.8-15.5-7.75v6.77h-58.17v-6.33c-5.35,3.27-10.04,5.67-15.93,7.86Zm24.77,56.09c-8.51.44-17.02.76-25.65,1.2l-2.95-18.77c1.2,0,2.4.11,3.6.11,4.15,0,8.29-.11,12.44-.11,2.51-5.35,4.69-10.91,6.44-16.59h-22.92v-17.46h98.44v17.46h-20.3c8.08,9.06,15.06,18.99,21.61,29.25l-17.46,8.95c-1.42-2.62-2.84-5.13-4.37-7.64-16.26,1.31-32.52,2.73-48.89,3.6Zm35.47-73.55c-5.78-4.37-10.15-8.4-15.06-13.53-4.26,5.02-9.71,9.39-14.95,13.53h30.01Zm-4.58,44.96l12.33-5.57h-29.47c-2.29,5.57-4.69,11.13-7.31,16.48,10.8,0,21.5-.55,32.3-.87-2.51-3.38-5.13-6.77-7.86-10.04Z"/><path class="cls-1" d="m571.38,260.9c-1.71,0-3.36-.91-4.23-2.52-.97-1.79-1.86-3.39-2.74-4.9l-5.04.41c-13.4,1.09-27.25,2.22-41,2.96h-.01c-4.35.22-8.69.42-13.05.61-4.18.19-8.38.38-12.59.59-2.49.14-4.6-1.62-4.99-4.05l-2.95-18.77c-.22-1.39.18-2.8,1.09-3.86s2.25-1.68,3.65-1.68c.67,0,1.35.03,2.02.06,2.58.12,5.16.03,7.74,0,1.06-.01,2.12-.03,3.19-.04,1.03-2.32,1.97-4.66,2.84-7h-16.22c-2.65,0-4.8-2.15-4.8-4.8v-17.46c0-2.25,1.54-4.13,3.63-4.66l-7.94-16.26c-.6-1.22-.65-2.64-.14-3.9.51-1.26,1.52-2.25,2.8-2.71,13.11-4.81,31.65-12.68,41.25-25.44.91-1.21,2.33-1.92,3.84-1.92h21.72c1.36,0,2.66.58,3.57,1.59,9.8,10.9,22.81,18.98,40.93,25.42,1.3.46,2.34,1.47,2.85,2.75.51,1.29.44,2.73-.19,3.96l-8.4,16.41c2.33.33,4.13,2.33,4.13,4.75v17.46c0,2.65-2.15,4.8-4.8,4.8h-10.01c4.96,6.28,9.97,13.41,15.37,21.86.73,1.14.94,2.53.59,3.84-.35,1.3-1.24,2.4-2.44,3.02l-17.46,8.95c-.7.36-1.45.53-2.19.53Zm-53.26-8.84h0,0Zm48.89-8.4c1.67,0,3.22.87,4.1,2.3.73,1.21,1.46,2.44,2.21,3.75l8.6-4.41c-6.19-9.39-11.9-16.98-17.7-23.56-.28.21-.58.39-.91.54l-6.67,3.01c1.32,1.69,2.67,3.46,4.08,5.36,1.07,1.44,1.24,3.34.46,4.95-.78,1.61-2.39,2.65-4.17,2.71-3.11.09-6.2.21-9.29.32-7.56.27-15.38.56-23.15.56-1.66,0-3.2-.85-4.07-2.26-.88-1.41-.97-3.16-.24-4.65,2.24-4.56,4.45-9.56,7.18-16.2.74-1.8,2.49-2.97,4.44-2.97h29.47c1.1,0,2.13.37,2.95,1.01.83-.64,1.86-1.01,2.95-1.01h15.5v-7.86h-88.83v7.86h18.12c1.52,0,2.96.72,3.86,1.95.91,1.22,1.17,2.81.73,4.26-1.77,5.75-4.02,11.54-6.68,17.22-.79,1.68-2.48,2.76-4.35,2.76-2.05,0-4.1.03-6.16.05-1.42.02-2.84.04-4.26.05l1.39,8.86c2.79-.13,5.56-.26,8.34-.38,4.34-.19,8.66-.39,12.98-.61h0c13.61-.73,27.4-1.85,40.73-2.94l8.03-.65c.13-.01.26-.02.39-.02Zm-31.94-20.96c-1.03,2.46-2,4.7-2.94,6.8,5.11-.1,10.22-.29,15.22-.47-.69-.85-1.36-1.68-2.04-2.49-.89-1.07-1.27-2.47-1.05-3.84h-9.19Zm-44.16-42.66l4.79,9.82c3.63-1.56,7.05-3.38,11.07-5.84,1.48-.91,3.34-.94,4.85-.09,1.52.85,2.45,2.45,2.45,4.19v1.53h48.57v-1.97c0-1.72.92-3.31,2.42-4.17,1.49-.85,3.33-.85,4.82.03,3.38,1.98,6.96,3.85,10.86,5.65l4.86-9.49c-16.24-6.37-28.54-14.27-38.26-24.55h-17.3c-10.05,12.04-26.12,19.8-39.13,24.89Zm62.67,3.27h-30.01c-2.04,0-3.86-1.29-4.53-3.22-.67-1.93-.05-4.07,1.55-5.34,4.78-3.79,10.2-8.08,14.27-12.87.88-1.04,2.16-1.65,3.52-1.69,1.39-.07,2.67.5,3.61,1.48,5.12,5.35,9.32,9.12,14.48,13.02,1.65,1.24,2.32,3.4,1.66,5.36-.66,1.96-2.49,3.28-4.55,3.28Zm-16.82-9.6h3.71c-.61-.58-1.23-1.18-1.85-1.79-.61.61-1.23,1.21-1.86,1.79Z"/></g></g><g><path class="cls-2" d="m49.33,196.4h-29.79v-8.84h-10.37v-29.03h40.05v-7.2h17.9v7.2h40.16v29.03h-10.59v8.84h-29.57v10.04h30.99v16.26h-30.99v12.22c2.29.11,3.6.11,5.46.11h38.85l-3.82,17.9h-37.43c-16.04,0-28.92-3.82-39.18-16.81-3.71,7.75-7.42,13.31-13.53,19.32l-12.66-14.19c12.11-11.46,16.26-25.54,17.57-41.69l17.46,2.29c-.76,6-1.75,11.79-3.27,17.79,3.38,5.13,7.09,9.06,12.77,11.57v-34.81Zm40.05-16.15v-6H27.17v6h62.2Z"/><path class="cls-2" d="m167.51,251.52c-3.71-6-7.2-11.13-11.79-16.48l10.26-6.77h-23.57l11.02,6.22c-2.29,6.44-10.26,16.81-15.82,20.73l-12.11-11.46c6.55-4.58,9.6-9.06,13.97-15.5h-12.66v-15.39h6.33v-39.83h-5.24v-15.28h5.24v-6.33h16.81v6.33h12v-6.33h16.7v6.33h6.55v-4.69h42.02v91.12c0,7.97-3.27,10.37-10.91,10.37h-14.95l-2.95-16.92h8.73c2.84,0,3.06-1.85,3.06-4.26v-11.89h-10.26c-.98,10.91-4.69,24.77-11.35,33.5l-12.22-11.13-8.84,7.64Zm-17.57-78.46v4.58h12v-4.58h-12Zm0,17.35v5.02h12v-5.02h-12Zm0,17.02v5.46h12v-5.46h-12Zm31.54,20.84h-12.33c2.62,2.51,6,6.66,8.08,9.49,1.75-3.06,3.17-6.11,4.26-9.49Zm3.71-30.12v-25.1h-6.55v39.83h5.78c.55-4.69.76-9.93.76-14.73Zm15.5-27.17v9.82h9.49v-9.82h-9.49Zm0,25.21v9.49h9.49v-9.49h-9.49Z"/><path class="cls-2" d="m272.16,189.09l-10.37,14.08c-5.78-5.35-9.82-7.97-16.48-11.79l9.6-13.64c6.44,2.95,12,6.66,17.24,11.35Zm-14.73,65.7l-12.11-15.17c6.44-9.82,11.9-22.48,15.5-33.61l14.08,9.71c-3.06,10.58-11.35,30.01-17.46,39.07Zm6.22-79.45c-5.02-4.37-11.13-8.51-17.13-11.24l9.38-13.42c7.2,3.06,11.9,5.78,18.23,10.37v-3.82h28.16v-6.11h17.46v6.11h28.26v25.21h-9.93v5.78h-19.1v3.93h27.39v43.22h-14.62c6.33,2.95,13.2,4.58,20.08,5.57l-7.42,14.84c-9.17-2.29-19.42-7.09-27.17-12.44l8.29-7.97h-29.9l8.73,8.18c-7.2,6-18.99,10.37-28.16,12.44l-7.31-14.84c6.66-1.2,15.5-2.95,21.61-5.78h-14.84v-43.22h27.28v-3.93h-18.88v-5.78h-9.93v-20.84l-10.48,13.75Zm67.77-3.27h-41.36v4.37h41.36v-4.37Zm-38.85,36.34h10.37v-4.8h-10.37v4.8Zm0,14.62h10.37v-5.02h-10.37v5.02Zm26.41-14.62h10.48v-4.8h-10.48v4.8Zm0,14.62h10.48v-5.02h-10.48v5.02Z"/><path class="cls-2" d="m459.09,232.09h-21.5c9.93,4.58,20.41,7.53,31.32,7.64l-6.77,16.37c-16.26-2.73-33.5-8.4-43.76-22.15-9.82,13.21-28.26,20.08-44.2,22.04l-6.77-16.81c9.6,0,24.55-1.53,32.63-7.09h-22.7v-8.18c-.98.55-1.96.98-2.95,1.53l-9.17-15.71c5.46-2.95,9.82-5.67,14.62-9.49h-13.21v-13.53h26.19c.76-.98,1.64-2.29,2.29-3.38h-20.73v-10.8h26.19c.44-1.09.76-2.07,1.2-3.17h-32.63v-13.31h36.45c.44-1.86.76-3.71,1.2-5.67l18.55.65c-.33,1.64-.55,3.38-.98,5.02h43.33v13.31h-46.82c-.33,1.09-.65,2.07-.98,3.17h42.23v10.8h-20.52c.65,1.09,1.31,2.29,2.07,3.38h26.41v13.53h-13.53c5.02,3.82,9.5,6.22,15.17,8.73l-8.84,16.81c-1.31-.66-2.62-1.31-3.82-2.07v8.4Zm-49.87-15.93h-16.59v-2.84c-2.84,2.51-5.78,4.69-8.95,6.77h24.66c.44-1.42.66-2.51.87-3.93Zm-7.86-11.46h35.36c-1.2-1.42-2.29-2.95-3.49-4.47h-28.16c-1.2,1.53-2.4,3.06-3.71,4.47Zm23.57-18.01c-.66-1.09-1.2-2.29-1.75-3.38h-7.86c-.55,1.09-1.09,2.29-1.75,3.38h11.35Zm19.1,25.75v3.71h-18.44c-.22,1.64-.33,2.29-.66,3.93h28.59c-3.27-2.4-6.44-4.91-9.5-7.64Z"/><path class="cls-2" d="m493.35,195.97l-9.06-18.55c15.17-5.57,33.5-13.86,43.43-27.06h21.72c11.68,12.99,26.63,20.95,42.89,26.74l-9.38,18.33c-5.35-2.29-10.48-4.8-15.5-7.75v6.77h-58.17v-6.33c-5.35,3.27-10.04,5.67-15.93,7.86Zm24.77,56.09c-8.51.44-17.02.76-25.65,1.2l-2.95-18.77c1.2,0,2.4.11,3.6.11,4.15,0,8.29-.11,12.44-.11,2.51-5.35,4.69-10.91,6.44-16.59h-22.92v-17.46h98.44v17.46h-20.3c8.08,9.06,15.06,18.99,21.61,29.25l-17.46,8.95c-1.42-2.62-2.84-5.13-4.37-7.64-16.26,1.31-32.52,2.73-48.89,3.6Zm35.47-73.55c-5.78-4.37-10.15-8.4-15.06-13.53-4.26,5.02-9.71,9.39-14.95,13.53h30.01Zm-4.58,44.96l12.33-5.57h-29.47c-2.29,5.57-4.69,11.13-7.31,16.48,10.8,0,21.5-.55,32.3-.87-2.51-3.38-5.13-6.77-7.86-10.04Z"/></g><g><g><path class="cls-1" d="m94.92,66.93c5.15-6.57,8.67-15.25,10.86-26.21l10.29,2c-1.33,2.95-2.67,5.62-4.1,7.91h20.11l.1-2.67h1.81l-.19,8.39h-1.91l.1-2.76h-21.82c-4.19,6.19-8.67,10.48-14.1,14.29l-1.14-.95Zm5.91,49.46c7.91-4.38,14.48-9.81,21.15-18.2l8.1,5.15c-9.81,8.29-17.72,11.72-28.59,14.67l-.67-1.62Zm2.29-15.63l4.76-22.68,9.05,1.05-.57,2.57h13.82v-10.48h-23.25l.1,2.19h-1.91l-.29-7.34h1.91l.1,2.19h48.6l.1-.95c-1.14-4.38-2.29-8.1-4-11.91l.95-.76c4.38,1.81,8,4,12.1,6.86l-7.91,5.34h8.96l-1.05,20.58h-10.1l.1-2.76h-14.48v10.01h19.82c.1-.95.1-2,.1-3.05h9.62c0,7.53-.67,15.25-2.19,19.44-1.33,3.33-3.53,4.48-6.67,4.48-2.38,0-8.67-1.52-13.72-4.19v-1.72c2.95.29,5.72.48,8,.29,2-.19,2.76-.67,3.33-2.86.67-2,1.14-5.53,1.33-9.43h-19.63v20.96h-9.91v-20.96h-17.15l-.86,4.1-9.05-.95Zm27.06-6.1v-10.01h-14.39l-2.1,10.01h16.49Zm-15.82-39.26l.86-.57c4.48,2.1,7.91,4.48,11.63,7.34l-9.34,5.62c-.76-4.38-1.91-8.48-3.14-12.39Zm16.29,10.67c5.15-6.38,8.67-14.58,10.86-25.35l10.29,2c-1.24,2.95-2.57,5.62-4,7.91h26.01l.1-2.67h1.81l-.29,8.39h-1.81l.1-2.76h-27.73c-4,5.81-8.67,9.81-14.2,13.44l-1.14-.95Zm24.11,15.63l.57-10.48h-15.25v10.48h14.67Z"/><path class="cls-2" d="m98.74,123.6l-3.82-9.29,3.64-2.02c3.39-1.88,6.48-3.95,9.38-6.33l-10.46-1.1,5.63-26.78h-2.48l-.29-7.51c-.51.38-1.04.76-1.58,1.14l-2.93,2.06-7.38-6.15,2.79-3.57c4.62-5.9,7.88-13.83,9.96-24.24l.91-4.56,20.66,4.02-2.43,5.39c-.2.45-.4.88-.6,1.31h7.83l.1-2.67h8.48c.28-1.13.54-2.3.79-3.5l.92-4.54,20.49,3.98-2.22,5.3c-.2.48-.41.96-.61,1.42h13.8l.1-2.67h11.16l-.6,17.74h-7.88l.76.53-2.35,1.58-1.21,23.79h5.02v4.68c0,4.28-.24,14.9-2.47,21.04l-.05.14c-1.97,4.92-5.67,7.42-11.01,7.42-3.34,0-10.37-1.81-15.91-4.73l-.09-.05v7.83h-19.26v-10.6c-7.56,5.03-14.61,7.65-22.78,9.87l-3.98,1.08Zm36.11-9.7h.56v-8.95l-.56.47v8.48Zm28.01-5.52c-.24.89-.55,1.67-.92,2.36.53-.16.79-.53,1.12-1.36.92-2.59,1.57-7.38,1.79-13.1h-.4l-.08,1.55c-.13,2.58-.49,7.33-1.52,10.54Zm-18.1-3.68l2.73.26c2.17.21,4.6.4,6.54.32.19-.66.4-1.66.58-2.99h-9.85v2.41Zm-9.91-3.88l.56.35v-28.23h-.56v27.88Zm9.91-10.84h4.94l.02-.65h-4.97v.65Zm-25.31,0h6.05v-.65h-5.91l-.14.65Zm39.94-7.24h.74l.57-11.23h-.7l-.61,11.23Zm-14.62-5.72h5.57l.06-1.13h-5.63v1.13Zm-22.57,0h3.31v-1.13h-3.06l-.25,1.13Zm21.48-13.44h5.94c-.49-1.55-1.04-3.13-1.69-4.73-1.31,1.66-2.71,3.23-4.25,4.73Zm-32.36,0h.53c-.26-1.03-.54-2.1-.86-3.22-.28.35-.56.69-.84,1.02h1.08l.1,2.19Zm56.81-5.32l.75.52.02-.52h-.77Z"/></g><g><path class="cls-1" d="m205.4,103.89l2.17-3c7.5,5.5,16.84,9.17,27.01,8.67,11.67-.5,19.68-8.84,19.68-23.18,0-15.51-8.34-22.34-24.51-24.35h-10v-5h13.17c17.18-3.17,20.01-14.17,20.01-25.85s-8.5-18.84-18.51-18.84c-8.17,0-14.17,1.5-19.68,4.17v16.67h-4.67V14.18c7.84-4.67,17.51-9.5,33.18-9.5,20.84,0,33.52,8.84,33.52,23.51s-14.17,25.35-30.35,30.35c17.01,2.33,31.18,10.51,31.18,27.51,0,18.51-18.34,29.68-39.85,29.68h-1.33c-13.67-.33-23.01-4-31.02-11.84Z"/><path class="cls-2" d="m237.75,120.41h-1.45c-14.7-.36-25.24-4.42-34.17-13.17l-2.88-2.82,7.28-10.08,3.8,2.79c5.22,3.83,13.61,8.29,24.02,7.77,9.69-.42,15.23-7.16,15.23-18.51,0-12.28-5.65-17.82-20.13-19.67h-14.39v-14.36h17.41c13.12-2.56,15.77-10.01,15.77-21.17,0-7.04-4.75-14.17-13.83-14.17-5.78,0-10.52.79-15,2.55v18.3h-14.02V11.52l2.28-1.36c8.86-5.28,19.3-10.16,35.58-10.16,23.56,0,38.19,10.8,38.19,28.19,0,11.91-7.23,22.15-20.26,29.26,13.57,5.33,21.09,15.31,21.09,28.6,0,19.91-18.73,34.36-44.53,34.36Zm10.84-56.8c6.94,4.89,10.34,12.44,10.34,22.77s-4.03,18.97-10.91,23.67c13.52-2.7,24.9-10.84,24.9-24,0-8.36-4.31-18.85-24.34-22.44Zm-5.24-54.26c8.53,3.41,14.25,11.68,14.25,21.84,0,6.37-.8,14.09-5.45,20.28,17.84-7.66,19.94-18.58,19.94-23.28,0-5.66-2.8-18.8-28.74-18.83Z"/></g><g><path class="cls-1" d="m306.61,68.21c0-28.35,13.01-55.86,44.36-61.53,4.67-.83,8.67-1.17,12.84-1.17,4.84,0,9.67.5,14.84,1.33v19.34h-4.67v-15.01c-7.34-.83-14.01-.67-20.84,1.5-15.67,5-21.84,19.34-23.34,43.35,6.84-5.17,15.67-8.84,25.35-8.84,18.17,0,33.02,9.34,33.02,33.68,0,19.34-16.67,34.85-38.19,34.85-26.01,0-43.35-17.51-43.35-47.52Zm43.35,42.52c13.84,0,17.01-12.17,17.01-29.51,0-21.51-7.84-28.35-17.34-28.35-6.34,0-13.67,3.17-20.18,8.5-.17,2.83-.17,5.84-.17,9,0,27.18,5.34,40.35,20.68,40.35Z"/><path class="cls-2" d="m349.97,120.41c-29.18,0-48.03-20.49-48.03-52.2,0-27.76,12.66-59.7,48.2-66.13,9.66-1.72,17.67-1.72,29.26.15l3.93.63v28h-14.02v-15.39c-5.59-.29-10.26.24-14.75,1.66-11.02,3.52-16.87,12.44-19.22,30.05,6.3-3.04,13.1-4.67,19.81-4.67,23.6,0,37.69,14.34,37.69,38.36,0,22.17-18.83,39.53-42.86,39.53Zm-11.15-104.75c-12.37,6.2-27.53,20.37-27.53,52.55,0,19.6,7.72,33.44,21.33,39.46-6.77-8.56-8-23.03-8-37.3,0-1.56,0-3.09.02-4.58l-.14.11.29-4.67s0-.09,0-.14l.33-5.35c1.37-21.92,6.96-33.56,13.69-40.09Zm23.28,36.76c5.24,4.31,9.55,12.73,9.55,28.8,0,6.41,0,18.21-5.33,26.12,10.31-5.09,17.15-14.92,17.15-26.46,0-19.75-10.46-26.65-21.38-28.46Zm-28.07,11.31c-.07,2.1-.07,4.33-.07,6.65,0,29.61,6.4,35.68,16,35.68,5.97,0,12.33-1.92,12.33-24.84s-9.53-23.67-12.67-23.67c-4.7,0-10.3,2.23-15.6,6.18Z"/></g><g><path class="cls-1" d="m424.98,46.63h10.39l.19,4.86h50.41l.19-4.86h10.48l-2.57,68.42h-10.39l.29-6.77h-46.31l.29,6.77h-10.39l-2.57-68.42Zm59.08,58.7l1.81-50.89h-50.22l1.91,50.89h46.5Zm-39.83-38.31h9.34l.1,1.71h13.53l.09-1.71h9.43l-2,27.54h-9.24l.1-2.67h-10.29l.19,2.67h-9.34l-1.91-27.54Zm21.63,21.92l1.14-17.25h-13.15l1.24,17.25h10.77Z"/><path class="cls-2" d="m498.57,119.73h-19.77l.29-6.77h-36.55l.29,6.77h-19.77l-2.92-77.77h19.74l.19,4.86h41.42l.19-4.86h19.83l-2.92,77.77Zm-10.01-9.35h1l2.22-59.07h-1.12l-1.86,52.3h.04l-.29,6.77Zm-56.5,0h1l-.29-6.77h.04l-1.96-52.3h-1.02l2.22,59.07Zm10.01-9.72h37.48l.56-15.61-1.03,14.19h-18.44l.1-2.67h-.42l.19,2.67h-18.49l.05,1.41Zm17.38-16.39h2.04l.52-7.89h-3.13l.57,7.89Zm-1.36-20.2h4.68l.09-1.71h18.05l.12-3.23h-40.52l.12,3.23h17.36l.1,1.71Z"/></g></g><g><path class="cls-1" d="m94.92,66.93c5.15-6.57,8.67-15.25,10.86-26.21l10.29,2c-1.33,2.95-2.67,5.62-4.1,7.91h20.11l.1-2.67h1.81l-.19,8.39h-1.91l.1-2.76h-21.82c-4.19,6.19-8.67,10.48-14.1,14.29l-1.14-.95Zm5.91,49.46c7.91-4.38,14.48-9.81,21.15-18.2l8.1,5.15c-9.81,8.29-17.72,11.72-28.59,14.67l-.67-1.62Zm2.29-15.63l4.76-22.68,9.05,1.05-.57,2.57h13.82v-10.48h-23.25l.1,2.19h-1.91l-.29-7.34h1.91l.1,2.19h48.6l.1-.95c-1.14-4.38-2.29-8.1-4-11.91l.95-.76c4.38,1.81,8,4,12.1,6.86l-7.91,5.34h8.96l-1.05,20.58h-10.1l.1-2.76h-14.48v10.01h19.82c.1-.95.1-2,.1-3.05h9.62c0,7.53-.67,15.25-2.19,19.44-1.33,3.33-3.53,4.48-6.67,4.48-2.38,0-8.67-1.52-13.72-4.19v-1.72c2.95.29,5.72.48,8,.29,2-.19,2.76-.67,3.33-2.86.67-2,1.14-5.53,1.33-9.43h-19.63v20.96h-9.91v-20.96h-17.15l-.86,4.1-9.05-.95Zm27.06-6.1v-10.01h-14.39l-2.1,10.01h16.49Zm-15.82-39.26l.86-.57c4.48,2.1,7.91,4.48,11.63,7.34l-9.34,5.62c-.76-4.38-1.91-8.48-3.14-12.39Zm16.29,10.67c5.15-6.38,8.67-14.58,10.86-25.35l10.29,2c-1.24,2.95-2.57,5.62-4,7.91h26.01l.1-2.67h1.81l-.29,8.39h-1.81l.1-2.76h-27.73c-4,5.81-8.67,9.81-14.2,13.44l-1.14-.95Zm24.11,15.63l.57-10.48h-15.25v10.48h14.67Z"/><path class="cls-1" d="m205.4,103.89l2.17-3c7.5,5.5,16.84,9.17,27.01,8.67,11.67-.5,19.68-8.84,19.68-23.18,0-15.51-8.34-22.34-24.51-24.35h-10v-5h13.17c17.18-3.17,20.01-14.17,20.01-25.85s-8.5-18.84-18.51-18.84c-8.17,0-14.17,1.5-19.68,4.17v16.67h-4.67V14.18c7.84-4.67,17.51-9.5,33.18-9.5,20.84,0,33.52,8.84,33.52,23.51s-14.17,25.35-30.35,30.35c17.01,2.33,31.18,10.51,31.18,27.51,0,18.51-18.34,29.68-39.85,29.68h-1.33c-13.67-.33-23.01-4-31.02-11.84Z"/><path class="cls-1" d="m306.61,68.21c0-28.35,13.01-55.86,44.36-61.53,4.67-.83,8.67-1.17,12.84-1.17,4.84,0,9.67.5,14.84,1.33v19.34h-4.67v-15.01c-7.34-.83-14.01-.67-20.84,1.5-15.67,5-21.84,19.34-23.34,43.35,6.84-5.17,15.67-8.84,25.35-8.84,18.17,0,33.02,9.34,33.02,33.68,0,19.34-16.67,34.85-38.19,34.85-26.01,0-43.35-17.51-43.35-47.52Zm43.35,42.52c13.84,0,17.01-12.17,17.01-29.51,0-21.51-7.84-28.35-17.34-28.35-6.34,0-13.67,3.17-20.18,8.5-.17,2.83-.17,5.84-.17,9,0,27.18,5.34,40.35,20.68,40.35Z"/><path class="cls-1" d="m424.98,46.63h10.39l.19,4.86h50.41l.19-4.86h10.48l-2.57,68.42h-10.39l.29-6.77h-46.31l.29,6.77h-10.39l-2.57-68.42Zm59.08,58.7l1.81-50.89h-50.22l1.91,50.89h46.5Zm-39.83-38.31h9.34l.1,1.71h13.53l.09-1.71h9.43l-2,27.54h-9.24l.1-2.67h-10.29l.19,2.67h-9.34l-1.91-27.54Zm21.63,21.92l1.14-17.25h-13.15l1.24,17.25h10.77Z"/></g></svg>