<?xml version="1.0" encoding="utf-8"?>
<!-- Generator: Adobe Illustrator 29.7.1, SVG Export Plug-In . SVG Version: 9.03 Build 0)  -->
<svg version="1.0" id="レイヤー_1" xmlns="http://www.w3.org/2000/svg" xmlns:xlink="http://www.w3.org/1999/xlink" x="0px"
	 y="0px" viewBox="0 0 415.98 168.64" style="enable-background:new 0 0 415.98 168.64;" xml:space="preserve">
<style type="text/css">
	.st0{fill:#FFFFFF;stroke:#FFFFFF;stroke-width:13.5044;stroke-linecap:round;stroke-linejoin:round;stroke-miterlimit:10;}
	.st1{stroke:#000000;stroke-width:11.2394;stroke-linecap:round;stroke-linejoin:round;stroke-miterlimit:10;}
	.st2{fill:#DAE000;}
</style>
<g>
	<g>
		<g>
			<g>
				<g>
					<path class="st0" d="M23.85,145.97c3.97-9.11,7.05-18.38,9.22-27.81l12.06,2.4c-0.33,1.79-0.76,3.66-1.28,5.63
						c2.32,3.94,5.23,6.77,8.73,8.51v-19.29H34.49v-4.81h-7.8V91.72h24.48v-5.84h13.48v5.84h24.48v18.88h-7.8v4.81H66.06v5.49h18.8
						v9.96h-18.8V138c4.68,0.5,11.19,0.76,19.51,0.76h5.32l-0.71,10.64h-4.61c-12.68,0-22.36-0.83-29.05-2.51
						c-6.69-1.67-12.07-4.68-16.14-9.03c-1.47,4.12-3.19,8.31-5.18,12.56L23.85,145.97z M77.06,101.68H38.75v3.78h38.31V101.68z"/>
					<path class="st0" d="M153.69,139.1c1.04,0,1.66-0.08,1.84-0.24c0.19-0.16,0.28-0.77,0.28-1.82v-7.55H150
						c-0.85,8.1-2.93,14.97-6.24,20.6l-5.82-5.08l-9.08,4.74c-2.51-4.85-5.11-9.2-7.8-13.04l6.6-3.43h-13.91l6.6,3.43
						c-1.89,4.21-4.97,8.9-9.22,14.08l-8.87-5.84c3.36-4.12,6.08-8.01,8.16-11.67h-8.16V124h3.55v-22.66h-3.19v-9.61h3.19v-4.81
						h12.06v4.81h4.97v-4.81h11.35v4.81h2.84v9.61h-2.84V124h2.48v9.27h-5.46c1.14,1.65,2.39,3.62,3.76,5.91
						c1.51-3.16,2.53-6.61,3.05-10.37c0.52-3.75,0.78-9.36,0.78-16.82V87.95h29.44v48.06c0,2.75-0.06,4.87-0.18,6.38
						c-0.12,1.51-0.32,2.83-0.6,3.95c-0.28,1.12-0.79,1.89-1.53,2.3c-0.73,0.41-1.53,0.7-2.38,0.86c-0.85,0.16-2.13,0.24-3.83,0.24
						c-1.51,0-4.71-0.12-9.58-0.34l-0.71-10.64C151.89,138.99,153.31,139.1,153.69,139.1z M117.86,104.77h4.97v-3.43h-4.97V104.77z
						 M117.86,110.95v3.43h4.97v-3.43H117.86z M117.86,120.56V124h4.97v-3.43H117.86z M150.49,104.43h5.32v-6.18h-5.32V104.43z
						 M150.49,113.7v4.12v2.4h5.32v-6.52H150.49z"/>
					<path class="st0" d="M214.7,108.89h-14.19v-3.09h-4.26v-5.56l-3.19,3.85c-3.88-3.3-7.9-6.39-12.06-9.27l7.09-8.24
						c2.7,1.79,5.42,3.71,8.16,5.77v-2.33h18.45V85.2h13.13v4.81h19.51v15.79h-4.26v3.09h-15.25v1.72h16.67v25.75h-9.65
						c4.97,1.6,9.6,3.43,13.91,5.49l-5.32,9.27c-5.87-3.02-12.49-5.77-19.87-8.24l3.26-6.52h-11.28l3.41,5.84
						c-5.16,3.48-12.25,6.34-21.28,8.58l-4.12-8.65c-1.18,2.65-2.53,5.19-4.04,7.62l-10.29-6.18c3.78-6.45,6.98-13.78,9.58-21.97
						l9.58,3.43v-10.71l-6.03,7.28c-4.21-3.71-8.7-7.25-13.48-10.64l7.09-8.24c4.63,3.16,8.77,6.29,12.42,9.41v-1.51h16.32V108.89z
						 M208.1,136.35h-9.72v-7.07c-1.23,3.94-2.67,7.8-4.33,11.6C199.35,139.47,204.03,137.96,208.1,136.35z M235.63,98.59h-28.02
						v2.06h28.02V98.59z M210.44,120.56h4.97v-2.06h-4.97V120.56z M210.44,126.4v2.06h4.97v-2.06H210.44z M227.12,120.56h4.97v-2.06
						h-4.97V120.56z M227.12,126.4v2.06h4.97v-2.06H227.12z"/>
					<path class="st0" d="M261.88,137.38l-3.9-11.67c5.11-2.65,9.13-5.4,12.06-8.24h-11.35v-8.58h17.88
						c0.38-0.73,0.66-1.3,0.85-1.72h-14.47v-7.55h17.17c0.05-0.14,0.13-0.4,0.25-0.79c0.12-0.39,0.2-0.7,0.25-0.93h-19.79v-8.93
						h21.5c0.05-0.32,0.13-0.87,0.25-1.65c0.12-0.78,0.2-1.37,0.25-1.79l13.13,0.34l-0.43,3.09h27.74v8.93H293.6
						c-0.24,0.87-0.4,1.44-0.5,1.72h28.02v7.55h-14.4c0.19,0.41,0.47,0.99,0.85,1.72h17.81v8.58h-11.35
						c2.88,2.79,6.91,5.54,12.06,8.24l-3.9,11.67c-2.41-1.28-4.66-2.65-6.74-4.12v2.75h-12.7c7.99,1.79,15.06,3.62,21.21,5.49
						l-6.74,8.93c-8.94-3.34-18.23-6.13-27.88-8.38c-6.01,3.84-13.98,6.41-23.91,7.69l-5.32-9.61c9.84-1.19,16.58-2.56,20.22-4.12
						h-11.71v-2.88C266.45,134.68,264.2,136.1,261.88,137.38z M286.29,128.46c0.05-0.37,0.07-0.94,0.07-1.72h-7.45v-2.61
						c-1.66,1.74-3.12,3.18-4.4,4.33H286.29z M301.12,119.19c-0.38-0.5-0.78-1.08-1.21-1.72h-15.68c-0.14,0.18-0.34,0.47-0.6,0.86
						c-0.26,0.39-0.46,0.68-0.6,0.86H301.12z M289.34,108.89h5.75c-0.14-0.23-0.38-0.8-0.71-1.72h-4.19
						c-0.1,0.18-0.24,0.47-0.43,0.86C289.58,108.42,289.43,108.71,289.34,108.89z M305.16,126.74h-6.03c0,0.78-0.02,1.35-0.07,1.72
						h10.36c-1.7-1.6-3.12-3.02-4.26-4.26V126.74z"/>
					<path class="st0" d="M389.95,110.33v4.39h-39.73v-4.39c-3.41,1.97-6.95,3.78-10.64,5.42l-4.61-10.3
						c5.77-2.84,10.65-5.65,14.65-8.45c4-2.79,7.98-6.16,11.95-10.09h17.03c3.97,3.94,7.96,7.3,11.95,10.09
						c4,2.79,8.88,5.61,14.65,8.45l-4.61,10.3C396.9,114.11,393.35,112.3,389.95,110.33z M338.86,128.46v-10.3h62.43v10.3h-7.8
						c3.78,8.24,6.62,14.65,8.51,19.22l-11.71,3.43c-0.47-1.19-1.28-3.11-2.41-5.77c-15.66,1.6-31.05,2.61-46.19,3.02l-0.71-10.3
						c2.22-0.09,5.61-0.23,10.15-0.41c1.7-2.79,3.41-5.86,5.11-9.2H338.86z M381.5,104.77c-3.78-2.75-7.59-6.06-11.42-9.96
						c-3.83,3.89-7.64,7.21-11.42,9.96H381.5z M383.7,135.6c-0.85-2.01-1.49-3.48-1.92-4.39l9.08-2.75h-20.5
						c-1.18,2.43-2.65,5.24-4.4,8.45C369.46,136.67,375.38,136.24,383.7,135.6z"/>
				</g>
			</g>
		</g>
	</g>
</g>
<g>
	<g>
		<g>
			<g>
				<g>
					<path d="M23.85,145.97c3.97-9.11,7.05-18.38,9.22-27.81l12.06,2.4c-0.33,1.79-0.76,3.66-1.28,5.63
						c2.32,3.94,5.23,6.77,8.73,8.51v-19.29H34.49v-4.81h-7.8V91.72h24.48v-5.84h13.48v5.84h24.48v18.88h-7.8v4.81H66.06v5.49h18.8
						v9.96h-18.8V138c4.68,0.5,11.19,0.76,19.51,0.76h5.32l-0.71,10.64h-4.61c-12.68,0-22.36-0.83-29.05-2.51
						c-6.69-1.67-12.07-4.68-16.14-9.03c-1.47,4.12-3.19,8.31-5.18,12.56L23.85,145.97z M77.06,101.68H38.75v3.78h38.31V101.68z"/>
					<path d="M153.69,139.1c1.04,0,1.66-0.08,1.84-0.24c0.19-0.16,0.28-0.77,0.28-1.82v-7.55H150c-0.85,8.1-2.93,14.97-6.24,20.6
						l-5.82-5.08l-9.08,4.74c-2.51-4.85-5.11-9.2-7.8-13.04l6.6-3.43h-13.91l6.6,3.43c-1.89,4.21-4.97,8.9-9.22,14.08l-8.87-5.84
						c3.36-4.12,6.08-8.01,8.16-11.67h-8.16V124h3.55v-22.66h-3.19v-9.61h3.19v-4.81h12.06v4.81h4.97v-4.81h11.35v4.81h2.84v9.61
						h-2.84V124h2.48v9.27h-5.46c1.14,1.65,2.39,3.62,3.76,5.91c1.51-3.16,2.53-6.61,3.05-10.37c0.52-3.75,0.78-9.36,0.78-16.82
						V87.95h29.44v48.06c0,2.75-0.06,4.87-0.18,6.38c-0.12,1.51-0.32,2.83-0.6,3.95c-0.28,1.12-0.79,1.89-1.53,2.3
						c-0.73,0.41-1.53,0.7-2.38,0.86c-0.85,0.16-2.13,0.24-3.83,0.24c-1.51,0-4.71-0.12-9.58-0.34l-0.71-10.64
						C151.89,138.99,153.31,139.1,153.69,139.1z M117.86,104.77h4.97v-3.43h-4.97V104.77z M117.86,110.95v3.43h4.97v-3.43H117.86z
						 M117.86,120.56V124h4.97v-3.43H117.86z M150.49,104.43h5.32v-6.18h-5.32V104.43z M150.49,113.7v4.12v2.4h5.32v-6.52H150.49z"
						/>
					<path d="M214.7,108.89h-14.19v-3.09h-4.26v-5.56l-3.19,3.85c-3.88-3.3-7.9-6.39-12.06-9.27l7.09-8.24
						c2.7,1.79,5.42,3.71,8.16,5.77v-2.33h18.45V85.2h13.13v4.81h19.51v15.79h-4.26v3.09h-15.25v1.72h16.67v25.75h-9.65
						c4.97,1.6,9.6,3.43,13.91,5.49l-5.32,9.27c-5.87-3.02-12.49-5.77-19.87-8.24l3.26-6.52h-11.28l3.41,5.84
						c-5.16,3.48-12.25,6.34-21.28,8.58l-4.12-8.65c-1.18,2.65-2.53,5.19-4.04,7.62l-10.29-6.18c3.78-6.45,6.98-13.78,9.58-21.97
						l9.58,3.43v-10.71l-6.03,7.28c-4.21-3.71-8.7-7.25-13.48-10.64l7.09-8.24c4.63,3.16,8.77,6.29,12.42,9.41v-1.51h16.32V108.89z
						 M208.1,136.35h-9.72v-7.07c-1.23,3.94-2.67,7.8-4.33,11.6C199.35,139.47,204.03,137.96,208.1,136.35z M235.63,98.59h-28.02
						v2.06h28.02V98.59z M210.44,120.56h4.97v-2.06h-4.97V120.56z M210.44,126.4v2.06h4.97v-2.06H210.44z M227.12,120.56h4.97v-2.06
						h-4.97V120.56z M227.12,126.4v2.06h4.97v-2.06H227.12z"/>
					<path d="M261.88,137.38l-3.9-11.67c5.11-2.65,9.13-5.4,12.06-8.24h-11.35v-8.58h17.88c0.38-0.73,0.66-1.3,0.85-1.72h-14.47
						v-7.55h17.17c0.05-0.14,0.13-0.4,0.25-0.79c0.12-0.39,0.2-0.7,0.25-0.93h-19.79v-8.93h21.5c0.05-0.32,0.13-0.87,0.25-1.65
						c0.12-0.78,0.2-1.37,0.25-1.79l13.13,0.34l-0.43,3.09h27.74v8.93H293.6c-0.24,0.87-0.4,1.44-0.5,1.72h28.02v7.55h-14.4
						c0.19,0.41,0.47,0.99,0.85,1.72h17.81v8.58h-11.35c2.88,2.79,6.91,5.54,12.06,8.24l-3.9,11.67c-2.41-1.28-4.66-2.65-6.74-4.12
						v2.75h-12.7c7.99,1.79,15.06,3.62,21.21,5.49l-6.74,8.93c-8.94-3.34-18.23-6.13-27.88-8.38c-6.01,3.84-13.98,6.41-23.91,7.69
						l-5.32-9.61c9.84-1.19,16.58-2.56,20.22-4.12h-11.71v-2.88C266.45,134.68,264.2,136.1,261.88,137.38z M286.29,128.46
						c0.05-0.37,0.07-0.94,0.07-1.72h-7.45v-2.61c-1.66,1.74-3.12,3.18-4.4,4.33H286.29z M301.12,119.19
						c-0.38-0.5-0.78-1.08-1.21-1.72h-15.68c-0.14,0.18-0.34,0.47-0.6,0.86c-0.26,0.39-0.46,0.68-0.6,0.86H301.12z M289.34,108.89
						h5.75c-0.14-0.23-0.38-0.8-0.71-1.72h-4.19c-0.1,0.18-0.24,0.47-0.43,0.86C289.58,108.42,289.43,108.71,289.34,108.89z
						 M305.16,126.74h-6.03c0,0.78-0.02,1.35-0.07,1.72h10.36c-1.7-1.6-3.12-3.02-4.26-4.26V126.74z"/>
					<path d="M389.95,110.33v4.39h-39.73v-4.39c-3.41,1.97-6.95,3.78-10.64,5.42l-4.61-10.3c5.77-2.84,10.65-5.65,14.65-8.45
						c4-2.79,7.98-6.16,11.95-10.09h17.03c3.97,3.94,7.96,7.3,11.95,10.09c4,2.79,8.88,5.61,14.65,8.45l-4.61,10.3
						C396.9,114.11,393.35,112.3,389.95,110.33z M338.86,128.46v-10.3h62.43v10.3h-7.8c3.78,8.24,6.62,14.65,8.51,19.22l-11.71,3.43
						c-0.47-1.19-1.28-3.11-2.41-5.77c-15.66,1.6-31.05,2.61-46.19,3.02l-0.71-10.3c2.22-0.09,5.61-0.23,10.15-0.41
						c1.7-2.79,3.41-5.86,5.11-9.2H338.86z M381.5,104.77c-3.78-2.75-7.59-6.06-11.42-9.96c-3.83,3.89-7.64,7.21-11.42,9.96H381.5z
						 M383.7,135.6c-0.85-2.01-1.49-3.48-1.92-4.39l9.08-2.75h-20.5c-1.18,2.43-2.65,5.24-4.4,8.45
						C369.46,136.67,375.38,136.24,383.7,135.6z"/>
				</g>
			</g>
		</g>
	</g>
</g>
<g>
	<path class="st1" d="M60.95,32.04c0.39,0,0.98,0.38,1.23,0.57l5.06,3.85c0.44,0.33,0.98,0.86,0.98,1.38c0,0.67-1.67,1.52-2.21,1.81
		v0.71c0,1.47,0.1,3,0.1,4.52c0,1.05-0.2,1.71-2.46,2.19l5.11,3.95c0.49,0.38,1.03,0.95,1.03,1.47c0,0.71-1.38,1.38-1.97,1.62
		c-0.74,8.94-2.46,10.94-11.94,11.03c0-3.19-0.69-6.32-4.32-7.13v-1.33c1.03,0.1,3.44,0.14,4.32,0.14c3.1,0,3.24-0.1,3.44-3.57
		h-9.14v0.57c0,3.33,0.15,6.61,0.15,9.89c0,1.76-0.34,2.52-2.21,2.95c-1.23,0.29-2.9,0.43-4.18,0.43c-2.26,0-2.46-0.62-2.46-2.04
		c0-2,0.05-3.99,0.05-5.99c-5.85,3.57-12.09,5.61-18.87,6.75l-0.74-1.14c5.31-3.19,10.32-6.89,14.45-11.41h-3
		c-0.44,1.52-1.08,1.85-3.98,1.85h-0.49c-2.85,0-4.57-0.52-4.57-1.85c0-0.38,0.15-0.9,0.44-1.81c1.18-3.52,2.26-8.23,2.51-11.89
		l9.24,2.85h5.06v-3.47H30.35c-1.33,0-2.55,0.05-3.88,0.19l-0.88-2.95c-0.54,0.33-1.08,0.62-1.57,0.95l-1.08-0.76
		c1.97-4.14,4.96-11.08,5.5-15.55l9.68,2.33c1.28,0.29,1.82,0.43,1.82,1.05c0,0.9-1.77,1.09-2.46,1.09
		c-0.49,0.57-0.93,1.14-1.43,1.66h4.03l2.26-3.04c0.44-0.62,0.64-0.81,1.03-0.81s0.98,0.38,1.38,0.81l2.51,2.66
		c0.49-1.81,1.03-3.85,1.23-5.75l9.09,2.23c1.42,0.33,1.77,0.57,1.77,1.14c0,0.76-1.52,0.9-2.11,0.9c-0.54,0.62-1.03,1.24-1.57,1.85
		h4.08l2.65-3.52c0.25-0.33,0.49-0.67,0.98-0.67c0.39,0,0.79,0.29,1.08,0.57l4.72,4.56c0.34,0.33,0.64,0.86,0.64,1.33
		c0,1.05-0.74,1.33-1.67,1.33h-9.68c0.69,0.48,1.38,1.09,1.67,1.9C60.37,32.19,60.56,32.04,60.95,32.04z M33.34,32.71
		c-0.2-0.71-0.44-1.43-0.74-2.14c-1.77,1.71-3.64,3.23-5.65,4.66c1.08,0.05,2.16,0.09,3.24,0.09h4.27
		C33.83,34.75,33.54,33.52,33.34,32.71z M41.6,46.02h-6.53l-0.79,3.61h7.32V46.02z M40.76,32.95c0,1.14-0.69,1.85-1.67,2.38h6.29
		l-0.98-0.71c0.54-1.33,1.08-2.66,1.57-4.04h-6.68C40.12,31.19,40.76,31.85,40.76,32.95z M45.67,35.32h7.81
		c-0.34-0.48-0.44-0.76-0.54-1.28c-0.2-1.19-0.54-2.33-1.03-3.42C49.56,32.61,48.28,33.57,45.67,35.32z M50.19,38.94v3.47h7.17
		v-3.47H50.19z M50.19,46.02v3.61h9.04l2.11-2.23c-0.54,0.05-1.08,0.05-1.62,0.05c-2.06,0-2.26-0.62-2.36-1.43H50.19z"/>
	<path class="st1" d="M84.59,41.08h1.77c1.77,0,3.73-0.24,5.21-1.19c2.01-1.28,2.31-3.14,2.31-5.28c0-2.95-0.79-6.09-4.47-6.09
		c-3.54,0-6.29,2.28-8.06,5.04l-3.05-2c2.65-4.61,7.22-6.89,12.58-6.89c5.75,0,11.89,3.19,11.89,9.37c0,3.61-2.31,5.85-5.65,7.08
		c1.57,0.52,2.8,1.09,4.03,2.19c2.31,2,3.59,4.99,3.59,7.94c0,8.27-9.34,12.03-16.71,12.03c-3.54,0-10.71-1.09-10.71-5.71
		c0-2.09,1.67-3.47,3.78-3.47c2.41,0,3.73,1.38,4.32,3.52c0.29,1.28,0.74,2.04,3.59,2.04c2.31,0,5.01-0.71,5.9-3.04
		c0.39-1.09,0.49-2.57,0.49-3.76c0-5.71-3.1-8.18-8.79-8.18h-2.01V41.08z"/>
	<path class="st1" d="M140.31,52.25c0,7.8-7.03,11.03-14.15,11.03c-6.29,0-13.17-2.66-13.17-9.75c0-4.9,3.44-7.85,7.76-9.65
		c-3.24-2.09-5.7-5.28-5.7-9.18c0-6.51,5.99-10.03,12.14-10.03c5.21,0,11.06,2.57,11.06,8.32c0,4.09-2.41,6.28-5.85,8.13
		C136.97,43.98,140.31,46.55,140.31,52.25z M122.23,48.3c-0.83,1.57-1.23,3.14-1.23,4.9c0,4.09,1.92,6.47,6.29,6.47
		c2.9,0,6.24-1.09,6.24-4.42c0-2.43-1.42-4.14-3.34-5.52c-1.47-1.09-4.13-2.66-5.8-3.71C123.51,46.69,122.72,47.35,122.23,48.3z
		 M132.99,33.42c0-3.66-2.85-5.14-6.24-5.14c-2.31,0-5.45,0.86-5.45,3.57c0,3.38,4.86,5.66,7.37,7.23
		C130.83,37.84,132.99,35.99,132.99,33.42z"/>
	<path class="st1" d="M183.41,24.91l2.36-2.9c0.34-0.43,0.69-0.81,1.28-0.81c0.39,0,0.93,0.29,1.28,0.52l5.85,4.14
		c0.49,0.33,1.08,0.71,1.08,1.38c0,0.86-1.67,1.71-2.9,2.23v27.53c0,2.09,0.15,4.23,0.15,6.37c0,1.76-0.49,2.38-2.46,2.76
		c-1.13,0.19-2.6,0.43-3.78,0.43c-2.16,0-2.26-0.9-2.26-2.28v-0.67h-24.67v0.24c0,1.62-0.59,2.04-2.26,2.38
		c-1.28,0.24-2.8,0.43-4.08,0.43c-1.67,0-2.31-0.48-2.31-2.09c0-1.76,0.15-3.47,0.15-5.18V27.72c0-2,0-3.99-0.2-5.94l9.68,3.14
		H183.41z M159.33,60H184V28.53h-24.67V60z M173.48,34.28l2.41-2.76c0.25-0.29,0.54-0.62,0.98-0.62c0.34,0,0.59,0.09,1.18,0.57
		l4.57,3.8c0.34,0.29,0.74,0.76,0.74,1.24c0,0.76-1.28,1.47-1.92,1.81v11.84c0,0.95,0.05,1.9,0.05,2.85c0,1.52-0.74,1.95-2.11,2.38
		c-1.08,0.33-2.16,0.57-3.29,0.57c-2.31,0-2.46-0.9-2.46-2.14v-0.48h-3.98c0,0.95-0.15,1.57-1.08,2c-1.13,0.48-2.46,0.76-3.73,0.76
		c-2.46,0-2.85-0.52-2.85-1.95c0-1.05,0.05-2.47,0.05-3.85V35.66c0-1.33,0-2.66-0.15-4.04l8.35,2.66H173.48z M169.65,37.89v11.84
		h3.98V37.89H169.65z"/>
</g>
<g>
	<path class="st2" d="M60.95,32.04c0.39,0,0.98,0.38,1.23,0.57l5.06,3.85c0.44,0.33,0.98,0.86,0.98,1.38c0,0.67-1.67,1.52-2.21,1.81
		v0.71c0,1.47,0.1,3,0.1,4.52c0,1.05-0.2,1.71-2.46,2.19l5.11,3.95c0.49,0.38,1.03,0.95,1.03,1.47c0,0.71-1.38,1.38-1.97,1.62
		c-0.74,8.94-2.46,10.94-11.94,11.03c0-3.19-0.69-6.32-4.32-7.13v-1.33c1.03,0.1,3.44,0.14,4.32,0.14c3.1,0,3.24-0.1,3.44-3.57
		h-9.14v0.57c0,3.33,0.15,6.61,0.15,9.89c0,1.76-0.34,2.52-2.21,2.95c-1.23,0.29-2.9,0.43-4.18,0.43c-2.26,0-2.46-0.62-2.46-2.04
		c0-2,0.05-3.99,0.05-5.99c-5.85,3.57-12.09,5.61-18.87,6.75l-0.74-1.14c5.31-3.19,10.32-6.89,14.45-11.41h-3
		c-0.44,1.52-1.08,1.85-3.98,1.85h-0.49c-2.85,0-4.57-0.52-4.57-1.85c0-0.38,0.15-0.9,0.44-1.81c1.18-3.52,2.26-8.23,2.51-11.89
		l9.24,2.85h5.06v-3.47H30.35c-1.33,0-2.55,0.05-3.88,0.19l-0.88-2.95c-0.54,0.33-1.08,0.62-1.57,0.95l-1.08-0.76
		c1.97-4.14,4.96-11.08,5.5-15.55l9.68,2.33c1.28,0.29,1.82,0.43,1.82,1.05c0,0.9-1.77,1.09-2.46,1.09
		c-0.49,0.57-0.93,1.14-1.43,1.66h4.03l2.26-3.04c0.44-0.62,0.64-0.81,1.03-0.81s0.98,0.38,1.38,0.81l2.51,2.66
		c0.49-1.81,1.03-3.85,1.23-5.75l9.09,2.23c1.42,0.33,1.77,0.57,1.77,1.14c0,0.76-1.52,0.9-2.11,0.9c-0.54,0.62-1.03,1.24-1.57,1.85
		h4.08l2.65-3.52c0.25-0.33,0.49-0.67,0.98-0.67c0.39,0,0.79,0.29,1.08,0.57l4.72,4.56c0.34,0.33,0.64,0.86,0.64,1.33
		c0,1.05-0.74,1.33-1.67,1.33h-9.68c0.69,0.48,1.38,1.09,1.67,1.9C60.37,32.19,60.56,32.04,60.95,32.04z M33.34,32.71
		c-0.2-0.71-0.44-1.43-0.74-2.14c-1.77,1.71-3.64,3.23-5.65,4.66c1.08,0.05,2.16,0.09,3.24,0.09h4.27
		C33.83,34.75,33.54,33.52,33.34,32.71z M41.6,46.02h-6.53l-0.79,3.61h7.32V46.02z M40.76,32.95c0,1.14-0.69,1.85-1.67,2.38h6.29
		l-0.98-0.71c0.54-1.33,1.08-2.66,1.57-4.04h-6.68C40.12,31.19,40.76,31.85,40.76,32.95z M45.67,35.32h7.81
		c-0.34-0.48-0.44-0.76-0.54-1.28c-0.2-1.19-0.54-2.33-1.03-3.42C49.56,32.61,48.28,33.57,45.67,35.32z M50.19,38.94v3.47h7.17
		v-3.47H50.19z M50.19,46.02v3.61h9.04l2.11-2.23c-0.54,0.05-1.08,0.05-1.62,0.05c-2.06,0-2.26-0.62-2.36-1.43H50.19z"/>
	<path class="st2" d="M84.59,41.08h1.77c1.77,0,3.73-0.24,5.21-1.19c2.01-1.28,2.31-3.14,2.31-5.28c0-2.95-0.79-6.09-4.47-6.09
		c-3.54,0-6.29,2.28-8.06,5.04l-3.05-2c2.65-4.61,7.22-6.89,12.58-6.89c5.75,0,11.89,3.19,11.89,9.37c0,3.61-2.31,5.85-5.65,7.08
		c1.57,0.52,2.8,1.09,4.03,2.19c2.31,2,3.59,4.99,3.59,7.94c0,8.27-9.34,12.03-16.71,12.03c-3.54,0-10.71-1.09-10.71-5.71
		c0-2.09,1.67-3.47,3.78-3.47c2.41,0,3.73,1.38,4.32,3.52c0.29,1.28,0.74,2.04,3.59,2.04c2.31,0,5.01-0.71,5.9-3.04
		c0.39-1.09,0.49-2.57,0.49-3.76c0-5.71-3.1-8.18-8.79-8.18h-2.01V41.08z"/>
	<path class="st2" d="M140.31,52.25c0,7.8-7.03,11.03-14.15,11.03c-6.29,0-13.17-2.66-13.17-9.75c0-4.9,3.44-7.85,7.76-9.65
		c-3.24-2.09-5.7-5.28-5.7-9.18c0-6.51,5.99-10.03,12.14-10.03c5.21,0,11.06,2.57,11.06,8.32c0,4.09-2.41,6.28-5.85,8.13
		C136.97,43.98,140.31,46.55,140.31,52.25z M122.23,48.3c-0.83,1.57-1.23,3.14-1.23,4.9c0,4.09,1.92,6.47,6.29,6.47
		c2.9,0,6.24-1.09,6.24-4.42c0-2.43-1.42-4.14-3.34-5.52c-1.47-1.09-4.13-2.66-5.8-3.71C123.51,46.69,122.72,47.35,122.23,48.3z
		 M132.99,33.42c0-3.66-2.85-5.14-6.24-5.14c-2.31,0-5.45,0.86-5.45,3.57c0,3.38,4.86,5.66,7.37,7.23
		C130.83,37.84,132.99,35.99,132.99,33.42z"/>
	<path class="st2" d="M183.41,24.91l2.36-2.9c0.34-0.43,0.69-0.81,1.28-0.81c0.39,0,0.93,0.29,1.28,0.52l5.85,4.14
		c0.49,0.33,1.08,0.71,1.08,1.38c0,0.86-1.67,1.71-2.9,2.23v27.53c0,2.09,0.15,4.23,0.15,6.37c0,1.76-0.49,2.38-2.46,2.76
		c-1.13,0.19-2.6,0.43-3.78,0.43c-2.16,0-2.26-0.9-2.26-2.28v-0.67h-24.67v0.24c0,1.62-0.59,2.04-2.26,2.38
		c-1.28,0.24-2.8,0.43-4.08,0.43c-1.67,0-2.31-0.48-2.31-2.09c0-1.76,0.15-3.47,0.15-5.18V27.72c0-2,0-3.99-0.2-5.94l9.68,3.14
		H183.41z M159.33,60H184V28.53h-24.67V60z M173.48,34.28l2.41-2.76c0.25-0.29,0.54-0.62,0.98-0.62c0.34,0,0.59,0.09,1.18,0.57
		l4.57,3.8c0.34,0.29,0.74,0.76,0.74,1.24c0,0.76-1.28,1.47-1.92,1.81v11.84c0,0.95,0.05,1.9,0.05,2.85c0,1.52-0.74,1.95-2.11,2.38
		c-1.08,0.33-2.16,0.57-3.29,0.57c-2.31,0-2.46-0.9-2.46-2.14v-0.48h-3.98c0,0.95-0.15,1.57-1.08,2c-1.13,0.48-2.46,0.76-3.73,0.76
		c-2.46,0-2.85-0.52-2.85-1.95c0-1.05,0.05-2.47,0.05-3.85V35.66c0-1.33,0-2.66-0.15-4.04l8.35,2.66H173.48z M169.65,37.89v11.84
		h3.98V37.89H169.65z"/>
</g>
<g>
</g>
<g>
</g>
<g>
</g>
<g>
</g>
<g>
</g>
<g>
</g>
</svg>
