<?xml version="1.0" encoding="utf-8"?>
<!-- Generator: Adobe Illustrator 28.1.0, SVG Export Plug-In . SVG Version: 6.00 Build 0)  -->
<svg version="1.1" id="レイヤー_1" xmlns="http://www.w3.org/2000/svg" xmlns:xlink="http://www.w3.org/1999/xlink" x="0px"
	 y="0px" viewBox="0 0 336.34 121.93" style="enable-background:new 0 0 336.34 121.93;" xml:space="preserve">
<style type="text/css">
	.st0{fill:#FFFFFF;stroke:#FFFFFF;stroke-width:4.901;stroke-linecap:round;stroke-linejoin:round;stroke-miterlimit:10;}
	.st1{fill:#FFFFFF;stroke:#FFFFFF;stroke-width:4.5858;stroke-linecap:round;stroke-linejoin:round;stroke-miterlimit:10;}
</style>
<g>
	<g>
		<g>
			<g>
				<g>
					<path class="st0" d="M32.4,80.72H16.29v-4.78h-5.61v-15.7h21.66v-3.89h9.68v3.89h21.71v15.7h-5.72v4.78H42.02v5.43h16.76v8.79
						H42.02v6.61c1.24,0.06,1.95,0.06,2.95,0.06h21.01l-2.07,9.68H43.67c-8.67,0-15.64-2.07-21.18-9.09
						c-2.01,4.19-4.01,7.2-7.32,10.44l-6.84-7.67c6.55-6.2,8.79-13.81,9.5-22.54l9.44,1.24c-0.41,3.25-0.94,6.37-1.77,9.62
						c1.83,2.77,3.84,4.9,6.9,6.25V80.72z M54.05,71.99v-3.25H20.42v3.25H54.05z"/>
					<path class="st0" d="M96.3,110.52c-2.01-3.25-3.89-6.02-6.37-8.91l5.55-3.66H82.72l5.96,3.36c-1.24,3.48-5.55,9.09-8.56,11.21
						l-6.55-6.2c3.54-2.48,5.19-4.9,7.55-8.38h-6.84v-8.32h3.42V68.1h-2.83v-8.26h2.83v-3.42h9.09v3.42h6.49v-3.42h9.03v3.42h3.54
						V57.3h22.72v49.27c0,4.31-1.77,5.61-5.9,5.61h-8.08l-1.59-9.15h4.72c1.53,0,1.65-1,1.65-2.3V94.3h-5.55
						c-0.53,5.9-2.54,13.39-6.14,18.11l-6.61-6.02L96.3,110.52z M86.8,68.1v2.48h6.49V68.1H86.8z M86.8,77.48v2.71h6.49v-2.71H86.8z
						 M86.8,86.68v2.95h6.49v-2.95H86.8z M103.85,97.95h-6.67c1.42,1.36,3.25,3.6,4.37,5.13
						C102.49,101.44,103.26,99.78,103.85,97.95z M105.86,81.67V68.1h-3.54v21.54h3.13C105.74,87.1,105.86,84.26,105.86,81.67z
						 M114.23,66.98v5.31h5.13v-5.31H114.23z M114.23,80.61v5.13h5.13v-5.13H114.23z"/>
					<path class="st0" d="M152.88,76.77l-5.61,7.61c-3.13-2.89-5.31-4.31-8.91-6.37l5.19-7.38
						C147.03,72.23,150.04,74.23,152.88,76.77z M144.91,112.29l-6.55-8.2c3.48-5.31,6.43-12.16,8.38-18.17l7.61,5.25
						C152.7,96.89,148.21,107.39,144.91,112.29z M148.27,69.34c-2.71-2.36-6.02-4.6-9.26-6.08l5.07-7.26
						c3.89,1.65,6.43,3.13,9.85,5.61v-2.06h15.22v-3.3h9.44v3.3h15.28v13.63h-5.37v3.13h-10.33v2.12H193v23.37h-7.91
						c3.42,1.59,7.14,2.48,10.86,3.01l-4.01,8.02c-4.96-1.24-10.5-3.83-14.69-6.73l4.48-4.31h-16.17l4.72,4.43
						c-3.89,3.25-10.27,5.61-15.22,6.73l-3.95-8.02c3.6-0.65,8.38-1.59,11.68-3.13h-8.02V78.42h14.75V76.3h-10.21v-3.13h-5.37V61.9
						L148.27,69.34z M184.92,67.57h-22.36v2.36h22.36V67.57z M163.91,87.21h5.61v-2.6h-5.61V87.21z M163.91,95.12h5.61v-2.71h-5.61
						V95.12z M178.19,87.21h5.66v-2.6h-5.66V87.21z M178.19,95.12h5.66v-2.71h-5.66V95.12z"/>
					<path class="st0" d="M253.95,100.02h-11.62c5.37,2.48,11.03,4.07,16.94,4.13L255.6,113c-8.79-1.47-18.11-4.54-23.66-11.98
						c-5.31,7.14-15.28,10.86-23.9,11.92l-3.66-9.09c5.19,0,13.28-0.83,17.64-3.83h-12.27v-4.43c-0.53,0.29-1.06,0.53-1.59,0.83
						l-4.96-8.5c2.95-1.59,5.31-3.07,7.91-5.13h-7.14v-7.32h14.16c0.41-0.53,0.89-1.24,1.24-1.83h-11.21V67.8h14.16
						c0.24-0.59,0.41-1.12,0.65-1.71h-17.64v-7.2h19.71c0.24-1,0.41-2.01,0.65-3.07l10.03,0.35c-0.18,0.88-0.29,1.83-0.53,2.71
						h23.43v7.2h-25.31c-0.18,0.59-0.35,1.12-0.53,1.71h22.83v5.84h-11.09c0.35,0.59,0.71,1.24,1.12,1.83h14.28v7.32h-7.32
						c2.71,2.07,5.13,3.36,8.2,4.72l-4.78,9.09c-0.71-0.35-1.42-0.71-2.06-1.12V100.02z M226.98,91.4h-8.97v-1.53
						c-1.53,1.36-3.13,2.54-4.84,3.66h13.33C226.75,92.76,226.86,92.17,226.98,91.4z M222.73,85.21h19.12
						c-0.65-0.77-1.24-1.59-1.89-2.42h-15.22C224.09,83.62,223.44,84.44,222.73,85.21z M235.48,75.47
						c-0.35-0.59-0.65-1.24-0.94-1.83h-4.25c-0.29,0.59-0.59,1.24-0.94,1.83H235.48z M245.8,89.4v2.01h-9.97
						c-0.12,0.88-0.18,1.24-0.35,2.12h15.46C249.17,92.23,247.46,90.87,245.8,89.4z"/>
					<path class="st0" d="M272.47,80.49l-4.9-10.03c8.2-3.01,18.11-7.49,23.48-14.63h11.74c6.31,7.02,14.4,11.33,23.19,14.46
						l-5.07,9.91c-2.89-1.24-5.66-2.6-8.38-4.19v3.66h-31.45v-3.42C278.19,78.01,275.65,79.31,272.47,80.49z M285.86,110.82
						c-4.6,0.24-9.21,0.41-13.87,0.65l-1.59-10.15c0.65,0,1.3,0.06,1.95,0.06c2.24,0,4.48-0.06,6.73-0.06
						c1.36-2.89,2.54-5.9,3.48-8.97h-12.39v-9.44h53.22v9.44h-10.98c4.37,4.9,8.14,10.27,11.68,15.81l-9.44,4.84
						c-0.77-1.42-1.53-2.77-2.36-4.13C303.51,109.58,294.71,110.34,285.86,110.82z M305.04,71.05c-3.13-2.36-5.49-4.54-8.14-7.32
						c-2.3,2.71-5.25,5.07-8.08,7.32H305.04z M302.56,95.36l6.67-3.01H293.3c-1.24,3.01-2.54,6.02-3.95,8.91
						c5.84,0,11.62-0.29,17.47-0.47C305.45,98.96,304.04,97.13,302.56,95.36z"/>
				</g>
			</g>
		</g>
	</g>
</g>
<g>
	<g>
		<g>
			<g>
				<g>
					<path d="M32.4,80.72H16.29v-4.78h-5.61v-15.7h21.66v-3.89h9.68v3.89h21.71v15.7h-5.72v4.78H42.02v5.43h16.76v8.79H42.02v6.61
						c1.24,0.06,1.95,0.06,2.95,0.06h21.01l-2.07,9.68H43.67c-8.67,0-15.64-2.07-21.18-9.09c-2.01,4.19-4.01,7.2-7.32,10.44
						l-6.84-7.67c6.55-6.2,8.79-13.81,9.5-22.54l9.44,1.24c-0.41,3.25-0.94,6.37-1.77,9.62c1.83,2.77,3.84,4.9,6.9,6.25V80.72z
						 M54.05,71.99v-3.25H20.42v3.25H54.05z"/>
					<path d="M96.3,110.52c-2.01-3.25-3.89-6.02-6.37-8.91l5.55-3.66H82.72l5.96,3.36c-1.24,3.48-5.55,9.09-8.56,11.21l-6.55-6.2
						c3.54-2.48,5.19-4.9,7.55-8.38h-6.84v-8.32h3.42V68.1h-2.83v-8.26h2.83v-3.42h9.09v3.42h6.49v-3.42h9.03v3.42h3.54V57.3h22.72
						v49.27c0,4.31-1.77,5.61-5.9,5.61h-8.08l-1.59-9.15h4.72c1.53,0,1.65-1,1.65-2.3V94.3h-5.55c-0.53,5.9-2.54,13.39-6.14,18.11
						l-6.61-6.02L96.3,110.52z M86.8,68.1v2.48h6.49V68.1H86.8z M86.8,77.48v2.71h6.49v-2.71H86.8z M86.8,86.68v2.95h6.49v-2.95
						H86.8z M103.85,97.95h-6.67c1.42,1.36,3.25,3.6,4.37,5.13C102.49,101.44,103.26,99.78,103.85,97.95z M105.86,81.67V68.1h-3.54
						v21.54h3.13C105.74,87.1,105.86,84.26,105.86,81.67z M114.23,66.98v5.31h5.13v-5.31H114.23z M114.23,80.61v5.13h5.13v-5.13
						H114.23z"/>
					<path d="M152.88,76.77l-5.61,7.61c-3.13-2.89-5.31-4.31-8.91-6.37l5.19-7.38C147.03,72.23,150.04,74.23,152.88,76.77z
						 M144.91,112.29l-6.55-8.2c3.48-5.31,6.43-12.16,8.38-18.17l7.61,5.25C152.7,96.89,148.21,107.39,144.91,112.29z M148.27,69.34
						c-2.71-2.36-6.02-4.6-9.26-6.08l5.07-7.26c3.89,1.65,6.43,3.13,9.85,5.61v-2.06h15.22v-3.3h9.44v3.3h15.28v13.63h-5.37v3.13
						h-10.33v2.12H193v23.37h-7.91c3.42,1.59,7.14,2.48,10.86,3.01l-4.01,8.02c-4.96-1.24-10.5-3.83-14.69-6.73l4.48-4.31h-16.17
						l4.72,4.43c-3.89,3.25-10.27,5.61-15.22,6.73l-3.95-8.02c3.6-0.65,8.38-1.59,11.68-3.13h-8.02V78.42h14.75V76.3h-10.21v-3.13
						h-5.37V61.9L148.27,69.34z M184.92,67.57h-22.36v2.36h22.36V67.57z M163.91,87.21h5.61v-2.6h-5.61V87.21z M163.91,95.12h5.61
						v-2.71h-5.61V95.12z M178.19,87.21h5.66v-2.6h-5.66V87.21z M178.19,95.12h5.66v-2.71h-5.66V95.12z"/>
					<path d="M253.95,100.02h-11.62c5.37,2.48,11.03,4.07,16.94,4.13L255.6,113c-8.79-1.47-18.11-4.54-23.66-11.98
						c-5.31,7.14-15.28,10.86-23.9,11.92l-3.66-9.09c5.19,0,13.28-0.83,17.64-3.83h-12.27v-4.43c-0.53,0.29-1.06,0.53-1.59,0.83
						l-4.96-8.5c2.95-1.59,5.31-3.07,7.91-5.13h-7.14v-7.32h14.16c0.41-0.53,0.89-1.24,1.24-1.83h-11.21V67.8h14.16
						c0.24-0.59,0.41-1.12,0.65-1.71h-17.64v-7.2h19.71c0.24-1,0.41-2.01,0.65-3.07l10.03,0.35c-0.18,0.88-0.29,1.83-0.53,2.71
						h23.43v7.2h-25.31c-0.18,0.59-0.35,1.12-0.53,1.71h22.83v5.84h-11.09c0.35,0.59,0.71,1.24,1.12,1.83h14.28v7.32h-7.32
						c2.71,2.07,5.13,3.36,8.2,4.72l-4.78,9.09c-0.71-0.35-1.42-0.71-2.06-1.12V100.02z M226.98,91.4h-8.97v-1.53
						c-1.53,1.36-3.13,2.54-4.84,3.66h13.33C226.75,92.76,226.86,92.17,226.98,91.4z M222.73,85.21h19.12
						c-0.65-0.77-1.24-1.59-1.89-2.42h-15.22C224.09,83.62,223.44,84.44,222.73,85.21z M235.48,75.47
						c-0.35-0.59-0.65-1.24-0.94-1.83h-4.25c-0.29,0.59-0.59,1.24-0.94,1.83H235.48z M245.8,89.4v2.01h-9.97
						c-0.12,0.88-0.18,1.24-0.35,2.12h15.46C249.17,92.23,247.46,90.87,245.8,89.4z"/>
					<path d="M272.47,80.49l-4.9-10.03c8.2-3.01,18.11-7.49,23.48-14.63h11.74c6.31,7.02,14.4,11.33,23.19,14.46l-5.07,9.91
						c-2.89-1.24-5.66-2.6-8.38-4.19v3.66h-31.45v-3.42C278.19,78.01,275.65,79.31,272.47,80.49z M285.86,110.82
						c-4.6,0.24-9.21,0.41-13.87,0.65l-1.59-10.15c0.65,0,1.3,0.06,1.95,0.06c2.24,0,4.48-0.06,6.73-0.06
						c1.36-2.89,2.54-5.9,3.48-8.97h-12.39v-9.44h53.22v9.44h-10.98c4.37,4.9,8.14,10.27,11.68,15.81l-9.44,4.84
						c-0.77-1.42-1.53-2.77-2.36-4.13C303.51,109.58,294.71,110.34,285.86,110.82z M305.04,71.05c-3.13-2.36-5.49-4.54-8.14-7.32
						c-2.3,2.71-5.25,5.07-8.08,7.32H305.04z M302.56,95.36l6.67-3.01H293.3c-1.24,3.01-2.54,6.02-3.95,8.91
						c5.84,0,11.62-0.29,17.47-0.47C305.45,98.96,304.04,97.13,302.56,95.36z"/>
				</g>
			</g>
		</g>
	</g>
</g>
<g>
	<path class="st1" d="M125.56,13.59c0.32,0,0.8,0.32,1,0.48l4.1,3.23c0.36,0.28,0.8,0.72,0.8,1.16c0,0.56-1.35,1.27-1.79,1.51v0.6
		c0,1.24,0.08,2.51,0.08,3.79c0,0.88-0.16,1.43-1.99,1.83l4.14,3.31c0.4,0.32,0.84,0.8,0.84,1.24c0,0.6-1.12,1.16-1.59,1.35
		c-0.6,7.49-1.99,9.16-9.68,9.24c0-2.67-0.56-5.3-3.51-5.98v-1.12c0.84,0.08,2.79,0.12,3.51,0.12c2.51,0,2.63-0.08,2.79-2.99h-7.41
		v0.48c0,2.79,0.12,5.54,0.12,8.29c0,1.47-0.28,2.11-1.79,2.47c-1,0.24-2.35,0.36-3.39,0.36c-1.83,0-1.99-0.52-1.99-1.71
		c0-1.67,0.04-3.35,0.04-5.02c-4.74,2.99-9.8,4.7-15.3,5.66l-0.6-0.96c4.3-2.67,8.37-5.78,11.71-9.56h-2.43
		c-0.36,1.27-0.88,1.55-3.23,1.55h-0.4c-2.31,0-3.71-0.44-3.71-1.55c0-0.32,0.12-0.76,0.36-1.51c0.96-2.95,1.83-6.89,2.03-9.96
		l7.49,2.39h4.1v-2.91h-9.12c-1.08,0-2.07,0.04-3.15,0.16l-0.72-2.47c-0.44,0.28-0.88,0.52-1.27,0.8l-0.88-0.64
		c1.59-3.47,4.02-9.28,4.46-13.03l7.85,1.95c1.04,0.24,1.47,0.36,1.47,0.88c0,0.76-1.43,0.92-1.99,0.92
		c-0.4,0.48-0.76,0.96-1.16,1.39h3.27l1.83-2.55c0.36-0.52,0.52-0.68,0.84-0.68s0.8,0.32,1.12,0.68l2.03,2.23
		c0.4-1.51,0.84-3.23,1-4.82l7.37,1.87c1.16,0.28,1.43,0.48,1.43,0.96c0,0.64-1.24,0.76-1.71,0.76c-0.44,0.52-0.84,1.04-1.27,1.55
		h3.31l2.15-2.95c0.2-0.28,0.4-0.56,0.8-0.56c0.32,0,0.64,0.24,0.88,0.48l3.82,3.82c0.28,0.28,0.52,0.72,0.52,1.12
		c0,0.88-0.6,1.12-1.35,1.12h-7.85c0.56,0.4,1.12,0.92,1.35,1.59C125.08,13.71,125.24,13.59,125.56,13.59z M103.17,14.15
		c-0.16-0.6-0.36-1.2-0.6-1.79c-1.43,1.43-2.95,2.71-4.58,3.9c0.88,0.04,1.75,0.08,2.63,0.08h3.47
		C103.56,15.86,103.32,14.83,103.17,14.15z M109.86,25.31h-5.3l-0.64,3.03h5.94V25.31z M109.18,14.35c0,0.96-0.56,1.55-1.35,1.99
		h5.1l-0.8-0.6c0.44-1.12,0.88-2.23,1.27-3.39h-5.42C108.66,12.88,109.18,13.43,109.18,14.35z M113.17,16.34h6.33
		c-0.28-0.4-0.36-0.64-0.44-1.08c-0.16-1-0.44-1.95-0.84-2.87C116.31,14.07,115.28,14.87,113.17,16.34z M116.83,19.37v2.91h5.82
		v-2.91H116.83z M116.83,25.31v3.03h7.33l1.71-1.87c-0.44,0.04-0.88,0.04-1.31,0.04c-1.67,0-1.83-0.52-1.91-1.2H116.83z"/>
	<path class="st1" d="M144.71,21.16h1.43c1.43,0,3.03-0.2,4.22-1c1.63-1.08,1.87-2.63,1.87-4.42c0-2.47-0.64-5.1-3.63-5.1
		c-2.87,0-5.1,1.91-6.53,4.22l-2.47-1.67c2.15-3.86,5.86-5.78,10.2-5.78c4.66,0,9.64,2.67,9.64,7.85c0,3.03-1.87,4.9-4.58,5.94
		c1.27,0.44,2.27,0.92,3.27,1.83c1.87,1.67,2.91,4.18,2.91,6.65c0,6.93-7.57,10.08-13.55,10.08c-2.87,0-8.69-0.92-8.69-4.78
		c0-1.75,1.35-2.91,3.07-2.91c1.95,0,3.03,1.16,3.51,2.95c0.24,1.08,0.6,1.71,2.91,1.71c1.87,0,4.06-0.6,4.78-2.55
		c0.32-0.92,0.4-2.15,0.4-3.15c0-4.78-2.51-6.85-7.13-6.85h-1.63V21.16z"/>
	<path class="st1" d="M189.85,8.06v3.98c-6.97,8.69-9.08,12.99-9.64,24.22c-0.08,1.39-0.32,2.47-1.71,3.07
		c-0.68,0.32-1.47,0.44-2.23,0.44c-2.11,0-3.79-0.88-3.79-3.19c0-2.51,1.63-6.49,2.79-8.77c2.43-4.78,5.74-9,8.92-13.31h-8.65
		c-2.87,0-3.9,0.44-4.82,3.63l-0.12,0.44h-3.03l2.11-10.52H189.85z"/>
	<path class="st1" d="M224.83,7.62l1.91-2.43c0.28-0.36,0.56-0.68,1.04-0.68c0.32,0,0.76,0.24,1.04,0.44l4.74,3.47
		c0.4,0.28,0.88,0.6,0.88,1.16c0,0.72-1.35,1.43-2.35,1.87v23.07c0,1.75,0.12,3.55,0.12,5.34c0,1.47-0.4,1.99-1.99,2.31
		c-0.92,0.16-2.11,0.36-3.07,0.36c-1.75,0-1.83-0.76-1.83-1.91v-0.56h-20v0.2c0,1.35-0.48,1.71-1.83,1.99
		c-1.04,0.2-2.27,0.36-3.31,0.36c-1.35,0-1.87-0.4-1.87-1.75c0-1.47,0.12-2.91,0.12-4.34V9.97c0-1.67,0-3.35-0.16-4.98l7.85,2.63
		H224.83z M205.3,37.02h20V10.64h-20V37.02z M216.78,15.47l1.95-2.31c0.2-0.24,0.44-0.52,0.8-0.52c0.28,0,0.48,0.08,0.96,0.48
		l3.71,3.19c0.28,0.24,0.6,0.64,0.6,1.04c0,0.64-1.04,1.24-1.55,1.51v9.92c0,0.8,0.04,1.59,0.04,2.39c0,1.27-0.6,1.63-1.71,1.99
		c-0.88,0.28-1.75,0.48-2.67,0.48c-1.87,0-1.99-0.76-1.99-1.79v-0.4h-3.23c0,0.8-0.12,1.31-0.88,1.67c-0.92,0.4-1.99,0.64-3.03,0.64
		c-1.99,0-2.31-0.44-2.31-1.63c0-0.88,0.04-2.07,0.04-3.23V16.62c0-1.12,0-2.23-0.12-3.39l6.77,2.23H216.78z M213.67,18.49v9.92
		h3.23v-9.92H213.67z"/>
</g>
<g>
	<path d="M125.56,13.59c0.32,0,0.8,0.32,1,0.48l4.1,3.23c0.36,0.28,0.8,0.72,0.8,1.16c0,0.56-1.35,1.27-1.79,1.51v0.6
		c0,1.24,0.08,2.51,0.08,3.79c0,0.88-0.16,1.43-1.99,1.83l4.14,3.31c0.4,0.32,0.84,0.8,0.84,1.24c0,0.6-1.12,1.16-1.59,1.35
		c-0.6,7.49-1.99,9.16-9.68,9.24c0-2.67-0.56-5.3-3.51-5.98v-1.12c0.84,0.08,2.79,0.12,3.51,0.12c2.51,0,2.63-0.08,2.79-2.99h-7.41
		v0.48c0,2.79,0.12,5.54,0.12,8.29c0,1.47-0.28,2.11-1.79,2.47c-1,0.24-2.35,0.36-3.39,0.36c-1.83,0-1.99-0.52-1.99-1.71
		c0-1.67,0.04-3.35,0.04-5.02c-4.74,2.99-9.8,4.7-15.3,5.66l-0.6-0.96c4.3-2.67,8.37-5.78,11.71-9.56h-2.43
		c-0.36,1.27-0.88,1.55-3.23,1.55h-0.4c-2.31,0-3.71-0.44-3.71-1.55c0-0.32,0.12-0.76,0.36-1.51c0.96-2.95,1.83-6.89,2.03-9.96
		l7.49,2.39h4.1v-2.91h-9.12c-1.08,0-2.07,0.04-3.15,0.16l-0.72-2.47c-0.44,0.28-0.88,0.52-1.27,0.8l-0.88-0.64
		c1.59-3.47,4.02-9.28,4.46-13.03l7.85,1.95c1.04,0.24,1.47,0.36,1.47,0.88c0,0.76-1.43,0.92-1.99,0.92
		c-0.4,0.48-0.76,0.96-1.16,1.39h3.27l1.83-2.55c0.36-0.52,0.52-0.68,0.84-0.68s0.8,0.32,1.12,0.68l2.03,2.23
		c0.4-1.51,0.84-3.23,1-4.82l7.37,1.87c1.16,0.28,1.43,0.48,1.43,0.96c0,0.64-1.24,0.76-1.71,0.76c-0.44,0.52-0.84,1.04-1.27,1.55
		h3.31l2.15-2.95c0.2-0.28,0.4-0.56,0.8-0.56c0.32,0,0.64,0.24,0.88,0.48l3.82,3.82c0.28,0.28,0.52,0.72,0.52,1.12
		c0,0.88-0.6,1.12-1.35,1.12h-7.85c0.56,0.4,1.12,0.92,1.35,1.59C125.08,13.71,125.24,13.59,125.56,13.59z M103.17,14.15
		c-0.16-0.6-0.36-1.2-0.6-1.79c-1.43,1.43-2.95,2.71-4.58,3.9c0.88,0.04,1.75,0.08,2.63,0.08h3.47
		C103.56,15.86,103.32,14.83,103.17,14.15z M109.86,25.31h-5.3l-0.64,3.03h5.94V25.31z M109.18,14.35c0,0.96-0.56,1.55-1.35,1.99
		h5.1l-0.8-0.6c0.44-1.12,0.88-2.23,1.27-3.39h-5.42C108.66,12.88,109.18,13.43,109.18,14.35z M113.17,16.34h6.33
		c-0.28-0.4-0.36-0.64-0.44-1.08c-0.16-1-0.44-1.95-0.84-2.87C116.31,14.07,115.28,14.87,113.17,16.34z M116.83,19.37v2.91h5.82
		v-2.91H116.83z M116.83,25.31v3.03h7.33l1.71-1.87c-0.44,0.04-0.88,0.04-1.31,0.04c-1.67,0-1.83-0.52-1.91-1.2H116.83z"/>
	<path d="M144.71,21.16h1.43c1.43,0,3.03-0.2,4.22-1c1.63-1.08,1.87-2.63,1.87-4.42c0-2.47-0.64-5.1-3.63-5.1
		c-2.87,0-5.1,1.91-6.53,4.22l-2.47-1.67c2.15-3.86,5.86-5.78,10.2-5.78c4.66,0,9.64,2.67,9.64,7.85c0,3.03-1.87,4.9-4.58,5.94
		c1.27,0.44,2.27,0.92,3.27,1.83c1.87,1.67,2.91,4.18,2.91,6.65c0,6.93-7.57,10.08-13.55,10.08c-2.87,0-8.69-0.92-8.69-4.78
		c0-1.75,1.35-2.91,3.07-2.91c1.95,0,3.03,1.16,3.51,2.95c0.24,1.08,0.6,1.71,2.91,1.71c1.87,0,4.06-0.6,4.78-2.55
		c0.32-0.92,0.4-2.15,0.4-3.15c0-4.78-2.51-6.85-7.13-6.85h-1.63V21.16z"/>
	<path d="M189.85,8.06v3.98c-6.97,8.69-9.08,12.99-9.64,24.22c-0.08,1.39-0.32,2.47-1.71,3.07c-0.68,0.32-1.47,0.44-2.23,0.44
		c-2.11,0-3.79-0.88-3.79-3.19c0-2.51,1.63-6.49,2.79-8.77c2.43-4.78,5.74-9,8.92-13.31h-8.65c-2.87,0-3.9,0.44-4.82,3.63
		l-0.12,0.44h-3.03l2.11-10.52H189.85z"/>
	<path d="M224.83,7.62l1.91-2.43c0.28-0.36,0.56-0.68,1.04-0.68c0.32,0,0.76,0.24,1.04,0.44l4.74,3.47c0.4,0.28,0.88,0.6,0.88,1.16
		c0,0.72-1.35,1.43-2.35,1.87v23.07c0,1.75,0.12,3.55,0.12,5.34c0,1.47-0.4,1.99-1.99,2.31c-0.92,0.16-2.11,0.36-3.07,0.36
		c-1.75,0-1.83-0.76-1.83-1.91v-0.56h-20v0.2c0,1.35-0.48,1.71-1.83,1.99c-1.04,0.2-2.27,0.36-3.31,0.36c-1.35,0-1.87-0.4-1.87-1.75
		c0-1.47,0.12-2.91,0.12-4.34V9.97c0-1.67,0-3.35-0.16-4.98l7.85,2.63H224.83z M205.3,37.02h20V10.64h-20V37.02z M216.78,15.47
		l1.95-2.31c0.2-0.24,0.44-0.52,0.8-0.52c0.28,0,0.48,0.08,0.96,0.48l3.71,3.19c0.28,0.24,0.6,0.64,0.6,1.04
		c0,0.64-1.04,1.24-1.55,1.51v9.92c0,0.8,0.04,1.59,0.04,2.39c0,1.27-0.6,1.63-1.71,1.99c-0.88,0.28-1.75,0.48-2.67,0.48
		c-1.87,0-1.99-0.76-1.99-1.79v-0.4h-3.23c0,0.8-0.12,1.31-0.88,1.67c-0.92,0.4-1.99,0.64-3.03,0.64c-1.99,0-2.31-0.44-2.31-1.63
		c0-0.88,0.04-2.07,0.04-3.23V16.62c0-1.12,0-2.23-0.12-3.39l6.77,2.23H216.78z M213.67,18.49v9.92h3.23v-9.92H213.67z"/>
</g>
</svg>
