<svg version="1.1" x="0px" y="0px" viewBox="0 0 624.7 686.6" class='japan-map'>
<path d="M404.4,555.2c0,0,1-0.2,1.1-0.1c0.1,0.2,1.9,1.8,1.9,1.8s0.7,0,0.8,0.1c0.1,0.1,0.2,1.9,0.2,1.9l-0.9,0.9
	l-1.7-0.7c0,0,0-1.4-0.1-1.4s-0.7,0-0.7,0l-0.7-1.2L404.4,555.2z M395.6,512c0-0.1,1.2-0.2,1.2-0.2s1,0.7,1,0.8s0,1.8-0.1,1.7
	s-1.1,0.8-1.2,0.8s-1.3,0.2-1.3,0.2l-0.5-1.4C394.8,513.9,395.6,512.1,395.6,512z M387.9,498l0.2,1l-0.5,0.9c-0.1,0-0.2,2.7-0.2,2.7
	l-1.1-0.9l0.2-1.2c0-0.1,0.5-1.2,0.4-1.2C386.7,499.3,387.9,498,387.9,498z M390.3,481.5l2,0.5l1.3,1.3v3.4l-1.9,0.1l-1.4-1.5
	C390.3,485.2,390.3,481.5,390.3,481.5z"/>
<polygon points="12.4,568.2 11.8,567.8 12.1,568.7 11.3,568.3 10.8,567.7 10.2,568.2 10.2,568.9 11.1,569.1 12.3,571.4 
	12.8,570.8 13.3,569 12.5,567.6 "/>
<polygon points="9.1,569.8 8.6,569.9 8.3,571.4 8.9,572.3 10.3,572.7 11.3,571.3 10.8,570.1 9.7,569.4 10.2,570.9 
	9.6,571.1 "/>
<path d="M8.9,575.6l0.4-2l-0.9-0.4l-0.8-1.9l-0.7,1.1l-0.5-0.3l-0.2,1.6L5.7,573c0,0-0.5,0.6-0.5,0.7L4.9,573l-1.5,0.7
	l0.1-1.1L3,571.9H2.1l-0.6,0.7l0.1,1.3l0.4,0.9l-0.3,0.5l0.6,1.5l-0.8,2.3L0.6,579v-0.8H0.1L0,579.7l1.1,0.3l0.1,0.5h0.9l0.3-0.6
	l2.7,0.1l0.4,0.5c0,0,0.2,0.8,0.2,0.9h0.6l0.7-0.9v-0.7l-1-0.4v-1.2l1.4-0.4l0.4,0.7l2.7-0.1l0.3-0.6L9,576.2L8.9,575.6z"/>
<path d="M20.4,562.1l-1.3,0.6l-1.2,0.2v-1.6l0.3-1.9l0.8-2.1l-0.6-0.8l0.3-1.2l-0.5-0.2l-0.5,1.6l0.1,0.9l0.3,0.5
	l-0.3,0.5l-0.5,0.3l-0.4,0.9l0.3,0.4v0.6h-0.5l-0.2-0.5c0,0-0.5,0.2-0.5,0.3s-0.2,0.7-0.2,0.7l-1.1,0.3l-0.5,0.5l0.5,0.1l0.8-0.4
	l0.1,0.6l0.3,0.5l-0.6,0.5l-0.8,0.1l-0.6,0.6v0.5l1.1,0.8l0.8,0.9c0,0,0.2,0.7,0.2,0.6v1.2v1.2l0.1,0.8l0.9,0.5v-1.1l-0.2-0.7
	l0.6-0.3l0.6,0.3l0.1-0.9l-0.4-0.8l0.3-0.5l0.3-1.1v-0.8l1,0.4l0.4-0.7l1.1-0.9l0.1-1L20.4,562.1z"/>
<polygon points="15.4,566 14.8,565.6 13.4,565.3 12.6,565.6 12.7,566.6 13.1,567.8 14.1,567.8 15.5,568.4 15.5,567.6 
	"/>
<path d="M19,548.8l-0.2,0.5l-1.1,0.2c0,0-0.6,0.7-0.7,0.8s0.6,0.2,0.6,0.2l0.8,0.8h0.7l0.2-0.7c0,0,0.7-0.3,0.8-0.4
	l-0.6-1.4L19,548.8z"/>
<polygon points="30,546.6 30.4,546.2 30.4,542.4 29.9,542.6 29,546.4 29.5,546.6 "/>
<path d="M38.4,527.3l0.8,0.7H38l0.5,1.1l0.9-0.1l-0.1,0.7l0.4,0.7l1.1,0.1c0.1-1.8,2.4-1.3,2.4-1.3V528h-0.8l0.1-0.7
	c0,0,1,0.2,1.1,0.2l0.1-0.4l-1.4-1.1l0.5-1.5l-2.3-0.6l-1,0.4l-0.3,1.1l0.5,0.9l-1.3-0.5V527.3z"/>
<path d="M22.5,501.6c0,0.2,2-0.2,2-0.2l0.7-1.3l0.5,0.2l-0.5,1l0.8,0.5l0.9-1.2l0.5,0.3l-0.1,2l0.6,0.6l1-1.1l0.4-1.2
	l-0.7-0.3l0.3-2.1l-0.9,0.8l0.5-1.7l-0.5-0.2l0.4-0.8c2.7-3,3.1-4.1,3.1-4.1l0.1-1l-0.1-0.9l-1.3-0.8l0.5-0.8l0.9,0.9l0.8-1.5
	l-0.7-0.3l0.8-1l-2.2-1.5l-0.7,0.5l-1.2,2.3l-2.3-0.2l-0.6,1.9c0,0.1-0.4,1.7-0.4,1.7l1.6,1.6l-1,0.5l-1,1.9l-0.2,1.2h1.1l-1.2,1.2
	l-0.2,2.4l-1.6,0.1C22.6,500.8,22.5,501.4,22.5,501.6z"/>
<path d="M33.5,544.1v1.1h-0.6l-0.1,1.1l-2.3,0.5l-0.2,2l-1,1.1v0.9l0.7,0.6l-0.9,0.1l-0.7,1l0.1,0.5l0.8,0.3L29,554
	h-1.1l-0.7-1.3l-0.5,1.2l1.1,0.8h0.8l1.7-0.7l1.4-1.8l1.1-1.9c0,0-0.8-0.5-0.6-0.5c0.1,0,0.9-0.3,0.9-0.3l-0.3-0.6l0.8-0.1l0.3-0.5
	l-0.6-0.5l0.9-0.4l0.5-1v-2.3L33.5,544.1z"/>
<path d="M21,509.3l-0.3,3.4l0.9-0.5c0,0,0.7,1.2,0.8,1.3c0.1,0.1,2.2-1.7,2.2-1.8c0-0.1,1-3.9,1-3.9l0.7-0.6l0.3-2.1
	l1.3-0.2l0.8-0.8l-0.8-0.1l-0.9,0.2l-0.9,0.1l-1.2-1.4c0.1,0-0.6,0.2-0.6,0.2l0.6,0.9l-0.8-0.4l-1.4,0.2l-0.1-1.2l-0.9,0.1l-0.4,3.4
	L21,509.3z"/>
<path d="M18.9,552.7l-0.2,0.3l0.1,1.5l0.8,0.5l-0.3-1.1l0.5-0.2L18.9,552.7z"/>
<polygon points="66.9,582.3 66.9,581.1 67.1,579.9 66.8,579.4 65.8,579.4 64.8,580.8 65.8,581 65.3,582.5 "/>
<path d="M55.4,594.6l1.2-0.3l0.4-0.6h-1.1l0.6-1.4l0.6-0.5l0.3,1.4l1-1.1V591l0.6-0.6l-0.5-0.9l-0.5,0.3
	c0,0,0.2-3,0.1-3c-0.1,0.1-0.3-4.2-0.3-4.2l-2.8-0.2l-1.9,1.4l-0.8-0.3l-0.3-0.6l-0.9,0.5l1,0.8c0.3,1.8-1.3,4.1-1.3,4.1l-1,3.2
	l0.6,1.5l1.4,0.1l-0.5,0.8l-1.7,2.3l1.6,0.3l-0.5,1.7l1.2,2c0,0.1,0.9-0.1,0.9-0.1l-0.8-2.4l2-0.7L55.4,594.6z"/>
<polygon points="62.9,591.9 62.7,592.9 61.9,593.4 63.6,593 64.5,591.5 63.7,591.4 "/>
<path d="M62.7,583.8l-4,3c0,0,0,1-0.1,1.1s0.8,0.8,0.8,0.8l-0.1,1l0.9,0.2l0.6-1.1l0.5,0.6l1.6,0.1l0.6-0.8l0.1,1.3
	l1,0.1l1.3-0.9l-0.1-0.8l1.5-4.4l-1-0.2c0,0-1.1,0.9-1.2,1s-0.8-1.1-0.8-1.1L62.7,583.8z"/>
<path d="M126.3,564.8l-1.1-0.3l-1.5,0.5l-0.3-0.9l-0.6,0.9l-0.9-1l-1,0.2c0,0-1.4-1.5-1.3-1.5s0.8-1.6,0.8-1.6l0.5-1.2
	c0,0,2.8-0.2,2.9-0.2s0.1-2.4,0.1-2.4s-1.4,1.6-1.3,1.6s-1.3,0-1.3,0l-0.5-0.8l-0.1,0.9l-2.7-0.6l2-1.9l-0.7-0.5
	c0,0-1.5,0.8-1.5,0.9c0,0.1-1.6-0.6-1.6-0.6l0.7-1l0.1-1.3l1.5-0.8l-0.2-0.8l1.3-2.2l-3.8,1l-3.8-1.6l-3.2,1.4l-1.3-0.3
	c-2.6,0.5-2.2-2.6-2.2-2.6c-1-2.8,1.2-2.3,1.2-2.3s0.6,0.6,0.7,0.7c0.1,0.1,1.6-0.2,1.6-0.2v-0.8l2-0.2v-0.6l-0.9-1.2l1.9-0.2l1,0.6
	l-0.1-0.9l1.2-2.2l-0.2-1.5l0.3-1.2l-0.2-2.1l-1.2-2.1l-2.2-2.2l-2.2-0.6l-0.3,0.8l-2.1,0.2l-1.7,2.3l-1.6,1.6h-5l-1.3-1l-2.3-0.3
	l-2-0.8c0,0-1,0.6-1.2,0.6s-3.8-6.8-3.8-6.8l0.2-2l-1-0.5l0.9-1.4l0.9-4.9l-1.9,0.5l-0.9,1.9l-1.6,0.7l-1.9-2.1h-2.1l-0.8,0.7
	l-3.1-0.2l-0.7,1.6c-1.7,1.5-3,0.9-3,0.9l-0.3-0.6l-1.6-0.2v1.2l-1.5,0.6l-0.9,2.8l0.2,2.1l-1.6,1.5l-2.4,2.2l-1.3-0.3l-0.7-1
	l-0.6,0.7l0.7,0.9l2.2,0.9l0.2-0.7l1.5-1h0.8l-0.3,1.3l-1.2,2.2L62,536l-1.5,0.1l0.5-1.2l-1.7-0.6l0.2-1l-0.8-0.2l-2,1.3l0.1,0.8
	l-0.6,0.7l-2.3,0.1l0.8,0.9l1-0.1l-0.5,1l2.1-0.3l-2.2,1.9l-2.7,0.8l-0.1,0.9l-0.3,1.1c-0.9,0.9-2.1-0.1-2.1-0.1l-1.1-1.2l0.7-1.6
	l-1.2-1.1l-1.5-0.1l-0.9,1.1l-0.8,0.4l0.8,2.2l-0.5,0.4l-1.2-1.4c0,0-0.7,1.3-0.8,1.3s1.7,2,1.7,2l1,0.2l0.1,1.2l-0.5,0.8l-0.5,2
	l0.4,0.9c0,0.1-0.4,0.3-0.4,0.3l-0.9-1.3l-0.9-0.9v-1.4H43l-1,0.1l-0.6-0.3l-0.9,0.8l-1.6-0.6l0.3-1.3l-0.4-0.3l-0.8,1.3l-2.7-0.3
	v1.9l-0.5,0.1l0.1,0.6l0.5,0.5l1.1-0.1l-2.1,1.7l0.3,2.8l1.7-0.1l0.3,1.3l1-0.9l0.3,0.8v1l0.7-0.1l0.3,1.1l-0.8,0.5l0.3,0.8l1.5-0.3
	l0.4-0.8l1.7,0.3l-0.5,0.9l0.6,1.1l0.8,0.1l1,0.9l-0.1,0.8l0.3,0.2l1.1-1.3h0.9l2.5,2.6l-0.2,1.4l-0.6,0.6l0.1,1.5l0.8,1.5l0.8,0.3
	l0.2,0.3l-0.5,0.2c0,0,1.4,1.6,1.5,1.6s-1.3,0.1-1.3,0.1l-0.1-0.4l-1.2-0.6l-1.1-0.6l-0.3,0.3l-0.4-0.4L46,569l-0.5-0.5l-0.1,1
	c0,0-2.2-1.3-2.1-1.3c0.1,0,0.1-0.8,0.1-0.8l0.6-0.3l0.1-0.8c0,0-0.8,0.1-0.9,0.1s0.1-1.4,0.1-1.4l0.3-0.2l0.1,1h0.5l0.1-1.7
	l0.5-0.9l-0.6-1.3l-1.1-0.2l-0.4-0.2l-1,0.8l-0.3-0.9l1-1.2l-0.2-0.5l-0.8,0.3l-0.1-0.8l-0.5-0.4l-0.2-0.6L39,558l-0.4,1.6l-0.8,1.1
	l0.2,1.9l-0.6,0.5l-0.1,1.6l0.7,0.6c0,0.1,1,1.9,1,1.9l1,2.7l1.2,0.9l0.5-0.5l1.1,0.1l-0.4,1l1.2,0.8l-0.1,0.8l1.3,1.8l1-0.8
	l-0.9,1.9l-1.6,0.2l1,0.9l-0.6,0.9l-1.3,2.3l-1.2,1l1.6-0.2c0,0,2.1-2.4,2.1-2.6c0-0.1,1.9-0.6,1.9-0.6l2.3-4.4l0.2-1l2.2,0.7
	l2.2-2.1l1.9,0.5l2,0.2l-0.3,0.7l0.2,0.8l0.7,0.1v1.3l-2.9,2.2l0.2,1.4l1.7,1.7l1.5-0.1l1.7-2l1.5-0.2l1.6-1.6l-0.2-0.8l0.8-1.2
	l0.1-2.4l-1-2.8l-1.5-1.3l-2.4,0.3l-2,1.5l-2.3-0.1l-1.2-1.2l1.6-1.4l1.3-0.6l1.4-2l0.7,0.1l0.1-0.9l-1.2-0.8l-0.9-2.6l-1.3-2.3
	l-0.1-0.9l0.8,0.7l3.1-3.8L61,555l0.2,0.5l2.6,0.2l0.9,0.3l0.5,1.9L66,559l0.1,1.6v1.5l0.9,3.7l2.8,1.7l0.1,1.3l1.7,0.5l1.2,2.3
	c0,0-0.1,1.2,0,1.3s0,2.2,0,2.2l-1.7,1l-0.8,0.9l-3,2l0.1,0.9l2.1-0.3l2.3-0.7l2.4-0.6l0.6,1l-1.6,1l-3.1,2.8l1.3,1l-0.7,0.5
	l-0.2,1.2l1,0.1v1.7c0,0-2.8,2.8-2.8,2.9c0,0.1-0.6,3.4-0.6,3.4l-1.4,1.2v1.5h-1.2l-1.2,1.7l-0.5,1.5l-0.8,1.7l-0.9,0.6l-1.4-0.2
	l-0.4-0.6l-1.8-0.1l-1.3,0.9l-0.3,1.3l1.2,0.9l-0.3,1.2l-0.9,1.7c3.4,2.8,0.8,6.6,0.8,6.6l-0.9,2.4l0.8,1.7c10.7,7.7,1.7,16,1,15.8
	l-2-1.5L55,633l1.5,2.2l1.5,0.7v1l-1,0.5l1.6,0.8l-0.8,0.7l1.3,0.5l-0.6,1.3l2.6-0.1v-0.8l3.4,0.7c5-0.3,4.9,2.7,4.9,2.7l-0.1,1.2
	l1.4-0.2l1.3,0.5l0.5-0.9l1.2,0.2l0.3-1l-0.5-0.2l0.8-1l0.5-2.1c-5.6-1.7-5.2-9-5.2-9l0.2-1.5l1.3-1.9l0.3-1l-0.1-1l0.8-1l0.7-1.7
	c-1-2.2,3.1-3.5,3.1-3.5l1.4,0.9l2.2,0.7l1.2,2.1l-0.9,1.4c-0.6,3.5-2,2.9-2,2.9l-1-0.2l-0.2-2.1l-1.2-0.7l-2.1,0.5l-1,1.7l1.7,1.4
	l2.2,0.2l-0.2,1.5l0.3,2c1.6,0.5,3.6,5.7,3.6,5.7l-0.6,3.9l-1.3,2.1l0.6,0.8c0,0-1.5,3.1-1.5,3.2c0,0.1-2.6,1.7-2.6,1.7l0.8,0.7
	l-0.2,1.6l-0.7,1.2l0.8,0.2l1.5-2.3l3.7-2.2h1.5l4.1-2.3l0.5-1.4l0.8-2.3c0,0,2.1-0.1,2.2-0.1s1.7-2.4,1.7-2.4l-1.4,0.2l-0.2-0.7
	l1.2-0.9l-0.1-0.6l-3-1.9c-0.5-2.6,3.2-4.8,3.2-4.8l2,0.5l1.2,0.3l1.9,1.3l-0.2,1.7l1.3,0.6l1.3-0.7c0,0,0.8,1.5,0.9,1.5
	s0.6-0.3,0.6-0.3l-0.6-1.3l1.6-2.1l-0.7-1.2c0,0,1.2-0.8,1-0.8c-0.1,0,0-2.7,0-2.7c0.1-2.1,2.7-3.9,2.7-3.9l-0.1-1.6V620l1.2-3.1
	c-1.7-0.5-1.3-4.5-1.3-4.5c0.5-2.2,3-11.1,3-11.1c1.7-8.1,3.4-10,3.4-10l0.5-2.6l1.4-0.5l-0.3-1.2h-0.8l0.2-1.5l1.3,0.6l1.4-1.2
	l-0.6-1.3l-0.8,0.5l-0.2-1.7l0.9-1.6l1.2-0.3l0.9-1.6l-0.7-0.2l1.2-1.4c0,0,1.5-1.5,1.5-1.4s0.9,0.3,0.9,0.3l-0.1-1l0.5-0.9l0.8-0.6
	l0.1-1.6l0.5,0.8l0.2-1.4l1.7,0.3v-0.7c0,0,0.9,0.4,1,0.4s1.2-1.4,1.2-1.4l0.1-0.4l-1-0.2l-0.1,0.7l-0.4-0.6l-0.3,0.5l-0.3-0.7
	l0.9-0.9l1.6-1l-0.3-0.4l-0.9,0.3V566l0.9,0.5l0.3-0.8l0.8,0.3v-0.4l1.6-0.2C126.5,565.3,126.3,564.8,126.3,564.8z"/>
<polygon points="47.5,613.3 47.5,614.3 45.6,612.5 44.6,612.5 44.1,613.7 45.7,614.5 46.2,615.9 47.2,615.1 48.1,615.2 
	47.9,613.1 "/>
<polygon points="58.1,599.6 57.3,599.6 57.3,599.1 58.1,598.4 56.9,597 56.4,597.6 54.8,597.4 54.7,598.6 54,599.1 
	54.9,600.3 54.9,601.7 56.1,602.5 56.6,603 57.3,600.9 58.2,600.2 "/>
<polygon points="58.8,594.1 58.7,595.6 59.7,595.5 60.6,594.4 60,593.5 "/>
<polygon points="72.9,678.7 68.8,676.2 67.8,676.2 66.1,679.1 64.4,679.4 64.6,681.2 65.8,683.8 66,685.2 66.8,686.5 
	70.8,686.6 72.9,685.6 74.9,682.7 75,679.9 "/>
<path d="M89.1,666.8c0.1-0.1,0.8-1.3,0.8-1.3l-0.1-3.1l0.5-0.3c0,0-1-2.4-1-2.5s-0.8,0.7-0.8,0.7s-1.3,1.9-1.2,1.9
	c0.1,0,0.3,0.3,0.3,0.3l-0.5,1.4l-1.8,3.3c1.4,5.7-3.3,9.1-3.3,9.1l0.3,1.4l0.1,1.9l-0.2,1.2l0.9,0.9c0.3-1.6,3-1.5,3-1.5l0.5-2.4
	l-0.5-2.1l1.2-3.1c0,0,1.2-0.4,1.2-0.5c0.1-0.1,0.2-1.4,0.2-1.4s0.7-0.6,0.8-0.6C89.2,669.7,89,666.8,89.1,666.8z"/>
<path d="M44.2,615.5l-0.2,1.2c0,0,0.6,0.2,0.7,0.2c0.1,0,0.5-0.6,0.5-0.6s-0.1-1-0.1-1.1C45,615,44.2,615.5,44.2,615.5z
	"/>
<path d="M42.1,618.8l-1.7,0.5l-0.6,1.2l-0.8,2l-0.5-0.2l0.3,1.2l1.4,0.5l1-1.5l-0.6-0.1l0.7-1.4l0.3-1.1
	c0,0,1-0.1,1.1-0.1s0.7-2.6,0.7-2.6h-0.5L42.1,618.8z"/>
<polygon points="157.8,508 158.3,508.8 159.7,507.9 160.8,508 161.8,507.4 161.6,505.8 160.9,504.4 160.3,504.1 
	159,504.6 158.4,505.5 159.4,505.9 159.2,507.4 158.3,507.3 "/>
<polygon points="160.4,512.5 161.1,512.5 163,510.3 163.5,510.2 163.7,509.6 162.6,509.7 162.3,508.9 160.7,508.7 
	160.5,509.3 161.1,509.8 161.1,510.7 160.3,510.5 "/>
<polygon points="163.8,507.7 163.6,506.9 162.3,507.1 162,508 162.6,508.6 163.2,508.2 163.8,508.7 164.6,507.7 "/>
<path d="M222.2,524.9L221,525c0,0,0-0.3-0.1-0.3s1-0.3,1-0.2s-0.1-0.6-0.1-0.6s-0.7,0.1-0.8,0.1s-1.7,0-1.7,0l-0.2-0.9
	l1.3-0.6l1-1.2l-0.1-1.7c-2-0.7-2.1-2.6-2.1-2.6l-0.5-0.1l0.1,0.8l-0.7-0.1c0,0-0.6-1-0.5-1s-0.1-2.8-0.1-2.8l0.4-2l1.2-2.5l-2-1
	l0.1-0.9l-0.1-0.7l-0.7-0.1l-0.2,0.7c-2.5-0.7-3.4,0.7-3.4,0.7h-0.9l-2.2-2.6l-0.8,0.8L205,504l0.2-0.8l-0.1-1.4l-0.5,0.2l-1-0.8
	l-1.2,0.7l-0.1,0.8l-0.8-0.6l0.2-2l-0.9-1l-0.6,1.5l-1-0.6l0.1,1.2h-2.9l-2.8-1.2l-1.4,0.3l-0.3,1.3l-1.7,1l-3.4,1.9l-2.6,2.4
	l-0.3-0.6l-1.3,0.3l-2-1.3l-0.1,0.8l2.2,1.9l0.1,2.8l-0.1,2.9l-1.2,1.5l-1.8,1.8l-1.5,1.5l-3.9-0.8l-1.8,0.3l-1-0.5L170,518
	l-1.1,1.1l-2.2,0.5l-1.6,0.6l-1.9-0.8l-1.2-1.8l-1.1-2.9c0,0-1.4-0.8-1.3-0.8c0.1,0-0.8-1.6-0.8-1.6l-1.1-1.3l-1.5,1.1l0.7,0.5
	l-0.1,1.7l-2.2,0.4l-2.2,2.2l-1,0.5l-0.1,2.3l-0.5,1.3l-0.5,0.7l-1.2-0.1l-0.2,1.1l0.3,0.9l-0.8,2l0.2,1.4l0.1,1.4l-0.9,0.4
	c0,0,0.5,2.4-4.9,4.9c0,0-3.2,1.2-4.5,4.1c0,0-3.5,2.5-4.5,2.9l-1,0.4l0.1,0.6l-0.7,0.2c0-0.1-0.3-0.5-0.3-0.5l-0.8,0.9l-0.7-0.4
	l-0.9,0.3c0,0,0.2,0.8,0.1,0.8c-0.1-0.1-0.7-0.4-0.6-0.4c0.1,0-0.6,0.4-0.6,0.4l0.8,0.5c0,0-0.2,0.5-0.3,0.5s-0.7-0.4-0.7-0.4
	l-0.2,0.5l-0.5-0.5l-2,1.5c0,0.1-1.6,1.7-1.6,1.7l1.1-0.4l1.4-1l1-0.6l0.1,0.5l-0.5,0.6l1,0.2l0.7-0.5c0,0,0.2-0.9,0.2-0.8
	c0,0.1,1.9-1.1,1.9-1.1l1.1-0.3l1.6-1.1l0.8-0.7l0.6,0.2l1-0.8l0.9,0.6l1.4,0.4l-0.9,1.4l-0.2,2.2l0.2,0.5l1.2-0.9l-0.2,1.5
	l-1.6,1.2l1.8,0.9l0.8-0.3c0,0,2.2-0.4,2.2-0.3c0,0.1,0.8,0.3,0.8,0.3l-1.2,0.9l-0.3,1.1l1.8,0.6l-0.1,1.5l-0.8,0.5l0.2,1.8
	l-1.6-0.5L140,553l-1.2-0.2l-1.2,0.6l0.5,1.2l0.9-0.9l0.5,0.8l-0.2,1.2l2.2,0.9v0.5l-1.9-0.2l1.2,1.2l-0.6,0.7l0.7,1l-1.1,0.5
	l-1.2-0.9l-0.7,0.5l-0.1,1.3l-0.7,0.5l0.8,0.5l0.5-0.9l0.2-1.2l1.2,0.8l1-0.3l0.1,1.1l0.9,0.8l0.4,0.9l-0.5,0.2l-0.6-0.4l-0.5,0.8
	l0.9,0.6c0,0-1,0.7-1.1,0.7s0.1,1.4,0.1,1.4l2.1-0.2l-1.1-0.4l0.9-0.8l2.4-0.3l-0.2,0.8l0.6,0.3l0.8-0.2h1.3l2,0.1l0.1,1.6l-0.7-0.1
	l-1.3,1.5l0.2,0.6l-1.2,1.9l-0.1,1.2l0.7,0.2l0.1-0.7l1.6-0.6l0.8,0.1l1.4,1.4l1.5,0.4l1.3-0.5l0.5-0.9l0.9-0.1l2.5,0.5l1.2,1.2
	l-0.2,0.8l2,0.2l-0.1-1.5l-1-1.6l-1.3-0.9c0,0,0.2-2.1,0.2-2.3s1-0.2,1-0.2l0.7-0.6l0.1-1.5l-0.5-1.6c0.7-6,3.8-3.3,3.8-3.3l0.6-2.8
	l0.9-0.3l0.9-2.1l1.1-1.1l0.9,0.2l-0.2-1.3c0,0,0.5-0.5,0.7-0.5s1-0.9,1-0.9l-0.1-2.8l-0.6-0.6l0.9-0.7l-1.2-0.3l0.1-0.5l1.1-0.3
	v-0.9l-0.2-0.3l0.9-0.6l0.8,0.2l0.9-0.6l0.9-0.7l2-0.1l1.9-0.8l-0.1-0.6l-1.3,0.5l-1.7,0.5l-0.3-0.3l1.7-0.9l1.7-0.3l3.8-1.9
	l0.6-0.9c2.4-1.5,6-1.2,6-1.2l0.8,1l2.9,0.2l3.4,1.3c-0.6,1.5,3.5,3.4,3.5,3.4l0.1,1.5l0.8,0.2l1.6,1.5l0.1,1.6h1.2l1.4,2.1l0.7-4.9
	l0.8-1.4l-0.5-0.5l1.2-2.1l0.1-0.8l1.5-2.4l0.9-1.4l0.5-1.5l1.7-0.1c0,0,0-0.9-0.1-0.9s0.8-0.9,0.8-0.9l-0.9-0.1l1.4-1.6l1.1-0.1
	l4.1-2.3l0.2-0.9l0.9-0.2l0.2-1.4l1.1,0.1c0,0,0.7-0.9,0.6-0.9c-0.1,0,1,0,1,0l3.6-2.2l-0.4-0.4
	C222.7,524.5,222.2,524.9,222.2,524.9z"/>
<polygon points="218.9,508.5 219.1,506.9 218.5,506.9 218.4,506.3 218,506.1 217.6,506.6 217.7,508 "/>
<polygon points="207.6,492.2 207,492.9 205.5,492.6 204.1,493.9 202.5,494 201.9,493.4 201.2,494.1 201.9,494.3 
	201.9,494.9 201.3,496 201.4,496.6 202.2,496.5 203.1,495.6 204.3,495.8 204.8,496.6 204.3,498.8 204.9,498.6 205.7,496.3 
	206.3,496.1 206.8,495.8 207.4,496.1 207.6,496.6 207,496.6 206.4,496.7 206.2,497.2 206.5,497.4 206.8,497 207.6,497 208.2,497.7 
	208.8,496 208.4,495.8 209,494.6 209.2,493.3 208.3,492.9 209.4,492.2 "/>
<polygon points="129.7,522 130.7,522.7 131,523.7 131.4,522.9 133,522.8 133.5,522 135.2,522.6 135.1,523.5 
	136.1,523.4 136.9,524.1 136.6,522.7 137,521.3 138.5,521.4 138.6,520.7 139.6,520.6 140.5,519.7 139.8,519.9 139.2,519.6 
	138.2,519.5 138,520.5 136.7,520.7 135.3,521.7 134.3,520.9 133.5,519.6 131.9,518.7 129.7,520.7 "/>
<polygon points="135.4,503.6 134.9,504.1 133.8,504.7 133.7,505.3 133,506 133.4,506.8 134,506.7 136.1,504.3 "/>
<polygon points="140.4,513.5 142.6,512.8 143,513.7 142.2,515.2 142.6,515.6 144.2,512.5 144.9,512.5 144.5,511.7 
	143.3,512.2 143.4,510.7 142.4,510.7 142.3,510.1 143.6,509.8 143.4,509.1 142,508.5 141.5,509.3 141.4,510.5 141.9,511.3 
	139.5,512.8 "/>
<polygon points="138.6,505.9 137.2,505.6 137.4,507.3 138.5,508.4 138.8,509.5 139.4,508.8 139.8,509.5 138.9,510.6 
	139,511.4 141.1,510.7 141.1,510.1 140.4,509.1 141.1,508.1 141.2,507.1 141,504.6 139.3,504.7 139.5,505.9 140.1,505.8 
	140.6,506.7 140.5,507.7 139.6,507.4 "/>
<polygon points="152.2,509.6 151.8,508.8 151.4,509.4 151.4,510.4 152.2,509.9 "/>
<polygon points="150.4,510.1 151.1,509.3 150.8,508.6 150.2,508.6 148.9,508.1 148.4,508.5 148.7,509.1 150.2,509.6 "/>
<polygon points="157.1,504.7 156.1,506 155.8,505.3 154.1,506.6 153.9,506.9 154,507.7 154.8,508.1 156.8,507.8 
	156.8,506.7 157.6,504.8 "/>
<polygon points="162.8,503.6 162.1,505.2 162.6,505.9 163.3,505.8 165.1,504 164.6,503.4 "/>
<polygon points="166.1,501.5 165.2,501.4 164.8,502.8 165.6,504 166.5,505 167.2,504.1 166.8,503.7 167.5,503.3 "/>
<polygon points="152.8,510.5 153.7,510.5 155.1,509.6 154.1,508.7 152.6,509.7 "/>
<path d="M158.6,425l0.9,0.5l-0.1-0.7l-0.1-1.3l0.9-0.3l0.2,1.3l1.2-0.1l0.2-1l-0.4-0.7l1.3-0.2l0.2-1.2l-0.5-0.2
	c0,0.1-0.6,0.6-0.6,0.6l-0.3-0.4c0,0-0.9,0.1-1,0.1s-0.7,0.9-0.7,0.9l-0.9,0.1l-0.9,1.3l-0.1,1.2L158.6,425z"/>
<path d="M161.3,426.4H160c-0.1,0,0.2,1.1,0.2,1.1l2,0.2l0.1-0.6l-1-0.3V426.4z"/>
<polygon points="164,424.7 164.5,423.9 164.7,422.8 163.6,422.2 162.4,423.5 162.2,426 "/>
<path d="M168.3,419.1l-0.2,0.8l1,0.2l1-0.5l2,0.4l-0.1-1.2c0,0,1-0.4,0.9-0.4s0.2-3.5,0.2-3.5s-3.2-2.5-3.2-2.6
	s-1.8,0.5-1.8,0.5l-1.3,1.5l-0.4,1.7l0.4,2.1L168.3,419.1z"/>
<path d="M228.5,501.5l0.1-2.5l0.8-1.6l1.2-1.5l1.5-1.7l0.1-1.3l1.1-1.4L232,490l-2.1,2.9h-0.5l-0.6,0.6h-0.7l-0.9,1.1
	l-0.5,1.9h-1l-0.9,1l-0.1,1l-1.5,1.9l-0.4,2.2l-0.9,0.5l-1.1-0.3l-0.7,1.6l0.4,1.9l1.1,0.1l0.5-0.4v0.7l-0.6,0.8v0.4h0.8l0.3,0.4
	l0.2,0.8c1-0.7,2.4-0.7,2.4-0.7c1.3-1.3,5.4-3.1,5.4-3.1l-0.1-0.6L228.5,501.5z"/>
<path d="M303.9,376.1l-1.8,0.8l0.8,1.3l1.1,0.1l0.6-0.6l2.3-0.6l-0.4-0.7l0.3-0.4l-0.6-0.9l-0.4,0.4l-0.1,0.8l-0.9,0.4
	L303.9,376.1z"/>
<path d="M487.6,274.1c-0.2-1.2,0.9-2,0.9-2c0.2-1.8-1.5-0.2-1.5-0.2c-2.1,2.9-3.6-1.2-0.4-0.9c0.1,0.2,1-2.1,1-2.1
	c2.6-1,0-2.1,0-2.1l-0.3-3.4l-2.6,2.8c2-7.9,0.7-12.9,0.7-12.9c-2.7-3.2-0.3-3-0.3-3l-0.9-3l-1.2-0.1l-1.4-1.6
	c-3.7-2.6,0.3-4.1,0.3-4.1l-1.2-1.7c-3.6,0.1-0.5-2-0.5-2c-0.1-1.6-4.1-8.5-4.1-8.5l-1.4-1.7l-3.9-4.1c-1.9,1.3-2.7-0.7-2.7-0.7
	c-4.9-7.6-3.9-24.4-3.9-24.4c-1-3.7,2.3-12.6,2.3-12.6l0.2-2.3c-6.1,8.3-12.5-1.4-12.5-1.4l-1.7-1c-3.6,0.5-5.6-2.8-5.6-2.8
	l-0.7,1.2l0.5,0.9l-2.6,4.1c-0.3,0.7-2.1,8.9-2.1,8.9l-0.5,1.3c0.1,3.3,1.9,2.2,1.9,2.2c0.8-1.5,2.8-1.4,2.8-1.4
	c0.5-0.7,2.1-0.6,2.1-0.6c1.7-2.1,2.8-0.2,2.8-0.2l1.1-0.2l2.2-1.3l0.9-1.1c0.4-2.3,1.9-1.6,1.9-1.6c3.7,2.3,2.9,6.3,2.9,6.3
	l-0.9,1.2l-0.6,5.4c-3.6,9.7-6.3,3.2-6.3,3.2l-1.6-0.6l-1.1-0.3l-0.1-1l-3.7-2.3l-1,2.9l0.5,1.7c-4.1,7.5-6.9,0.8-6.9,0.8
	c-1.9-4.9-1.2-12.9-1.2-12.9c-1.9-2.6-3.9-2.2-3.9-2.2c-2.4,4.6-5-0.3-5-0.3l-1.9-1.1l-0.5,1.2c0.8,2.9-1.1,4.4-1.1,4.4l-1.8-0.4
	l0.1,1l1.4,0.1l0.8,1.2c0.5,4.1-1.5,11.3-1.5,11.3c-1.5,4-3,2.3-3,2.3c-0.5,1.6-3.1,2-3.1,2l-1.7-1.1l-2.2,1.2c-1,3-4.9,5.6-4.9,5.6
	l0.1,1.4l1.9,0.1c0.8,1.5,1,4.2,1,4.2l-0.1,2.8l1.4,2.2c0,0,2.3-0.5,1.4,4.3c0,0,0.3,1-1.3,3.9c0,0,0.5,5.1-5.5,10.5l-1.6,0.3
	l-2.3-1.1l-1-1.2l0.2,2.4l0.7,0.2l-0.6,0.4l0.5,1.7l0.6-0.1l0.3,1.9l2.5,0.2l1.5-0.1l0.2-1.4c0,0,3.7-1.4,6.5,4l0.5,2.9l0.2,1.9
	c0,0,0.8,10.7-3.6,18.3l-1.3,0.1l-0.3,0.5v1.9L410,283c0,0-0.1,0.8,0,0.8l0.6,0.1v0.9l-0.8,1.5l-0.6,1.2l0.3,1l-1.3,5.3l-0.9,0.7
	l-0.1,0.9c-1,5.9-2.9,8.1-2.9,8.1c-1.1,0-1.3,1.6-1.3,1.6c-1.4,0.3-1.9,1.6-1.9,1.6h-0.8l-0.3,1.1l-2.4,4.6l0.2,0.5l1.8,1l1.7,0.6
	l2.8,0.8l-0.2,4.6l1.5,1.5h2.5l2.9,3.2l-1.5,2.4l-2.8,1.7l-2.6-0.6l-1,1.9l0.2,4.9l-1,0.9l-0.8,4.4l-0.5,1l1.1,2.1l1.9,0.8l1.1,1.2
	l-2.9,3.1l-1.7,3.3l-2.2,1.3l-0.1,2.2l1.3,3.3l-0.7,1.2l-5-0.7l-1.2,2.7l-6.5,0.5l-0.5,2l0.9,0.5v2.2l-2.3,4.7l1.2,1.5l0.9-0.4
	l1.3,2l-0.9,3.1l0.8,2.5l-0.5,4l-2.3-0.8l-0.1-1.3l-2.9-2.8l-0.5,1.9l-1.4,1.3l-2.8,0.4l0.4,4.1l-1.1-0.5l-0.9,0.9l0.2,2l-3.6,0.8
	l-0.2,2.3l-1.5,0.8l-2.2-0.7l-0.2,1l-0.9,0.1v-1.2l-0.9-0.7l1.1-1.8l-0.2-1.9l-3.3-1.8l-0.6-4.2l-2.2-1.6l-4.7,1.2l-1.5,3.5
	l-1.6,0.2l-0.9,2.9l-7.1,1.1l-0.7,1.5l-2.2-1.3l0.7-3.1l-5.9-0.8l0.5,2.4l-3,3.6l-1.1,0.6l-0.3-1.5c0,0-0.6-1-0.6-1.1v-2l-0.6-0.6
	l-0.2-2.5l-1.7-0.3l-1-1.4h-1.1l-1.3,0.6l-3,0.4l-0.5,0.6c0,0-2.3-0.1-2.2,1.9v1.6l-0.8,1.7l-0.2,1.1l-1.5,0.9l-0.6,1.1l-3.2-0.5
	c0,0-2.5,1.2-5.2-0.5l-2.3-1.9c0,0-2.9-1.3-0.9-3.4l0.9-1.3l-0.2-0.5l0.7-1.1l0.1-1.6l0.1-4.9c-1.8-0.1-1.5,1-1.5,1
	c-1.4,3.9-2.6,0-2.6-0.1s-1.2-0.1-1.2-0.1l-0.1,0.6l-0.8,0.3c0,0-0.8-0.4-0.9-0.4s0.3-1.5,0.3-1.5c0-0.1,0.8,0,0.8,0
	c0.1,0,0.1-1.2,0.1-1.2l-0.5-0.5l1.5-2.6l-0.2-0.8l1.3-0.7l0.7,0.4l-0.8,0.6l0.3,0.5l1.2,0.2l0.7,0.8l0.5-0.2l0.3-0.7l1.2-0.5
	c-0.4-0.8,0.9-1.9,0.9-1.9l0.2-1c1.2-1.4,4.9-0.7,4.9-0.7l1.2-1.6l-0.3-1.2c-2.3-1.8,1.5-5.1,2.4-3.6c1-0.2,1.4-1,1.4-1
	c-1.1-1.1-0.4-1.9-0.4-1.9l-1-1c-1.5-0.8-4.6,1-4.6,1c-1.7-0.2-3.8,1.1-3.8,1.1c-0.2,0.8-2.1,1.9-2.1,1.9l-2,0.8
	c-1.9,1.6-4.2,0.5-4.2,0.5c-1.3,1.2-4.1,1.9-4.1,1.9l0.2,0.9l-1,1.4c0.5,2.8-0.8,3.1-0.8,3.1l0.1,0.8c-1.6,0.9-1.2,3.3-1.2,3.3
	c-0.1,1.6,0.6,0.8,0.6,0.8c0.5-1.5,1.2,0.1,1.2,0.1l0.2,1.6l-0.3,1.5l0.9,2.5l0.7,0.5l0.1,1.9l-0.6,1.4l0.5,0.9
	c-0.7,10-15.5,24.7-15.5,24.7l-1.5,0.3l-0.9,1.7l-1,0.9l-2.3,2l-2.1-0.1l0.4,1.9l-1,1c0,0-0.5,2.1-2.5,3.3c0,0-1,4.8-2.6,5.2
	c0,0-0.7,0.8,0.3,1.7c1,0.9,0.8,1.6,0.8,2.2s0.1,1.4,0.1,1.4s4,3,3.7,5.9l-0.6,3.1l-1.3,0.9c0,0-0.8-0.9-0.8-1s0.5-0.6,0.5-0.6
	l-0.8-3.2l-2.3,1.9l0.1,0.8l0.7,0.4l-0.1,0.9l-0.4,0.4l0.1,0.6l0.6,0.7l-0.3,0.9l-2.2,0.3c0,0-0.8,0-0.9,0s-2.6-1.2-2.6-1.2
	l-0.4,0.5c0,0,1.9,1.4,1.9,1.5s-0.8,1.3-0.8,1.3l-0.6-0.4l-0.6,0.3l0.8,1l-0.9,0.6l-1-1.1c0,0-1,1-0.9,1s0.1,1.4,0.1,1.4l-2.5,0.8
	l-2-0.1c0,0,0.5-1.6,0.5-1.7c0.1-0.1,1,0.1,1,0.1l-0.2-1.1l-1.4,0.4c0,0-1.4,1.7-1.5,1.7s-1.7,0.3-1.7,0.3s-0.8-0.7-0.8-0.6
	s0.3-1.9,0.3-1.9h-1l0.1,1l-0.7-0.1v-1.4l-0.9-0.8l0.3-1.3l-1.5,1.7l-2.8,0.9l0.5,2l1.5-0.2l-0.2,1.4l-1.3-0.3l-1.4,1.4l-0.3-0.9
	l0.8-1.1v-1.4h-0.6l-0.2,0.5l-2.5-1.1v-0.7l1.2,0.1l-0.1-0.6l-0.7-0.3l0.1-1l-1.6,1.8v0.9l-0.6-0.2l-0.2-0.8l2.3-2.8l0.5-1.8l1-0.5
	v0.7h0.4l0.1-1.4l-0.8-1.7l-2.2-1.9l-5.2,1.4l0.1,0.6l-1.8,1.6l-1.8-0.1l-0.7,1.4l-1.5,0.7l-2.2-0.4l-2.9-0.5h-4.6l-1.4,0.9
	l-3.9-0.8l-4.8,2.4l-1.3,0.5l-1.4-0.1l-0.9,1.3c0,0,0,1.4-8.7,2.3l-1.2-0.5l-3.1,0.8c0,0-8,1.5-11.8-0.9l-2.7,0.6L177,450h-1
	l-1.2,1.5c0,0-3.4,2-6-2.6l0.3-1.1l0.5-0.3l1.8-0.2l-0.1-0.5l-2.3-0.3l-2,0.3l-2.2,0.5l-0.6-1.5c0,0-1.1-0.5-1.2-0.5c-0.2,0,0,1,0,1
	l-1.7,0.2l0.3,0.7l-1,1l-1.8-0.5l-0.4,1.5l-4.2,0.2l-2,1.3l-2.6,0.4l1.2,0.9l-0.2,0.4l-2.2-0.2c0,0-2.5,0.7-2.6,0.7s0,0.7,0,0.8
	c0,0.1,1.7,0.5,1.7,0.5c0.9,5-3.7,6-3.7,6l-6.1,4.3l-0.2,1.9l-2.3,1.6c0,0-0.7,1.9-0.8,1.9s-2.5,1.1-2.5,1.1l-4.5,3.5l-1.5,1.7
	l-0.5,1.9l-1.2-0.2l-0.8,0.3l-0.7,1.8l-1,0.6l-0.7,1.3l-2.7,1.5c0.5,2.9-4.2,3.5-4.2,3.5l-2.4,0.2l-1.6,1.2l-0.7-1l-1,0.8v1
	l-0.9,0.1c0,0-0.7,0.6-0.7,0.7s0.2,1,0.2,1l-2.1,2.3c0,0-1.3,0-1.3,0.1s-0.3,0.8-0.3,0.8l0.1,0.7c0,0-2.1,3.5-2.1,3.4
	s-2.1,0.1-2.1,0.1l-0.8,1.2l-3.8,0.6l-2,0.2l-1-1.6l-1.9-0.6c0,0-2.3,0.5-2.2,0.6s-1.5-1.2-1.5-1.2s-1,1.3-0.8,1.4s2,0.5,2,0.5
	l0.7,1l-3.4,1l-1.3-0.5l-0.8,3c0,0,1.5,2.3,1.5,2.4s0.2,2.4,0.2,2.4L82,511l-0.2,1.4l1.7,1.9l-0.2,5h-0.9l1.2,1.5l0.7-1.3l1.9-1.5
	c0,0,2-3.1,2.1-3.1s2,0.6,2,0.6l2.7,2.8l-0.3,0.9l0.7,1l1-0.7l2.4,0.9l2.7-1.7c0,0,1.3-4.1,1.4-3.9c0.1,0.1,1.9,2.6,1.9,2.6l1.6-0.8
	l-0.6-1l1.7,0.6l0.1,0.7l2.2,0.8l1.6-2.8l4.9-0.7l2.7,1.7l-2.2,1.6l1.6,0.9v-0.9l0.9-0.8l1.2,0.8l1.9,1.4l2.7,1.6l1.3,0.9
	c0,0,1.2-0.6,1-0.7c-0.1-0.1,2,2,2,2s0.2,1.5,0.3,1.5s1.6-0.6,1.4-0.6s-0.8-1.7-0.8-1.7l-0.6-2.7l1.7-0.5l1.5-1.6l-0.3-5l0.9-0.9
	l0.7-0.9l-0.5-1.4l0.2-1.4l-0.5-0.8c0,0-0.1-0.9,0-1s3.4-2.8,3.4-2.8v-1.2c0,0,2-0.8,2.2-0.8s2.4,0.6,2.4,0.6l0.9-0.4l1,1.5l0.5,1.3
	l0.3,1.8l1.5,0.5l-0.4,0.6h-0.6l0.4,1.2c0,0,1.1,0.2,1.1,0.1s0.9-1.4,0.9-1.4l1.5,1.2l1.9-0.9v-0.8l2.1,0.1l1-0.8l-0.9-0.2l-0.1-0.9
	c0,0,1.3,0.2,1.2,0.1c-0.1-0.2,0.5-1.5,0.5-1.5l1.3,0.1v0.5h1v-0.7l2.7-0.2l0.2-0.7l3.2,0.2l1.5-0.7l0.3-2.2l1.2,0.6l4.3-1.8
	l0.5-0.8l0.7,0.5l0.2,1l-0.6,0.7l0.2,0.7l0.8-0.4l1.7,0.2l0.6,0.6c0,0,1.3-0.7,1.3-0.8c0-0.1,0-1.5,0-1.5l0.6-0.4v-0.7l0.9,0.8
	l0.3-0.9l0.4-0.8l1.9,0.2l3.6-0.9l2.8-2l1-0.9l0.2,2.8l1.2,0.2l0.1-1.6l1.3,3.1l1.3-0.1v-1h2.1l1.9,0.8l0.7-1.3l0.6-0.9l0.1-1.3
	l0.6-0.7l0.8,0.7l0.1-0.9l0.8-0.1l0.6-1.4l-0.7-0.7l-2.3,0.2l-0.5-0.6l2.3-0.6l2.1,0.3l0.2,0.8l1.5-0.2l1.4-0.9l1-0.7l-0.2-0.9
	l1.5-1.2l0.8-0.8l-1.4-0.6v-1.2h0.9l0.6,0.6l1.5-0.6l1.3,0.2l3.5-0.1l0.9-1.9l0.5-2.2l0.7,2.2l9.2-0.3l8.6,6l1.6-0.2l1.5,0.8
	l4.3-0.7l0.8-1.2l1.4,0.9l-0.8-1.4l1.3-0.5l1.3,0.5l0.5-0.8l1.4-0.7l2.9,1.2l-0.3,0.8l2.1,2l0.1,2l-1.2,2.4l-4.2,4.8l-3.6,3.5
	l-2.8,1l-1.4,0.7l-1.1,2l2.2,1.2l0.8,2.3l1,0.2v1.6l-1.9,0.5l-0.6,0.9l-0.3,1.9l2.3,1.6l-2.3,1.9l-1,1.5l1.4,0.2l-1.4,1.3l-0.3,1.7
	l2.2,0.1l1,0.7l1.5,2.7l7.1,4.2l-0.5,1.7l-1.7,0.6l0.2,0.7l1.4-0.1l0.8,3.2l4.3,2.4l4.4,1.2l4.4,1l1.4-0.8l5.9-3.8l-0.9-0.7l0.6-1
	l-0.6-1l1.9-0.5l-0.1-1l1.2-2.2l0.7-1.7c0.5-2.4,2.8-5.5,2.8-5.5l1.4-0.5l0.1-1.4h0.9l-0.3,0.9l1.2-0.2l0.1-1.2l0.9-0.2l0.1-0.8
	l-1.1-0.2l0.5-1.5l1.2,0.5l0.2,0.9l0.8-0.2l-0.2-1.4l0.6-0.8l-1.2-0.7l0.1-1c0,0-1.9-0.5-1.9-0.4s2-1.9,2-1.9l0.6,1.2l1.5-1.5
	l-1.3-0.6l0.3-1.3l2.3-2.1l0.8,0.8l3.4-2l0.6,0.6l1.2-1l-0.5-1.2l1.1-0.2l0.3,1.3h0.5l0.2-1.7l1.2-0.2l-0.2,1.2l2.9-2l-0.9-0.4
	l0.6-1.2l0.9,0.3l0.3-0.5l0.9,0.5l-1.2,1.9h0.7l0.4-0.7l1.2,0.5l2.8,0.2l0.2,0.8l-2.7,0.2l1.1,0.7l2.4,0.1l1.9-1.2
	c0,0-0.9-2.5-1-2.5s0.8-0.9,0.8-0.9l-1.7-0.3l1-1.1l1.1-0.1l0.5-1.1l0.2-1.5l-0.9-0.4l-0.5,0.5l-0.6-0.4l0.2-1.2l-2.1-1.1l-2.9-1.5
	c-1.2-0.2-2.4-1-2.4-1c-1-2-2.9-2.1-2.9-2.1l-1.6-0.5l0.2-2.7l-0.9-0.7c-0.6-1.7,1.3-4.8,1.3-4.8c1.5-1,2.9-4.6,2.9-4.6l0.5-1.3
	l-0.5-0.7l0.8-2.9l3.3-1.2l1.2,0.6l1.8-2.2l1.9-0.8l0.1,0.7l-0.7,0.7c0,0-0.9,2.9-1.6,3.7c0,0-0.3,3.6-0.2,3.6c0,0,2.8,1.8,0.6,6.1
	c0,0,2.5,2.9,4.9,2.6c0,0,0.8-0.9-1.7-2.8c0,0-0.9-1.6,0.4-4.5l0.7-1l0.4-1.1h0.4v0.8l-0.2,0.8l-0.5,0.6v1.2c0,0,1-0.7,2,1.9
	c0,0,0.1,0.7,1.8,0.2l3.7,0.1c0,0,0.4,0.6,0.3,0.6h0.5c0,0-0.1-2.4,2.1-1.9l0.8,0.2c0,0,1.5-0.8,2.2,1.2l-0.4,0.5l-0.1,1.4l1,0.2
	v0.5h-1.1v1.4l-0.5,0.2v-2l-0.4-0.1l-0.9,0.6l0.2,0.6c0,0-1.1,0.5-1.2,0.6l-0.6,0.8l-0.2-0.4c0,0-1.6,1.1-1.6,1.2h-1.6l0.2,0.5
	c0,0-0.1,0.6-0.2,0.6c0,0-0.8-0.2-0.9-0.2l-0.6-1.1h-0.9c0,0-1.4,3.1-1.5,3.6l2.4-0.5h2.1c0,0,8.3-3.4,11-3.5l1.3-0.4l2.6,0.1
	c0,0,6.7,0.3,8.8,1.3c0,0,6-2.3,13.2,1.5c0,0,1.6,1,2.4,0.7c0,0-4-3.3,2.4-7.5l0.2-0.9l1.3-2l-0.5-1.3l1.6-2.9l2.1-1.3
	c0,0,2.6-0.1,3.3-1.5c0,0-1.8-1.8,0.6-3.3l0.5-0.1c0,0-1.1-2.6,3.6-2.4l1.9-1l3.7,0.9l1.9,1.2l1.7,1.9l-0.4,1.1l-3.7-0.3l-0.7,2.9
	l0.7,2.3c0,0-1.1,1.2-1.1,1.1s-0.1,1.1-0.1,1.1s0.7,0,0.7,0.1s-0.5,1.3-0.5,1.3l-0.2,1.1l0.3,0.9l0.1,0.6c-0.3-0.1-0.6-0.2,0.4,0.8
	l-1.2,1.2c0,0.1-0.1,1.5-0.1,1.5l1,0.3l0.7,1c-0.1,0-0.7,0.9-0.7,0.9s2.8,1.7,2.7,1.7c-0.1-0.1,2.6-1.3,2.6-1.3c-0.1,0,0.4-1,0.3-1
	s1.1-0.8,1.1-0.8s0.2,0.8,0.3,0.8c0.1,0,0.9,0,0.9,0l-0.2-2.2l0.7-1.8l1.1-0.9l0.5,0.1l0.6-1l0.6-1.3c0,0-0.1,2.8,0.1-1.5l2-1.2
	l0.4-2.2v-1.2l-1.3-0.8l-0.9-0.9l0.6-0.6l-0.2-1.7l-0.9-0.4l0.8-2.6l0.6-1.3l1.2-0.4c0,0-0.2-3.8-0.1-3.8s2.6-3.6,10.4-3.8l2,0.6
	c0,0,1.5,0.2,1.4,0.2s0.6-0.5,0.6-0.5l1.1,0.9l-0.1,1.2l1.2,1.7l0.9,0.2v0.8l-0.7-0.1v0.6l0.5,0.2l0.1,0.8l-0.5,0.5l0.1,0.8
	c0,0,2.3,0,2.3-0.1s0.2-0.6,0.2-0.6l-0.9-0.3c0,0-0.7-2.2,1.9-2.2l1.4-2l-0.5-0.5l-1.4-0.2l-0.8-0.9l-1.2-0.3v-0.6l0.6-0.3
	c0,0-0.8-0.5-0.9-0.6s0.9-0.5,0.9-0.5l-0.2-1.8c-0.8,0.3-0.7-2,0.7-1.2l0.3-1.5c-0.4,0.5-2.1-2,0.5-1.1l0.3-1.1l0.5,0.9l0.9-0.9
	l1.9-1l-0.1-1l-0.1-1.6l-0.2-1l1.2-1.2l2-1l1.1,0.7l1.2-0.9c0,0-0.5-0.8-0.5-0.9c-0.1-0.1,0.9-0.4,0.9-0.4l2.5,0.5
	c0-0.1,2.1,2.3,2.1,2.3c1.9,2.3-0.6,3-0.6,3c-0.5,2.9-5.8,5.1-5.8,5.1l0.7,1.9l-0.9,0.9c0-0.1-1.8-0.5-1.8-0.5l-0.2,1.6
	c0.1,0-1.5,1.1-1.5,1.1c2.6,0.5,2.9,4.3,2.9,4.3c-2.5-0.2-1.9,2.6-1.9,2.6c1.4,1.2,0.2,1.9,0.2,1.9l0.2,0.8l0.8,0.5l-1.2,0.9
	l0.4,1.5l1,0.5l0.1,1.5h-0.8l-2.9,1c3.1,0.6,2.6,2.4,2.6,2.4c5.2,1.1,5.1-2.2,5.1-2.2c-0.2-3.9,4.4-4.8,4.4-4.8
	c0.7-3.6,4.9-2.2,4.9-2.2l0.9-1.1h1.5c0,0,0.7-0.6,0.6-0.6s0.7,0.5,0.7,0.5l1.1-1.9l0.9,0.2l1-3.3l-0.5-0.2l0.5-3.1l-0.5-0.6
	c-0.4-12.1,11.3-16.5,11.3-16.5l1.2,0.5l3.5-0.9l1,0.9l0.2-1.8l-0.9-0.5l-0.9,0.2l-0.1-0.1l1-0.2l-1.1-1.4
	C432.7,420.8,434,412,434,412l0.9-0.2l1.4-2.9c-2.1-4.5,3.2-12.8,3.2-12.8c0-2.5,2.2-7.4,2.2-7.4l1.1-0.2l-0.5-1.5l0.1-0.8l0.3-0.6
	c1-1.6,4.3-1.9,4.3-1.9c1.1-0.7,2.1-2.9,2.1-2.9c-0.8-2.4,0.8-5,0.8-5c-0.3-0.8,0.4-6.1,0.4-6.1c2-5-0.1-22.2-0.1-22.2l-0.8-1.7
	l-0.2-2.2l-0.9-0.2l-1.1-2.6l-0.1-1c0,0-1.7-10.5,4.6-16.6l1.2-0.7l-0.5-1.3c0,0-2.4,1.7-0.5-1.4c0,0,2.1-2.5,2.8-0.2l0.8,1.5
	l0.4-1.7c0,0,2-2.8,7.2-2l0.1,1.1l1.7-0.4l1.2,1.1l-1,1l1.6,0.3l0.3,1.4l1.9,1.4l0.6-1.6c0,0-0.3-1.9-1.9-2.4c0,0,0.2-0.8,1.7-1
	c1.6-0.2-1-1.1-1-1.1l-1.2,0.7l-0.6-1.8l2.4-0.1l0.1-0.8l-1.7-0.2c0,0,1-1.7,0.2-2l0.8-0.3l0.9,1.2c0,0,0.5-2.3-0.3-2.7l-1.2,0.5
	l-1.1-1.6l2.4-1.9c0,0,0.1-1.2,0.1-1.1s-3-0.4-3-0.4v-1.2c0,0,2.4,0,3.1-1.7l1-0.1l0.1-1.2c0,0-3.6-2,0.3-3.4l0.9-0.6
	c-0.1,0-0.8-1.2-0.2-2.7c0,0,1,2.1,1.3,2.3c0.2,0.2,0.6-0.4,0.6-0.4l-0.5-2l1.6,1.3l-1.7-5.1v-1.5l1.5,0.2l1.2,2.8l0.9-0.7l-0.6-1.1
	l1.2-0.8l-1.4-1.5l1.3-1.4c0,0,0.4,1.4,0.5,1.4s3.6,0,3.6,0l-1.4-1.2l2.2-0.5l-1.9-0.5l-0.2-1.7c-0.1,0,2.2,1.2,2.2,1.2l1-1.1
	l-2.2-1.8c0,0,1.5-0.1,1.5-0.2c-0.1-0.1,1.1-1.2,1.1-1.2l-1.6-0.2c0,0,0-0.5,0-0.6s3-0.9,3-0.9l-0.1-1.2l-2.1-0.2l-0.2-0.9
	c0-0.1,1.2,0.2,1.2,0.2l0.2-0.8l-1.3-0.8l3.2-0.3c0,0-0.1-0.9,0-0.9s-0.9-0.1-0.9-0.1c-3.8,0.7-1.1-1.5-0.2-0.8l0.7-1.1l-1.1-0.2
	l1.4-1.7h2.3V274.1z"/>
<path d="M603.7,88.6c0.6,2.2,0.6,5.6,2.3,7.6c-0.2,0.2,2.2,4,6.8,4.9c0.2,0,6.2-5.7,6.2-5.7c2.6,1.3,5.5,0.4,5.6,0.4
	c0.2,0,0.1,2.7-6.5,2.8c0,0.3-1.2,1.5-1.2,1.5l-1.1,0.2c0,0-1,3.8-1.3,4.8c-3.1-0.1-4.7-1-11.9,1.9c0.2,0-2.8-2.3-4,3.9
	c0.6-0.2-2.1,1-2.1,1s-0.2,1.3-1.2,1.7c-2.1,0.9-5.8,0.9-5.7-2.6c-0.2,0.2-3.2-0.9-4.2,3.1c0,0.2,2.2,1.9,2.2,1.9
	c-0.1,0.5-9.9-0.8-9.9-0.6c0.2,0.6-2.6,0.8-6.2-2c-12.1,0.2-20.1,9.4-25.7,14.8c-5.6,5.4-11.2,14.1-12.1,18.9
	c0.1,0.1,1.3,2.2,1.3,2.2l-1.1,6.1c0,0-2,2-2.3,5.7c0,0.2-3.1-2.3-3.1-2.3s-0.9-1.4-0.9-1.5c0-0.2-7.1-4.8-7.3-4.8s-3.6,0.2-7.1-2.6
	c0.3,0-2.5-0.9-2.5-0.9l-6.8-2.9l-1.9-1.7h-1.1c0,0-5.9-3.4-7.7-6.3c-1.2-1.1-4.5-0.8-5.7-1.7s-5.3-6.8-16.5-6
	c-8,2.6-10.5,5.5-13.4,7.6c0.6,0-3.7,0.8-7,6.2c0,1.3-1.7,0.2-1.7,0.2s-1-0.9-1.2-1.2c-0.3-0.8-0.8-1.2-0.8-1.2s-0.9-5-2.4-4.7
	c0.6,0.3-2.2-1.5-2.2-1.5s-0.6-5.6-7.3-2.8c0,0.2-2.2-1.7-4.3-0.9c0.3,0.2-7,4.8-6.6,15.1c0.3,0.9,1.9,1.2,3.9,0.6
	c0,0.5,6.2,5.7,6.2,5.7s5.9-1.4,6-1.2c0.2,0.2,1.1,0.8,1.1,0.8s2,1.9,1.9,1.9c-0.2,0,0.3,2.6,3.2,3.9c-0.3,0.2,3.6,5.6,6.2,4.5
	c-0.2,0.3,2.9,1.7,3.1,1.7s0.5,1.1,0.3,1.1s0.9,1.2,1.1,1.2s-1.5,0.8-3.1,0.8c0.2,0.3-0.5,2.9-4.8,3.2c0.2,0.3-3.4-2.6-4.8-2.2
	c-0.5,0.2-2.6-0.6-2.9-0.6c-0.4,0.1-2.3,2.1-2,1.7c2.1-3.8-3.2-5.8-3.4-1c-1,1.4-2.7,2.3-2.7,2.3s-4.6-0.2-3.9,3.6
	c0,0.5,0,4.3,0,4.3l-1.8,0.8c0,0-4.6,0.6-6.6,5.2c0.2,0-2.3-2.2-4.2-1.1c0.7,0.5-7.8-5.2-0.6-15.5c0.2-0.3,0.3-1.9,0.3-1.9h1.1
	c0.4-0.1,3.6-8.5-3.2-13.8c0.2,0.3-3.7-1.1-3.7-1.1l-1.9-3.6L407,148c0,0-1.5-0.9-1.4-1.1c0.2-0.2,0.2-1.9,0.2-1.9l-0.5-1.2l0.7-1.4
	c-0.1-0.3,3.8,0,1.5-11.7c0.3,0.6-0.2-3.5,6.5-3.6c2.1,0,2-0.3,2.6-1.7c1-0.1,2.3-1.4,2.3-1.4l1.7-2.9l1.8,1.4
	c-0.3,1.9,3.4,1.6,2.5-1.1c0,0,2.6-3,2.6-3.1s0.3-1.2,0.3-1.2c0,0.1,1.3-1.1,4.9-3.4c-0.3,0,0.3-1.4,0.3-1.4l-4-5.7
	c0,0-4.8-2.4-2.6-5.4c0.1-0.6,0.2-2,0.5-2.7c0.2,0,1.6,0.3,2.9-0.3c1.2-0.6,0.8-1.9,2.2-2.1c0,0,2.9,3.7,4.5,3.9c0,0,3,3.1,5.6,3.1
	c0.2,0.2,0,3.1,2.9,0.8c0.7,0.9,3.7-1.3,5.9-1.1c0,0.2-0.9,1.7,0.6,2.2c0,0.2,4.5,1.9,4.5,1.9c0,0.1,8.9-2.6,10-11.4
	c0.2,0.5-2.8-5.4-2.8-5.4s1.9-2.5,0.2-4.6c-0.3-0.9-0.4-1.7-0.6-1.9c0,0-2.2-6.2,6.2-8.2c0,0,4.6-0.6,5.4-8.5
	c0.5,0.5-0.6-12.4-0.6-12.4s5.4-5.7,4.3-10.8c0.3,0.6,3.4-9.6-7.4-28.6c0.5-0.2,0-2,0-2s1.9-0.3,1.7-3.7c0,0.6,1.9-2.3,1.9-2.3
	L473.4,6l-0.5-1.5l0.6-1.1c0,0,1.4,2.3,3.6,1.7c0,0.2,4.5,1.2,4.9-4.6c0.3-0.2,2.3-0.5,2.3-0.5l1.2,2.3l2.2,2.6l5.1,3.4
	c0,0,8.2,10.2,11.4,12.7c3.2,2.5,1.9,7.4,11.7,16.2c9.9,8.8,13.4,11.6,19.3,14.5c0.3,0.2,0.6,6.2,31.1,11.7c0.2,0.3,1.8,0.1,1.8,0.1
	c0.2,2.7-0.1,3.8,1.6,5.4c0,0,5.8,4.2,17.2,2.7c1.9-1.1,13.3-11.5,14.1-11.8c0,0.2,2.2-1.6,2.2-3.1c1.8-0.8,2.6-2.3,3.7-4.2
	c0.7,0.4,1.5,3.6,1.4,3.6c-0.2,0.4-0.6,3.9-4,6.3c0.2,0.3-0.6,2.8-0.6,2.9c0,0.2-4.6,4.6-5.3,8.3c0.2,0.3,0,1.4,0,1.4l-1.2,2.2
	c0,0,0.6,3.2,3.1,6.5c-0.2,0.2,1.9,1.3,1.9,1.3s4,0.7,5.2,1.6c0,0,1.1,1,0,1.7l-1.9-0.1l1.1-0.7v-0.8l-2.6-0.2l0.6-0.5l-2.1-0.6
	l-0.2,0.8l0.8,0.5C603.2,87,603.1,86.4,603.7,88.6z"/>
<path d="M457.4,11.8l2.7,1c0,0,2.3,2.4,1.9,3.9c-0.5,1.5-3.7,1.7-3.7,1.9c0,0.1-2.9-1.4-3.4-3.5S457.4,11.8,457.4,11.8z
	"/>
<path d="M452,3.6v5.8l-0.7,1.6l-0.7-0.5l0.1-1.5c0,0-1.5-2.4-1.2-4.8C449.7,4.4,452,3.6,452,3.6z"/>
<path id="niigata" d="M329.1,383.1c0,0,9.4-2.9,11.8-5.4l1.2-0.2l2.7-2.9c0,0,1.4,1.1,5,0.2c0,0,6.6-5.5,6.7-6.2
	l0.3-0.7l3.9-1.9c0,0,2.6-3.9,2.7-4.6l-0.1-0.6l0.8-0.2l1.2-1.8l1.6-1.2c-0.1-0.2,1.9-2.3,2.6-6.9l1.2-3.6c0,0,2-2.8,2.6-2.8
	l7.2-4.7l1.8-0.3c0,0,6-0.9,10.7-10l-0.2-0.7l0.5-1.2l0.5-6.9c0,0,0.5-2.2,1.5-3.2l0.7-2.4l1.2-1.8l1.8,1l1.7,0.6l2.8,0.8l-0.2,4.6
	l1.5,1.5h2.5l2.9,3.2l-1.5,2.4l-2.8,1.7l-2.6-0.6l-1,1.9l0.2,4.9l-1,0.9l-0.8,4.4l-0.5,1l1.1,2.1l1.9,0.8l1.1,1.2l-2.9,3.1l-1.7,3.3
	l-2.2,1.3l-0.1,2.2l1.3,3.3l-0.7,1.2l-5-0.7l-1.2,2.7l-6.5,0.5l-0.5,2l0.9,0.5v2.2l-2.3,4.7l1.2,1.5l0.9-0.4l1.3,2l-0.9,3.1l0.8,2.5
	l-0.5,4l-2.3-0.8l-0.1-1.3l-2.9-2.8l-0.5,1.9l-1.4,1.3l-2.8,0.4l0.4,4.1l-1.1-0.5l-0.9,0.9l0.2,2l-3.6,0.8l-0.2,2.3l-1.5,0.8
	l-2.2-0.7l-0.2,1l-0.9,0.1v-1.2l-0.9-0.7l1.1-1.8l-0.2-1.9l-3.3-1.8l-0.6-4.2l-2.2-1.6l-4.7,1.2l-1.5,3.5l-1.6,0.2l-0.9,2.9
	l-7.1,1.1l-0.7,1.5l-2.2-1.3l0.7-3.1l-5.9-0.8l0.5,2.4l-3,3.6l-1.1,0.6l-0.3-1.5c0,0-0.6-1-0.6-1.1v-2l-0.6-0.6l-0.2-2.5l-1.7-0.3
	l-1-1.4L329.1,383.1z M358.8,322.9l1.3,0.1l-0.4,0.9l-0.1,2.8l-0.5,0.6l-0.1,1.4c0,0-5.5,8,1.7,5.6c2.1-1.1,1,1.1,0.7,2.1l-0.2,0.8
	c0,0-1.9,2.3-1.6,4.2l-0.7,0.2l-1.5,1.5h-0.5l-2.3,2.1l-2.3,0.4c0,0-2.7,2-3.7,0.1c0.7-1,0.7-0.6,2.1-1.1c0,0,0.9-1,1.1-2.2
	c0,0-0.6-0.7-0.5-0.7s0.9-1.2,0.9-1.2s1.3-0.2,1.5-1.6l-1.3-1.4c0,0-1.8-0.4-1.7,1.8l-1-0.7l0.4-4.8l2.3-3.1c0,0,2.5-3.9,4.8-4.6
	l0.1-1.2l0.9-1.6L358.8,322.9z"/>
<g id="horn">
	<g>
		<path d="M369.7,368c-0.1,0.1-0.2,0.2-0.3,0.2c-0.1,0.1-0.2,0.1-0.3,0.1c-0.1,0-0.1-0.1-0.1-0.1c0,0,0,0,0-0.1
			c0-0.1,0.1-0.1,0.1-0.2c0.1-0.1,0.1-0.1,0.2-0.2c0,0,0,0,0,0c0,0,0-0.1-0.1-0.1c0,0,0,0,0,0c-0.1,0.1-0.2,0.1-0.3,0.2
			c-0.1,0-0.2,0.1-0.3,0.1c-0.1,0-0.1-0.1-0.1-0.1c0-0.1,0.1-0.2,0.2-0.3c0,0,0.1-0.1,0.1-0.1c0,0,0,0,0.1,0c0,0,0,0,0-0.1
			c0,0,0,0,0-0.1c0,0,0,0,0,0c-0.1,0.1-0.2,0.1-0.3,0.2c-0.1,0-0.2,0.1-0.3,0.1c-0.1,0-0.1-0.1-0.1-0.1c0-0.1,0-0.1,0.1-0.2
			c0.1-0.1,0.1-0.1,0.2-0.2c0,0,0.1-0.1,0.1-0.1c0,0,0,0,0,0c0-0.1-0.1-0.2-0.2-0.3c0-0.1-0.1-0.1-0.1-0.2c0,0,0-0.1,0-0.1
			c0-0.1-0.1-0.2-0.1-0.3c0-0.1,0-0.1,0-0.2c0-0.1,0-0.1-0.1-0.2c0,0,0-0.1,0-0.1c0-0.1,0-0.1,0-0.2c0-0.2,0-0.3,0-0.5
			c0-0.1,0-0.1,0-0.2c0-0.1,0-0.2,0-0.3c0-0.1,0-0.1,0-0.2c0-0.1,0-0.2,0.1-0.3c0-0.1,0-0.1,0.1-0.2c0-0.1,0.1-0.2,0.1-0.3
			c0,0,0-0.1,0.1-0.1c0-0.1,0.1-0.1,0.1-0.2c0-0.1,0.1-0.1,0.1-0.2c0.1-0.1,0.1-0.2,0.2-0.2c0.1-0.1,0.1-0.2,0.2-0.2
			c0.1-0.1,0.1-0.1,0.2-0.2c0,0,0.1-0.1,0.1-0.1c0.1,0,0.1-0.1,0.2-0.1c0.1,0,0.1-0.1,0.2-0.1c0,0,0.1,0,0.1-0.1
			c0.1,0,0.1-0.1,0.2-0.1c0,0,0.1,0,0.1-0.1c0,0,0.1,0,0.1,0c0.1,0,0.1-0.1,0.2-0.1c0.1-0.1,0.2-0.1,0.3-0.2c0.1,0,0.2-0.1,0.3-0.1
			c0.1,0,0.2-0.1,0.2-0.1c0.1,0,0.2-0.1,0.3-0.1c0.1,0,0.2-0.1,0.3-0.1c0.1,0,0.2-0.1,0.3-0.1c0.1,0,0.2-0.1,0.3-0.1
			c0.1,0,0.2-0.1,0.3-0.1c0.1-0.1,0.3-0.1,0.4-0.2c0.1,0,0.2-0.1,0.2-0.1c0.1-0.1,0.2-0.1,0.3-0.2c0.1,0,0.1-0.1,0.2-0.1
			c0.1-0.1,0.2-0.2,0.3-0.3c0.1-0.1,0.2-0.2,0.2-0.3c0-0.1,0.1-0.2,0.1-0.2c0,0,0,0,0,0c0,0.1,0,0.1,0,0.2c0,0.1,0,0.2,0.1,0.3
			c0,0.1,0,0.2,0.1,0.3c0,0.1,0,0.1,0,0.2c0,0.1,0,0.1,0,0.2c0,0.1,0,0.2,0,0.3c0,0.1,0,0.1,0,0.2c-0.1,0-0.2,0-0.2,0
			c-0.1,0-0.2,0-0.2,0.1c0,0-0.1,0-0.2,0c-0.1,0-0.2,0-0.3,0.1c-0.1,0-0.1,0-0.2,0c-0.1,0-0.2,0-0.2,0c-0.1,0-0.1,0-0.2,0
			c-0.1,0-0.2,0-0.2,0c-0.1,0-0.1,0-0.2,0c-0.1,0-0.2,0-0.3,0c0,0,0,0,0,0.1c0,0,0,0,0,0.1c0.1,0,0.2,0,0.2,0c0.1,0,0.1,0,0.2,0
			c0.1,0,0.2,0,0.2,0c0.1,0,0.2,0,0.3,0c0.1,0,0.2,0,0.3-0.1c0,0,0.1,0,0.1,0c0.1,0,0.2,0,0.2,0c0.1,0,0.1,0,0.2,0
			c0.1,0,0.2,0,0.2-0.1c0,0,0.1,0,0.1,0c0,0,0,0,0.1,0c0,0,0,0,0,0c0,0.1,0,0.1,0,0.2c0,0,0,0,0,0.1c0,0.1,0,0.2,0,0.3
			c0,0.1,0,0.2,0,0.2c0,0.1,0,0.1,0,0.2c0,0.1,0,0.2,0,0.2c0,0.1,0,0.2,0,0.2c0,0,0,0.1,0,0.1c0,0,0,0,0,0c-0.1-0.1-0.2-0.1-0.2-0.2
			c0,0-0.1,0-0.1-0.1c-0.1-0.1-0.2-0.1-0.3-0.2c-0.1,0-0.1,0-0.2-0.1c-0.1,0-0.1-0.1-0.2-0.1c-0.1,0-0.1,0-0.2-0.1
			c-0.1,0-0.2-0.1-0.4-0.1c-0.1,0-0.2,0-0.3,0c-0.2,0-0.4,0-0.5,0c-0.1,0-0.2,0-0.3,0c-0.1,0-0.2,0-0.3,0c-0.1,0-0.2,0-0.2,0
			c-0.1,0-0.2,0.1-0.3,0.1c-0.1,0-0.1,0-0.2,0c-0.1,0-0.2,0.1-0.3,0.1c-0.1,0-0.2,0.1-0.3,0.1c-0.1,0-0.1,0.1-0.2,0.1
			c-0.1,0-0.2,0.1-0.3,0.2c0,0-0.1,0-0.1,0.1c-0.1,0-0.1,0.1-0.2,0.1c-0.1,0.1-0.1,0.1-0.2,0.2c0,0-0.1,0.1-0.1,0.1
			c-0.1,0.1-0.1,0.1-0.2,0.2c0,0-0.1,0.1-0.1,0.1c-0.1,0.1-0.1,0.2-0.2,0.2c-0.1,0.1-0.2,0.3-0.3,0.4c0,0.1,0,0.1-0.1,0.2
			c0,0.1-0.1,0.2-0.1,0.3c0,0.1,0,0.2-0.1,0.3c0,0.1,0,0.1,0,0.2c0,0,0,0,0,0c0,0.1,0,0.2,0,0.4c0,0.1,0,0.2,0,0.4
			c0,0.1,0,0.1,0,0.2c0,0.1,0,0.2,0.1,0.3c0,0.1,0,0.2,0.1,0.2c0.1,0.1,0.1,0.3,0.2,0.4c0,0,0,0,0,0c0.1,0,0.1-0.1,0.2-0.1
			c0,0,0,0,0,0c0,0,0,0,0,0c0,0,0,0,0.1,0c0,0,0.1,0,0.1-0.1c0,0,0,0,0-0.1c-0.1-0.1-0.1-0.1-0.1-0.2c0-0.1,0-0.1,0-0.2c0,0,0,0,0,0
			c0,0-0.1-0.1-0.1-0.1c0,0-0.1-0.1-0.1-0.1c-0.1-0.1-0.1-0.1-0.2-0.2c0-0.1-0.1-0.1-0.1-0.2c0-0.2,0-0.3,0-0.5c0-0.1,0-0.2,0-0.3
			c0,0,0-0.1,0-0.1c0-0.1,0-0.1,0-0.2c0-0.1,0-0.2,0.1-0.2c0-0.1,0.1-0.2,0.1-0.2c0-0.1,0.1-0.2,0.2-0.3c0.1-0.1,0.1-0.2,0.2-0.2
			c0,0,0.1-0.1,0.1-0.1c0-0.1,0.1-0.1,0.1-0.2c0.1-0.1,0.1-0.1,0.2-0.1c0,0,0.1-0.1,0.1-0.1c0,0,0,0,0.1,0c0.1,0,0.1-0.1,0.2-0.1
			c0.1-0.1,0.3-0.1,0.4-0.2c0,0,0.1,0,0.1-0.1c0.1,0,0.1-0.1,0.2-0.1c0.1,0,0.1,0,0.2-0.1c0.1,0,0.3,0,0.4-0.1c0.1,0,0.3,0,0.4,0
			c0.1,0,0.2,0,0.3,0c0.1,0,0.2,0,0.3,0c0.1,0,0.2,0,0.3,0.1c0.1,0,0.2,0.1,0.3,0.1c0.1,0,0.1,0.1,0.2,0.1c0.1,0,0.1,0.1,0.2,0.1
			c0,0,0.1,0,0.1,0.1c0.1,0,0.1,0.1,0.2,0.1c0.1,0.1,0.2,0.1,0.3,0.2c0.1,0.1,0.1,0.1,0.2,0.2c0,0,0.1,0.1,0.1,0.1
			c0.1,0.1,0.1,0.2,0.2,0.3c0,0.1,0.1,0.2,0.2,0.3c0,0.1,0.1,0.1,0.1,0.2c0,0.1,0.1,0.2,0.1,0.2c0,0,0,0.1,0,0.1c0,0,0,0.1,0,0.1
			c0,0.1,0,0.1,0,0.2c0,0.1,0,0.2,0,0.3c0,0.2,0,0.3,0,0.5c0,0.1,0,0.1,0,0.2c0,0.1,0,0.2,0,0.3c0,0.1,0,0.1,0,0.2
			c0,0.1,0,0.2-0.1,0.3c0,0.1-0.1,0.2-0.1,0.3c0,0.1-0.1,0.2-0.1,0.3c-0.1,0.1-0.1,0.2-0.2,0.4c0,0.1-0.1,0.1-0.2,0.2
			c-0.1,0.1-0.1,0.1-0.2,0.2c-0.1,0.1-0.2,0.1-0.2,0.2c0,0-0.1,0.1-0.1,0.1c0,0-0.1,0.1-0.1,0.1c-0.1,0.1-0.2,0.1-0.3,0.2
			c-0.1,0-0.2,0.1-0.3,0.1c-0.1,0-0.2,0.1-0.3,0.1c-0.1,0-0.2,0-0.2,0.1c-0.1,0-0.2,0-0.2,0c-0.3,0.1-0.5,0-0.8,0
			c-0.1,0-0.2,0-0.2,0c-0.1,0-0.1,0-0.2,0c-0.1,0-0.1,0-0.2,0c-0.1,0-0.2,0-0.3-0.1c-0.1,0-0.2-0.1-0.2-0.1c-0.1,0-0.2-0.1-0.2-0.1
			c-0.1,0-0.1-0.1-0.2-0.1C369.8,368.1,369.7,368.1,369.7,368C369.7,368.1,369.7,368,369.7,368z M369.5,365.7c0,0,0-0.1,0.1-0.1
			c0-0.1,0.1-0.1,0.1-0.2c0,0,0.1-0.1,0.1-0.1c0,0,0,0,0,0c0,0,0.1,0,0.1-0.1c0.1-0.1,0.1-0.1,0.2-0.2c0.1-0.1,0.1-0.1,0.2-0.1
			c0,0,0.1-0.1,0.1-0.1c0.1-0.1,0.2-0.1,0.2-0.2c0.1-0.1,0.2-0.2,0.3-0.2c0.1-0.1,0.2-0.1,0.2-0.2c0,0,0-0.1,0-0.1c0,0,0,0-0.1,0
			c0,0,0,0-0.1,0c-0.1,0-0.2,0.1-0.3,0.1c-0.1,0-0.1,0.1-0.2,0.1c0,0-0.1,0-0.1,0c-0.1,0-0.1,0.1-0.2,0.1c-0.1,0-0.2,0.1-0.3,0.1
			c-0.1,0-0.1,0-0.1-0.1c0,0,0-0.1-0.1-0.1c0-0.1,0-0.2,0-0.3c0-0.1,0-0.1,0.1-0.2c0-0.1,0-0.1,0.1-0.1c0-0.1,0.1-0.1,0.1-0.2
			c0-0.1,0.1-0.1,0.1-0.2c0.1-0.1,0.2-0.2,0.3-0.3c0.1-0.1,0.2-0.1,0.4-0.2c0.1,0,0.2-0.1,0.3-0.1c0.1,0,0.2,0,0.3,0
			c0.1,0,0.1,0,0.2,0.1c0.1,0.1,0.2,0.1,0.3,0.2c0.1,0.1,0.1,0.2,0.2,0.2c0.1,0.1,0.1,0.2,0.1,0.3c0,0.1,0,0.2,0,0.3
			c0,0.1-0.1,0.2-0.2,0.3c-0.1,0.1-0.1,0.2-0.2,0.2c-0.1,0.1-0.1,0.1-0.2,0.2c-0.1,0.1-0.1,0.1-0.2,0.2c0,0-0.1,0.1-0.1,0.1
			c-0.1,0.1-0.1,0.1-0.2,0.2c-0.1,0.1-0.2,0.1-0.2,0.2c-0.1,0.1-0.1,0.1-0.2,0.2c-0.1,0.1-0.2,0.1-0.2,0.2c-0.1,0.1-0.1,0.1-0.2,0.2
			c0,0-0.1,0.1-0.1,0.1c0,0,0,0,0,0.1c0,0,0,0.1,0,0.1c0,0.1,0.1,0.2,0.1,0.1c0,0,0-0.1,0.1-0.1c0,0,0-0.1,0.1-0.1
			c0,0,0.1-0.1,0.2-0.1c0.1-0.1,0.1-0.1,0.2-0.2c0.1-0.1,0.1-0.1,0.2-0.2c0.1-0.1,0.1-0.1,0.2-0.2c0.1-0.1,0.1-0.1,0.2-0.2
			c0.1-0.1,0.1-0.1,0.2-0.2c0,0,0.1-0.1,0.2-0.1c0.1,0,0.3,0,0.4,0.1c0.1,0.1,0.1,0.2,0.1,0.3c0,0.1,0,0.2-0.1,0.2
			c0,0-0.1,0.1-0.1,0.1c-0.1,0.1-0.1,0.1-0.2,0.2c-0.1,0.1-0.1,0.1-0.2,0.2c-0.1,0.1-0.2,0.2-0.3,0.3c0,0-0.1,0.1-0.1,0.1
			c-0.1,0.1-0.1,0.1-0.2,0.2c0,0,0,0-0.1,0c-0.1,0-0.1,0.1-0.2,0c0,0,0,0,0,0c0,0,0,0,0,0.1c0,0,0,0.1,0.1,0c0,0,0,0,0,0
			c0,0,0,0,0.1,0c0,0,0.1,0,0.1,0c0,0,0,0,0,0c0,0,0.1-0.1,0.1-0.1c0.1,0,0.1-0.1,0.2-0.1c0.1,0,0.1-0.1,0.1-0.1
			c0.1-0.1,0.1-0.1,0.2-0.2c0.1-0.1,0.1-0.1,0.2-0.2c0.1-0.1,0.1-0.1,0.2-0.2c0.1,0,0.1-0.1,0.2-0.1c0.1,0,0.1-0.1,0.2-0.1
			c0,0,0.1-0.1,0.1-0.1c0,0,0.1-0.1,0.1-0.1c0.1-0.1,0.2-0.1,0.2-0.2c0.1-0.1,0.2-0.1,0.3-0.2c0.1,0,0.2,0,0.3,0
			c0.1,0,0.1,0.1,0.2,0.1c0.1,0.1,0.2,0.1,0.2,0.2c0.1,0.1,0.1,0.3,0.1,0.4c0,0.1,0,0.3,0,0.4c0,0.1-0.1,0.2-0.1,0.3
			c-0.1,0.1-0.1,0.2-0.2,0.3c-0.1,0.1-0.1,0.2-0.2,0.2c-0.1,0.1-0.2,0.1-0.3,0.2c-0.1,0-0.2,0-0.2-0.1c0,0-0.1-0.1-0.1-0.2
			c0-0.1,0-0.1,0-0.2c0-0.1,0.1-0.1,0.1-0.2c0-0.1,0.1-0.2,0.1-0.2c0,0,0-0.1,0-0.1c-0.1,0-0.1,0.1-0.2,0.1c0,0-0.1,0.1-0.1,0.1
			c-0.1,0-0.1,0.1-0.2,0.1c0,0-0.1,0-0.1,0.1c0,0-0.1,0.1-0.1,0.1c0,0-0.1,0.1-0.1,0.1c0,0-0.1,0.1-0.1,0.1
			c-0.1,0.1-0.1,0.1-0.2,0.2c-0.1,0.1-0.2,0.2-0.4,0.3c0,0-0.1,0.1-0.1,0.1c-0.1,0-0.1,0-0.2,0.1c0,0,0,0,0,0c0,0,0.1,0.1,0.1,0.1
			c0,0,0.1,0.1,0.1,0.1c0,0,0.1,0,0.1,0c0.1,0,0.1,0.1,0.2,0.1c0.1,0,0.2,0,0.3,0c0.1,0,0.3,0,0.4-0.1c0.1,0,0.1,0,0.2-0.1
			c0.1,0,0.2-0.1,0.3-0.1c0,0,0,0,0,0c0.1,0,0.1-0.1,0.2-0.1c0.1,0,0.1-0.1,0.2-0.1c0.1,0,0.1-0.1,0.2-0.1c0,0,0.1-0.1,0.1-0.1
			c0.1-0.1,0.1-0.1,0.1-0.2c0-0.1,0.1-0.1,0.1-0.2c0-0.1,0.1-0.1,0.1-0.2c0.1-0.1,0.1-0.2,0.1-0.3c0-0.1,0-0.1,0.1-0.2
			c0-0.1,0-0.2,0.1-0.2c0-0.1,0-0.2,0-0.2c0-0.2,0-0.3,0-0.5c0-0.1-0.1-0.3-0.2-0.4c-0.1-0.1-0.1-0.1-0.2-0.1c-0.1,0-0.2,0-0.3,0.1
			c-0.1,0-0.2,0.1-0.2,0.1c-0.1,0.1-0.3,0.2-0.4,0.3c-0.1,0-0.1,0.1-0.2,0.1c-0.1,0.1-0.1,0.1-0.2,0.2c0,0-0.1,0.1-0.1,0.1
			c0,0,0,0,0,0c0-0.1,0-0.1,0-0.2c0,0,0-0.1,0-0.1c0,0,0.1-0.1,0.1-0.1c0,0,0.1-0.1,0.1-0.1c0.1-0.1,0.2-0.1,0.2-0.2
			c0,0,0.1-0.1,0.1-0.1c0.1,0,0.1-0.1,0.2-0.1c0,0,0.1-0.1,0.1-0.1c0.1,0,0.1-0.1,0.2-0.1c0.1,0,0.1,0,0.2,0c0.1,0,0.1,0,0.2,0
			c0.1,0,0.1,0,0.2,0c0,0,0.1,0,0.2,0.1c0.1,0.1,0.1,0.1,0.2,0.2c0.1,0.1,0.2,0.3,0.2,0.5c0,0.1,0,0.2,0,0.3c0,0.1,0,0.3,0,0.4
			c0,0.1,0,0.2-0.1,0.4c0,0.1-0.1,0.2-0.1,0.2c0,0.1-0.1,0.2-0.2,0.4c-0.1,0.2-0.2,0.3-0.3,0.5c-0.1,0.1-0.2,0.1-0.2,0.2
			c-0.1,0.1-0.2,0.1-0.3,0.2c-0.1,0.1-0.2,0.1-0.3,0.2s-0.2,0.1-0.3,0.1c-0.1,0-0.2,0.1-0.3,0.1c-0.1,0-0.1,0-0.2,0
			c-0.1,0-0.3,0-0.4,0c0,0-0.1,0-0.1,0c-0.1,0-0.2,0-0.2,0c-0.1,0-0.2-0.1-0.3-0.1c0,0,0,0,0,0c-0.1-0.1-0.2-0.2-0.2-0.3
			c0,0-0.1,0-0.1,0c0,0-0.1,0-0.1,0c-0.1,0-0.2-0.1-0.2-0.1c0,0-0.1,0-0.1,0.1c-0.1,0-0.1,0.1,0,0.1c0,0,0,0,0,0.1
			c0,0-0.1,0.1-0.1,0.1c0,0,0,0-0.1,0c0.1,0,0.1,0.1,0.2,0.1c0.1,0,0.2,0.1,0.2,0.1c0,0,0.1,0,0.1,0.1c0.1,0,0.2,0.1,0.3,0.1
			c0.1,0,0.2,0,0.2,0c0.1,0,0.2,0,0.3,0c0.2,0,0.3,0,0.5,0c0.1,0,0.2,0,0.3,0c0.1,0,0.1,0,0.2,0c0.1,0,0.1,0,0.2-0.1c0,0,0,0,0.1,0
			c0,0,0.1,0,0.1-0.1c0.1,0,0.1,0,0.2-0.1c0.1,0,0.2-0.1,0.3-0.1c0.1-0.1,0.2-0.1,0.3-0.2c0.1-0.1,0.2-0.2,0.3-0.2
			c0.1-0.1,0.1-0.1,0.2-0.2c0,0,0.1-0.1,0.1-0.1c0-0.1,0.1-0.1,0.1-0.2c0-0.1,0.1-0.1,0.1-0.2c0-0.1,0.1-0.1,0.1-0.2
			c0,0,0-0.1,0-0.1c0-0.1,0.1-0.2,0.1-0.3c0-0.1,0-0.1,0-0.2c0-0.1,0-0.2,0.1-0.2c0-0.1,0-0.2,0-0.2c0-0.3,0-0.5,0-0.8
			c0,0,0-0.1,0-0.1c0-0.1,0-0.2-0.1-0.3c0-0.1,0-0.1-0.1-0.2c0-0.1-0.1-0.2-0.2-0.3c0,0,0-0.1,0-0.1c0,0-0.1-0.1-0.1-0.1
			c0-0.1-0.1-0.1-0.1-0.2c0,0-0.1-0.1-0.1-0.1c0-0.1-0.1-0.1-0.1-0.2c-0.1,0-0.1-0.1-0.2-0.1c-0.1-0.1-0.2-0.1-0.2-0.2
			c-0.1-0.1-0.2-0.1-0.3-0.2c-0.1-0.1-0.2-0.1-0.3-0.1c-0.1,0-0.2-0.1-0.2-0.1c-0.1,0-0.2,0-0.3,0c-0.1,0-0.2,0-0.2,0
			c0,0-0.1,0-0.1,0c-0.1,0-0.1,0-0.2,0c-0.1,0-0.2,0-0.2,0c-0.1,0-0.2,0-0.2,0.1c-0.1,0-0.1,0-0.2,0.1c-0.1,0-0.2,0.1-0.2,0.1
			c-0.1,0-0.1,0.1-0.2,0.1c-0.1,0.1-0.2,0.1-0.3,0.2c-0.1,0.1-0.2,0.2-0.4,0.3c-0.1,0.1-0.1,0.1-0.2,0.2c0,0-0.1,0.1-0.1,0.2
			c0,0.1-0.1,0.2-0.1,0.3c0,0.1-0.1,0.1-0.1,0.2c0,0.1-0.1,0.2-0.1,0.3c0,0.1,0,0.1,0,0.2c0,0.1,0,0.2,0,0.2c0,0.1,0,0.3,0,0.4
			c0,0,0,0.1,0,0.1c0,0,0.1,0.1,0.1,0.1C369.3,365.5,369.4,365.6,369.5,365.7C369.4,365.7,369.5,365.7,369.5,365.7z M369.8,364.3
			c0.1,0,0.2-0.1,0.3-0.1c0,0,0.1,0,0.1,0c0.1,0,0.1-0.1,0.2-0.1c0.1,0,0.1-0.1,0.2-0.1c0.1-0.1,0.2-0.1,0.3-0.1c0.1,0,0.2,0,0.3,0
			c0.1,0,0.1,0,0.2,0.1c0.1,0.1,0,0.2,0,0.2c0,0,0,0,0,0.1c0,0.1-0.1,0.1-0.1,0.2c-0.1,0.1-0.2,0.2-0.2,0.3c0,0-0.1,0.1-0.1,0.1
			c-0.1,0.1-0.1,0.1-0.2,0.2c-0.1,0.1-0.1,0.1-0.2,0.1c-0.1,0.1-0.2,0.2-0.3,0.3c-0.1,0.1-0.1,0.1-0.2,0.2c-0.1,0.1-0.1,0.2-0.2,0.2
			c0,0,0,0.1,0,0.1c0,0,0,0,0,0c0,0,0,0,0,0c0.1-0.1,0.1-0.1,0.2-0.2c0.1-0.1,0.1-0.1,0.2-0.2c0.1-0.1,0.1-0.1,0.2-0.1
			c0.1,0,0.1-0.1,0.2-0.1c0.1-0.1,0.2-0.1,0.2-0.2c0,0,0.1-0.1,0.1-0.1c0,0,0.1-0.1,0.1-0.1c0.1,0,0.1-0.1,0.1-0.1
			c0,0,0.1-0.1,0.1-0.1c0,0,0.1-0.1,0.1-0.1c0.1-0.1,0.1-0.2,0.2-0.3c0,0,0.1-0.1,0.1-0.2c0.1-0.1,0.1-0.2,0.1-0.3
			c0-0.1,0-0.1,0-0.2c0,0,0-0.1,0-0.1c0,0-0.1-0.1-0.1-0.1c0,0-0.1-0.1-0.1-0.1c-0.1,0-0.2-0.1-0.3-0.1c-0.1,0-0.1,0-0.2,0
			c-0.1,0-0.1,0-0.2,0c-0.1,0-0.1,0-0.2,0.1c0,0-0.1,0-0.1,0c-0.1,0.1-0.2,0.2-0.3,0.3c-0.1,0.1-0.1,0.1-0.2,0.2
			c-0.1,0.1-0.1,0.2-0.1,0.2C369.8,364,369.8,364.1,369.8,364.3z M372.8,365.9c0,0,0.1,0,0.1,0c0.1,0.1,0.1,0.2,0.1,0.3
			c0,0,0,0.1,0,0.1c0,0.1-0.1,0.2-0.1,0.2c0,0.1-0.1,0.1-0.1,0.2c0,0,0,0.1,0,0.1c0,0.1,0,0.1,0.1,0c0.1,0,0.1-0.1,0.2-0.2
			c0,0,0.1-0.1,0.1-0.1c0-0.1,0.1-0.1,0.1-0.2c0-0.1,0.1-0.1,0.1-0.2c0-0.1,0.1-0.1,0.1-0.2c0-0.1,0-0.2,0-0.2c0-0.1,0-0.1-0.1-0.2
			c0,0,0,0,0-0.1c-0.1,0-0.1-0.1-0.2-0.1c-0.1,0-0.2-0.1-0.3-0.1c-0.1,0-0.2,0.1-0.3,0.1c0,0-0.1,0-0.1,0.1c0,0-0.1,0.1-0.1,0.1
			c-0.1,0-0.1,0.1-0.2,0.1c-0.1,0-0.1,0.1-0.2,0.1c-0.1,0-0.1,0.1-0.2,0.1c-0.1,0.1-0.1,0.1-0.2,0.2c-0.1,0-0.1,0.1-0.2,0.1
			c-0.1,0-0.1,0.1-0.1,0.1c-0.1,0-0.1,0.1-0.2,0.1c-0.1,0.1-0.2,0.1-0.2,0.2c-0.1,0.1-0.1,0.1-0.2,0.2c0,0,0,0.1,0,0.1c0,0,0,0,0,0
			c0.1,0,0.1,0,0.2-0.1c0,0,0.1,0,0.1,0c0.1,0,0.1-0.1,0.2-0.1c0.1-0.1,0.2-0.2,0.3-0.3c0.1-0.1,0.1-0.1,0.2-0.2
			c0.1,0,0.1-0.1,0.2-0.1c0.1,0,0.1-0.1,0.2-0.1c0,0,0.1-0.1,0.1-0.1c0.1,0,0.1-0.1,0.2-0.1C372.6,366,372.7,365.9,372.8,365.9z
			 M370.5,366.5C370.5,366.5,370.6,366.5,370.5,366.5c0.1-0.1,0.2-0.1,0.3-0.2c0.1-0.1,0.1-0.1,0.2-0.2c0.1-0.1,0.1-0.1,0.2-0.2
			c0.1-0.1,0.1-0.1,0.2-0.2c0.1-0.1,0.1-0.1,0.2-0.2c0,0,0.1-0.1,0.1-0.1c0,0,0.1-0.1,0.1-0.1c0-0.1,0-0.2-0.1-0.2
			c-0.1,0-0.1,0-0.2,0c-0.1,0-0.1,0.1-0.2,0.2c0,0-0.1,0.1-0.1,0.1c-0.1,0.1-0.2,0.1-0.2,0.2c0,0-0.1,0.1-0.1,0.1
			c-0.1,0.1-0.1,0.1-0.2,0.2c0,0-0.1,0.1-0.1,0.1c0,0-0.1,0.1-0.1,0.1C370.3,366.4,370.4,366.5,370.5,366.5z M369.9,367.3
			C369.9,367.3,369.9,367.3,369.9,367.3c0,0.1,0.1,0.1,0.1,0.1c0,0,0.1-0.1,0.1-0.1c0,0,0,0,0,0c0-0.1,0-0.1,0-0.2c0,0,0,0,0-0.1
			c0,0,0,0,0,0c0,0,0,0,0,0c0,0-0.1,0-0.1,0c0,0-0.1,0-0.1,0c0,0-0.1,0-0.1,0c0,0,0,0,0,0c0,0-0.1,0-0.1,0.1c0,0,0,0,0,0.1
			c0,0,0,0,0.1,0.1c0,0-0.1,0.1-0.1,0.1c0,0-0.1,0.1-0.1,0.1c0,0-0.1,0-0.1,0c0,0,0,0,0,0.1c0,0,0,0,0,0c0.1,0.1,0.1,0.1,0.2,0.2
			c0,0,0,0,0,0c0,0,0-0.1,0-0.1C369.8,367.4,369.9,367.3,369.9,367.3z M369.6,366.8C369.6,366.9,369.6,366.9,369.6,366.8
			c0.1,0.1,0.1,0.1,0.1,0.1c0,0,0.1-0.1,0.1-0.1c0,0,0-0.1,0-0.1c0-0.1,0-0.2,0-0.3c0,0,0-0.1,0-0.1c-0.1,0.1-0.2,0-0.2,0
			c0,0.1-0.1,0.1-0.1,0.1c0,0,0,0,0,0.1c0,0,0,0,0.1,0.1c-0.1,0.1-0.1,0.1-0.2,0.2c0,0,0,0-0.1-0.1c0,0,0,0,0,0
			c0,0.1,0.1,0.1,0.1,0.2c0,0,0,0,0.1,0.1c0,0,0,0,0,0c0,0,0,0,0,0c0,0,0,0,0,0c0,0,0.1-0.1,0.1-0.1
			C369.5,366.9,369.5,366.9,369.6,366.8z M370.3,366.7c0-0.1-0.1-0.2-0.2-0.2c-0.1,0-0.2,0.1-0.2,0.2c0,0.1,0.1,0.2,0.2,0.2
			C370.2,366.8,370.3,366.7,370.3,366.7z M369.8,366.1c0-0.1,0-0.1-0.1-0.1c0,0-0.1,0-0.1,0c-0.1,0-0.2,0.1-0.2,0.2
			c0,0.1,0.1,0.2,0.2,0.2C369.7,366.3,369.8,366.2,369.8,366.1z M370.5,367c-0.1,0-0.2,0.1-0.2,0.2c0,0.1,0.1,0.2,0.2,0.2
			c0.1,0,0.2-0.1,0.2-0.2C370.7,367.1,370.7,367,370.5,367z M369,366.9C369,366.9,369,366.9,369,366.9c-0.1,0-0.1,0.1-0.1,0.1
			c0,0-0.1,0.1-0.1,0.1c-0.1,0-0.1,0-0.2,0.1c-0.1,0.1-0.2,0.1-0.2,0.2c0,0,0,0.1,0,0.1c0.1,0,0.1,0,0.2-0.1c0.1,0,0.1-0.1,0.2-0.1
			c0,0,0.1-0.1,0.1-0.1c0,0,0,0,0,0C368.9,367,369,367,369,366.9C369,366.9,369,366.9,369,366.9z M368.8,367.8
			C368.8,367.8,368.8,367.8,368.8,367.8c0.1,0,0.1-0.1,0.2-0.1c0.1-0.1,0.1-0.1,0.2-0.2c0-0.1,0.1-0.1,0.1-0.1c0,0,0.1,0,0.1-0.1
			c0,0,0,0,0,0c0,0,0,0,0,0c0,0,0,0-0.1,0.1c-0.1,0-0.1,0.1-0.2,0.1c0,0,0,0,0,0c-0.1,0.1-0.2,0.1-0.2,0.2
			C368.8,367.6,368.8,367.7,368.8,367.8C368.8,367.8,368.8,367.8,368.8,367.8z M369.1,368.2c0.1,0,0.1,0,0.2-0.1
			c0,0,0.1-0.1,0.1-0.1c0,0,0.1-0.1,0.1-0.1c0-0.1,0.1-0.1,0.2-0.2c0,0,0,0,0,0c0,0,0,0,0,0c0,0-0.1,0.1-0.1,0.1c0,0,0,0-0.1,0.1
			c0,0-0.1,0-0.1,0.1c-0.1,0.1-0.2,0.1-0.3,0.2C369.2,368.1,369.2,368.1,369.1,368.2z"/>
		<path d="M374.7,358.2c0.1,0,0.2,0,0.2,0.1c0,0.1,0,0.1,0,0.2c0,0.1,0,0.1,0,0.2c0,0.1,0,0.1,0,0.2c0,0.1,0,0.1,0,0.2
			c0,0.1,0,0.1,0,0.2c0,0.1,0,0.2,0,0.2c0,0.1,0,0.1,0,0.2c0,0.1,0,0.1,0,0.2c0,0.1,0,0.2,0,0.3c0,0.1,0,0.1,0,0.2
			c0,0.1,0,0.1,0,0.2c0,0.1,0,0.1,0,0.2c0,0.1,0,0.2,0.1,0.2c0,0.1,0,0.1,0,0.2c0,0.1,0,0.2,0,0.2c0,0.1,0,0.1,0,0.2
			c0,0.1,0,0.1,0,0.2c0,0.1,0,0.1,0,0.2c0,0.1,0,0.2,0.1,0.2c0,0.1,0,0.1,0,0.2c0,0.1,0,0.2,0,0.2c0,0,0,0.1,0,0.1
			c0,0.1,0,0.1-0.1,0.2c-0.1,0-0.1,0-0.2,0c-0.1,0-0.1-0.1-0.1-0.1c0-0.1,0-0.2-0.1-0.2c0,0,0-0.1-0.1-0.1c0,0-0.1-0.1-0.1-0.1
			c0-0.1,0-0.1,0-0.2c0-0.1,0-0.1,0-0.2c0-0.1,0-0.1,0-0.2c0-0.1,0-0.1,0-0.2c0-0.1,0-0.1,0-0.2c0-0.1,0-0.1,0-0.2
			c0-0.1,0-0.1,0-0.2c0-0.1,0-0.1,0-0.2c0-0.1,0-0.1,0-0.2c0-0.1,0-0.1,0-0.2c0-0.1,0-0.1,0-0.2c0-0.1,0-0.1,0-0.2
			c0-0.1,0-0.1,0-0.2c0-0.1,0-0.1,0-0.2c0-0.1,0-0.1-0.1-0.2c0-0.1,0-0.1,0-0.2c0-0.1,0-0.2-0.1-0.3c0-0.1,0-0.1,0-0.1
			c0-0.1,0.1-0.1,0.1-0.2c0-0.1,0-0.2,0-0.3C374.6,358.3,374.6,358.2,374.7,358.2z M374.7,358.4
			C374.7,358.4,374.7,358.5,374.7,358.4c0,0.1,0,0.1,0,0.2c0,0,0,0.1,0,0.1c0,0.1,0,0.2,0.1,0.3c0,0.1,0,0.1,0,0.2
			c0,0.1,0,0.2,0.1,0.3c0,0,0,0.1,0,0.1c0,0.1,0,0.2,0.1,0.2c0,0.1,0,0.1,0,0.2c0,0.1,0,0.1,0,0.2c0,0.1,0,0.1,0,0.2
			c0,0.1,0,0.1,0,0.2c0,0.1,0,0.1,0,0.2c0,0.1,0,0.1,0,0.2c0,0.1,0,0.1,0,0.2c0,0.1,0,0.2,0,0.3c0,0.1,0,0.1,0,0.2
			c0,0.1,0,0.1,0,0.2c0,0.1,0,0.1,0,0.2c0,0.1,0,0.1,0,0.2c0,0.1,0,0.1,0,0.2c0,0.1,0,0.2,0,0.2c0,0,0,0.1,0,0.1c0,0,0,0,0,0
			c0,0,0,0,0-0.1c0,0,0-0.1,0-0.1c0-0.1,0-0.1,0-0.2c0-0.1,0-0.1,0-0.2c0-0.1,0-0.2-0.1-0.2c0-0.1,0-0.1,0-0.2c0-0.1,0-0.2,0-0.2
			c0-0.1,0-0.1,0-0.2c0-0.1,0-0.2-0.1-0.2c0-0.1,0-0.2,0-0.2c0-0.1,0-0.2,0-0.3c0-0.1,0-0.1,0-0.2c0-0.1,0-0.1,0-0.2
			c0-0.1,0-0.1,0-0.2c0-0.1,0-0.1,0-0.2c0-0.1,0-0.1,0-0.2c0-0.1,0-0.1,0-0.2c0-0.1,0-0.2,0-0.2c0,0,0-0.1,0-0.1
			c0-0.1,0-0.2-0.1-0.2c0-0.1,0-0.1,0-0.2c0-0.1,0-0.2,0-0.2C374.8,358.5,374.8,358.4,374.7,358.4z"/>
		<path d="M371.2,369.1C371.2,369.1,371.2,369.1,371.2,369.1c-0.1,0.1-0.1,0.1-0.2,0.2c0,0,0,0-0.1,0c0,0-0.1,0-0.1,0
			c-0.1,0-0.1-0.1-0.2-0.1c-0.1-0.1-0.2-0.1-0.2-0.2c-0.1-0.1-0.2-0.2-0.3-0.3c-0.1-0.1-0.1-0.1-0.2-0.2c0,0-0.1-0.1-0.1-0.1
			c0,0,0,0,0,0c0,0,0,0,0,0c0.1,0.1,0.2,0.1,0.3,0.2c0.1,0,0.2,0.1,0.3,0.1c0.1,0,0.1,0,0.2,0.1c0.1,0,0.1,0.1,0.2,0.1
			c0.1,0,0.1,0,0.2,0.1C371,368.9,371.1,369,371.2,369.1C371.1,369,371.2,369,371.2,369.1C371.2,369.1,371.2,369.1,371.2,369.1z
			 M370.6,369C370.7,369,370.7,369,370.6,369C370.7,369,370.7,369,370.6,369c0.1-0.1,0.1-0.1,0.1-0.1c0,0,0-0.1,0-0.1c0,0,0,0,0,0
			c0,0,0,0,0,0c0,0-0.1,0.1-0.1,0.1C370.6,368.9,370.6,368.9,370.6,369C370.6,369,370.6,369,370.6,369z"/>
		<path d="M371.1,369.4c0,0,0.1-0.1,0.1-0.1c0,0,0-0.1,0.1-0.1c0,0,0,0,0,0c0,0,0.1,0.1,0.1,0.1c0,0,0.1,0.1,0.1,0.1
			c0,0,0.1,0.1,0.1,0.1c0,0,0,0,0.1,0.1C371.5,369.5,371.3,369.5,371.1,369.4z"/>
		<path d="M372.1,370c-0.1-0.1-0.2-0.3-0.3-0.4c0,0,0,0,0,0c0.2,0.1,0.3,0.2,0.5,0.3C372.2,369.9,372.1,369.9,372.1,370z"/>
		<path d="M373.1,364.2C373.1,364.2,373.1,364.3,373.1,364.2c-0.1,0.1-0.1,0.1-0.2,0.1c0,0,0,0-0.1,0c-0.1-0.1-0.1-0.1-0.1-0.2
			c-0.1-0.1-0.1-0.1-0.2-0.2c-0.1-0.1-0.1-0.2-0.2-0.2c-0.1-0.1-0.1-0.1-0.2-0.2c-0.1-0.1-0.1-0.1-0.2-0.2c0,0,0,0,0,0c0,0,0,0,0,0
			c0.1,0,0.1-0.1,0.2-0.1c0,0,0,0,0,0c0.1,0.1,0.1,0.1,0.2,0.2c0.1,0.1,0.1,0.1,0.1,0.2c0,0,0.1,0.1,0.1,0.1
			c0.1,0.1,0.2,0.2,0.2,0.3C372.9,364,373,364.1,373.1,364.2C373.1,364.2,373.1,364.2,373.1,364.2z"/>
		<path d="M369.5,365.4c0-0.1,0-0.2,0-0.2c0,0,0-0.1,0.1-0.1c0,0,0-0.1,0.1-0.1c0,0,0.1-0.1,0.1-0.1c0,0,0.1-0.1,0.1-0.1
			c0,0,0,0,0.1-0.1c0.1,0,0.2-0.1,0.2-0.1c0.1-0.1,0.2-0.1,0.3-0.1c0.1,0,0.2-0.1,0.2-0.1c0.1,0,0.1-0.1,0.2-0.1c0,0,0.1,0,0.1-0.1
			c-0.1,0.1-0.1,0.2-0.2,0.2c-0.1,0.1-0.1,0.1-0.2,0.2c-0.1,0.1-0.1,0.1-0.2,0.2c-0.1,0.1-0.1,0.1-0.2,0.2c0,0-0.1,0.1-0.1,0.1
			c-0.1,0.1-0.1,0.2-0.2,0.2c0,0-0.1,0.1-0.1,0.1c0,0,0,0,0,0.1C369.6,365.4,369.5,365.4,369.5,365.4z"/>
		<path d="M371.8,362.6c0.1,0,0.1,0,0.2,0c0.1,0,0.1,0,0.2,0c0,0,0,0,0,0c0,0.1,0,0.2,0,0.2c0,0.1-0.1,0.1-0.1,0.2
			c0,0-0.1,0.1-0.1,0.1c0,0,0,0,0,0c-0.1-0.1-0.1-0.1-0.2-0.2c0,0,0,0,0,0c0.1-0.1,0.1-0.1,0.2-0.2c0,0,0-0.1,0-0.1
			C372,362.6,371.9,362.6,371.8,362.6z"/>
		<path d="M371.1,363.7c0,0,0.1-0.1,0.1-0.1c0,0,0.1,0,0.1-0.1c0.1,0,0.1-0.1,0.2-0.1c0,0,0,0,0,0c0,0,0.1,0.1,0.1,0.1
			c0,0,0,0.1,0,0.1c0,0-0.1,0.1-0.1,0.1c0,0-0.1,0-0.1,0.1c0,0,0,0,0,0c0,0,0,0-0.1,0c0,0,0,0-0.1-0.1
			C371.2,363.7,371.1,363.7,371.1,363.7z"/>
		<path d="M370.2,366.6C370.2,366.7,370.1,366.7,370.2,366.6c-0.1,0.1-0.2,0.1-0.2,0C370,366.6,370,366.6,370.2,366.6
			C370.1,366.6,370.2,366.6,370.2,366.6z"/>
		<path d="M369.7,366.1C369.7,366.2,369.7,366.2,369.7,366.1c-0.1,0.1-0.2,0-0.2,0C369.5,366.1,369.6,366,369.7,366.1
			C369.7,366,369.7,366.1,369.7,366.1z"/>
		<path d="M370.5,367.2C370.5,367.1,370.5,367.1,370.5,367.2c0.1-0.1,0.2,0,0.2,0C370.6,367.2,370.6,367.3,370.5,367.2
			C370.5,367.3,370.5,367.2,370.5,367.2z"/>
	</g>
</g>
</svg>
